M48
; DRILL file {KiCad 9.0.0} date 2026-06-26T15:37:04-0400
; FORMAT={-:-/ absolute / metric / decimal}
; #@! TF.CreationDate,2026-06-26T15:37:04-04:00
; #@! TF.GenerationSoftware,Kicad,Pcbnew,9.0.0
; #@! TF.FileFunction,Plated,1,2,PTH
FMAT,2
METRIC
; #@! TA.AperFunction,Plated,PTH,ComponentDrill
T1C0.200
; #@! TA.AperFunction,Plated,PTH,ComponentDrill
T2C0.250
; #@! TA.AperFunction,Plated,PTH,ViaDrill
T3C0.300
; #@! TA.AperFunction,Plated,PTH,ComponentDrill
T4C0.400
; #@! TA.AperFunction,Plated,PTH,ComponentDrill
T5C0.600
; #@! TA.AperFunction,Plated,PTH,ComponentDrill
T6C1.000
; #@! TA.AperFunction,Plated,PTH,ComponentDrill
T7C1.200
; #@! TA.AperFunction,Plated,PTH,ComponentDrill
T8C2.200
%
G90
G05
T1
X196.686Y-102.64
X197.711Y-101.614
X197.711Y-103.665
X198.737Y-100.589
X198.737Y-102.64
X198.737Y-104.69
X199.762Y-101.614
X199.762Y-103.665
X200.787Y-102.64
T2
X238.69Y-82.12
X243.53Y-87.4
T3
X151.14Y-114.17
X152.25Y-123.0
X152.25Y-127.75
X152.25Y-133.0
X152.25Y-138.25
X152.25Y-143.25
X152.25Y-148.25
X152.25Y-153.5
X153.5Y-159.75
X153.75Y-155.25
X153.78Y-77.44
X154.43Y-114.02
X155.14Y-72.06
X155.19Y-92.33
X157.21Y-105.59
X157.23Y-108.88
X157.24Y-93.98
X157.26Y-90.83
X157.48Y-81.28
X157.48Y-86.36
X157.48Y-96.52
X158.197Y-102.03
X158.36Y-68.16
X158.5Y-122.0
X158.5Y-126.5
X158.5Y-144.75
X158.5Y-155.0
X158.75Y-160.0
X159.33Y-107.2
X159.37Y-92.4
X160.0Y-161.0
X160.73Y-101.96
X161.25Y-144.75
X161.26Y-65.93
X161.26Y-97.984
X161.6Y-101.3
X162.24Y-99.501
X162.25Y-143.25
X162.5Y-107.21
X162.56Y-81.28
X162.56Y-86.36
X163.1Y-107.42
X163.17Y-109.1
X163.2Y-101.3
X163.27Y-93.33
X163.3Y-106.82
X163.56Y-103.4
X163.57Y-102.4
X163.59Y-104.4
X163.6Y-105.36
X164.09Y-94.79
X165.0Y-161.0
X165.04Y-66.55
X166.48Y-93.9
X166.49Y-90.94
X167.49Y-92.96
X167.64Y-81.28
X167.64Y-86.36
X167.64Y-91.44
X167.64Y-106.68
X167.85Y-102.01
X169.05Y-103.26
X169.32Y-95.38
X170.0Y-143.25
X170.0Y-161.0
X170.05Y-69.77
X170.37Y-102.02
X170.57Y-94.09
X171.0Y-132.0
X171.25Y-128.75
X171.25Y-154.5
X171.81Y-95.38
X172.72Y-81.28
X172.72Y-86.36
X172.72Y-91.44
X172.72Y-96.52
X172.72Y-106.68
X172.72Y-116.84
X173.75Y-157.5
X173.95Y-74.22
X174.0Y-132.0
X174.0Y-144.75
X174.5Y-129.0
X175.0Y-156.0
X175.25Y-161.0
X177.8Y-81.28
X177.8Y-86.36
X177.8Y-91.44
X177.8Y-96.52
X177.8Y-106.68
X177.8Y-116.84
X178.41Y-100.59
X179.044Y-105.752
X179.115Y-108.655
X179.644Y-105.186
X179.715Y-107.947
X180.25Y-161.0
X182.88Y-81.28
X182.88Y-86.36
X182.88Y-91.44
X182.88Y-96.52
X182.88Y-116.84
X183.0Y-156.0
X183.25Y-129.0
X184.0Y-132.0
X184.0Y-141.5
X184.0Y-144.75
X185.25Y-161.0
X185.86Y-99.53
X185.87Y-98.32
X186.5Y-145.0
X186.5Y-157.5
X186.7Y-97.31
X186.75Y-132.0
X186.93Y-100.14
X187.75Y-143.0
X187.95Y-96.2
X187.96Y-81.28
X187.96Y-86.36
X188.25Y-100.02
X188.93Y-95.31
X189.73Y-93.28
X189.86Y-94.67
X190.5Y-161.0
X190.51Y-100.08
X190.79Y-95.49
X190.91Y-108.09
X191.877Y-106.31
X192.07Y-102.61
X192.66Y-102.08
X193.04Y-81.28
X193.04Y-86.36
X193.04Y-116.84
X193.38Y-102.29
X194.19Y-109.89
X194.453Y-97.47
X194.692Y-108.112
X195.392Y-108.46
X195.5Y-143.25
X195.5Y-161.0
X196.01Y-107.86
X196.072Y-97.924
X196.25Y-141.5
X196.56Y-108.42
X196.75Y-145.0
X197.194Y-107.845
X197.225Y-101.111
X197.544Y-94.744
X197.77Y-109.61
X197.818Y-104.762
X198.12Y-81.28
X198.12Y-86.36
X198.12Y-91.44
X198.12Y-111.76
X198.16Y-95.344
X198.352Y-94.144
X199.12Y-95.96
X199.139Y-93.544
X199.16Y-109.63
X199.197Y-108.31
X199.5Y-144.75
X199.537Y-96.766
X199.969Y-107.831
X200.25Y-110.75
X200.28Y-96.364
X200.5Y-161.0
X200.534Y-101.396
X201.029Y-96.402
X201.069Y-97.151
X201.108Y-103.308
X201.5Y-110.75
X202.5Y-110.0
X202.698Y-97.078
X202.774Y-97.824
X203.2Y-81.28
X203.2Y-86.36
X203.2Y-91.44
X203.2Y-111.76
X203.2Y-116.84
X203.245Y-96.565
X203.34Y-105.83
X203.75Y-106.27
X203.935Y-103.249
X203.939Y-98.215
X204.341Y-99.92
X204.64Y-103.74
X205.09Y-100.032
X205.36Y-104.45
X205.44Y-98.16
X205.654Y-99.314
X205.75Y-161.0
X206.141Y-98.744
X207.192Y-101.385
X207.25Y-98.75
X207.34Y-108.704
X208.0Y-99.5
X208.28Y-81.28
X208.28Y-86.36
X208.28Y-91.44
X208.412Y-100.132
X209.25Y-124.25
X209.25Y-126.75
X209.25Y-129.25
X209.25Y-131.75
X209.25Y-134.5
X209.25Y-137.0
X209.25Y-139.5
X209.25Y-142.0
X209.25Y-144.5
X209.25Y-147.0
X209.25Y-149.5
X209.25Y-152.0
X209.25Y-154.75
X209.25Y-157.25
X209.25Y-159.75
X210.42Y-96.28
X210.75Y-161.0
X211.0Y-121.44
X212.0Y-124.25
X212.0Y-126.75
X212.0Y-129.25
X212.0Y-131.75
X212.0Y-134.5
X212.0Y-139.5
X212.0Y-142.0
X212.0Y-144.5
X212.0Y-147.0
X212.0Y-149.5
X212.0Y-152.0
X212.0Y-154.75
X212.0Y-157.25
X212.0Y-159.75
X212.25Y-137.0
X213.36Y-81.28
X213.36Y-86.36
X213.36Y-91.44
X213.36Y-96.52
X215.75Y-161.0
X218.44Y-81.28
X218.44Y-86.36
X218.44Y-91.44
X218.44Y-101.6
X220.75Y-161.0
X223.19Y-98.75
X223.35Y-109.0
X223.52Y-81.28
X223.52Y-86.36
X223.52Y-91.44
X223.52Y-96.52
X223.52Y-106.68
X224.5Y-109.98
X224.53Y-107.86
X224.54Y-97.31
X225.78Y-109.11
X228.38Y-91.99
X228.6Y-81.28
X228.6Y-86.36
X228.6Y-96.52
X228.6Y-101.6
X228.6Y-106.68
X228.6Y-111.76
X228.6Y-152.4
X228.6Y-157.48
X228.93Y-89.9
X228.99Y-88.21
X229.16Y-109.11
X230.354Y-89.9
X230.359Y-87.618
X230.37Y-91.38
X230.53Y-108.02
X230.55Y-110.17
X230.6Y-97.28
X231.78Y-108.92
X232.44Y-116.78
X233.68Y-81.28
X233.68Y-86.36
X233.68Y-96.52
X233.68Y-101.6
X233.68Y-111.76
X233.68Y-152.4
X233.68Y-157.48
X234.47Y-105.59
X234.48Y-98.29
X234.48Y-113.45
X234.51Y-91.91
X234.54Y-80.09
X234.54Y-84.75
X234.7Y-75.02
X234.98Y-118.04
X236.03Y-78.26
X237.19Y-156.2
X237.43Y-160.47
X237.7Y-76.64
X237.72Y-120.83
X238.76Y-147.32
X238.76Y-152.4
X238.81Y-158.49
X238.81Y-162.27
X238.88Y-69.99
X240.1Y-160.49
X240.647Y-152.29
X242.2Y-121.51
X242.69Y-67.02
X242.757Y-152.13
X243.202Y-154.292
X245.437Y-154.813
X245.91Y-160.56
X246.137Y-153.29
X246.5Y-65.88
X247.45Y-158.44
X247.5Y-162.25
X248.25Y-121.57
X248.85Y-156.22
X248.92Y-147.32
X249.09Y-160.41
X250.12Y-67.64
X252.78Y-71.15
X253.53Y-75.496
X254.0Y-127.0
X254.0Y-132.08
X254.0Y-137.16
X254.0Y-142.24
X254.0Y-147.32
X254.0Y-152.4
X254.99Y-121.6
X255.98Y-75.48
X257.65Y-121.59
T4
X154.402Y-124.224
X154.492Y-157.434
X154.885Y-123.058
X154.885Y-125.391
X154.975Y-156.268
X154.975Y-158.601
X156.052Y-122.574
X156.052Y-125.874
X156.142Y-155.784
X156.142Y-159.084
X157.219Y-123.058
X157.219Y-125.391
X157.309Y-156.268
X157.309Y-158.601
X157.702Y-124.224
X157.792Y-157.434
X250.972Y-124.164
X250.972Y-157.304
X251.455Y-122.998
X251.455Y-125.331
X251.455Y-156.138
X251.455Y-158.471
X252.622Y-122.514
X252.622Y-125.814
X252.622Y-155.654
X252.622Y-158.954
X253.789Y-122.998
X253.789Y-125.331
X253.789Y-156.138
X253.789Y-158.471
X254.272Y-124.164
X254.272Y-157.304
T6
X152.74Y-111.46
X152.74Y-114.0
X152.74Y-116.54
X154.807Y-128.014
X154.807Y-130.554
X154.807Y-133.094
X154.807Y-135.634
X154.807Y-138.174
X154.807Y-140.714
X154.807Y-143.254
X154.807Y-145.794
X154.807Y-148.334
X154.807Y-150.874
X154.807Y-153.414
X157.347Y-128.014
X157.347Y-130.554
X157.347Y-133.094
X157.347Y-135.634
X157.347Y-140.714
X157.347Y-143.254
X157.347Y-145.794
X157.347Y-148.334
X157.347Y-150.874
X157.347Y-153.414
X157.347Y-138.174
X159.887Y-122.934
X159.887Y-125.474
X159.887Y-128.014
X159.887Y-130.554
X159.887Y-133.094
X159.887Y-135.634
X159.887Y-140.714
X159.887Y-145.794
X159.887Y-148.334
X159.887Y-150.874
X159.887Y-153.414
X159.887Y-155.954
X159.887Y-158.494
X162.427Y-122.934
X162.427Y-125.474
X162.427Y-128.014
X162.427Y-130.554
X162.427Y-133.094
X162.427Y-135.634
X162.427Y-145.794
X162.427Y-148.334
X162.427Y-150.874
X162.427Y-153.414
X162.427Y-155.954
X162.427Y-158.494
X164.967Y-125.474
X164.967Y-128.014
X164.967Y-148.334
X164.967Y-150.874
X164.967Y-122.934
X164.967Y-130.554
X164.967Y-133.094
X164.967Y-135.634
X164.967Y-145.794
X164.967Y-153.414
X164.967Y-155.954
X164.967Y-158.494
X167.507Y-122.934
X167.507Y-125.474
X167.507Y-128.014
X167.507Y-130.554
X167.507Y-133.094
X167.507Y-135.634
X167.507Y-145.794
X167.507Y-148.334
X167.507Y-150.874
X167.507Y-153.414
X167.507Y-155.954
X167.507Y-158.494
X170.047Y-122.934
X170.047Y-130.554
X170.047Y-133.094
X170.047Y-135.634
X170.047Y-145.794
X170.047Y-153.414
X170.047Y-155.954
X170.047Y-158.494
X170.047Y-125.474
X170.047Y-128.014
X170.047Y-148.334
X170.047Y-150.874
X172.587Y-122.934
X172.587Y-128.014
X172.587Y-133.094
X172.587Y-135.634
X172.587Y-140.714
X172.587Y-145.794
X172.587Y-148.334
X172.587Y-153.414
X172.587Y-158.494
X175.127Y-122.934
X175.127Y-135.634
X175.127Y-138.174
X175.127Y-140.714
X175.127Y-145.794
X175.127Y-148.334
X175.127Y-158.494
X175.127Y-133.094
X175.127Y-143.254
X177.667Y-122.934
X177.667Y-133.094
X177.667Y-135.634
X177.667Y-138.174
X177.667Y-140.714
X177.667Y-143.254
X177.667Y-145.794
X177.667Y-148.334
X177.667Y-158.494
X180.207Y-122.934
X180.207Y-133.094
X180.207Y-135.634
X180.207Y-140.714
X180.207Y-143.254
X180.207Y-145.794
X180.207Y-158.494
X180.207Y-138.174
X180.207Y-148.334
X182.747Y-122.934
X182.747Y-133.094
X182.747Y-135.634
X182.747Y-138.174
X182.747Y-140.714
X182.747Y-143.254
X182.747Y-145.794
X182.747Y-148.334
X182.747Y-158.494
X185.287Y-122.934
X185.287Y-128.014
X185.287Y-133.094
X185.287Y-135.634
X185.287Y-140.714
X185.287Y-145.794
X185.287Y-148.334
X185.287Y-153.414
X185.287Y-158.494
X187.827Y-125.474
X187.827Y-128.014
X187.827Y-148.334
X187.827Y-150.874
X187.827Y-122.934
X187.827Y-130.554
X187.827Y-133.094
X187.827Y-135.634
X187.827Y-145.794
X187.827Y-153.414
X187.827Y-155.954
X187.827Y-158.494
X190.36Y-122.97
X190.367Y-125.474
X190.367Y-128.014
X190.367Y-130.554
X190.367Y-133.094
X190.367Y-135.634
X190.367Y-145.794
X190.367Y-148.334
X190.367Y-150.874
X190.367Y-153.414
X190.367Y-155.954
X190.367Y-158.494
X192.9Y-122.97
X192.907Y-130.554
X192.907Y-133.094
X192.907Y-135.634
X192.907Y-145.794
X192.907Y-153.414
X192.907Y-155.954
X192.907Y-158.494
X192.907Y-125.474
X192.907Y-128.014
X192.907Y-148.334
X192.907Y-150.874
X195.44Y-122.97
X195.447Y-125.474
X195.447Y-128.014
X195.447Y-130.554
X195.447Y-133.094
X195.447Y-135.634
X195.447Y-145.794
X195.447Y-148.334
X195.447Y-150.874
X195.447Y-153.414
X195.447Y-155.954
X195.447Y-158.494
X197.98Y-122.97
X197.987Y-125.474
X197.987Y-128.014
X197.987Y-135.634
X197.987Y-140.714
X197.987Y-148.334
X197.987Y-150.874
X197.987Y-158.494
X197.987Y-130.554
X197.987Y-133.094
X197.987Y-145.794
X197.987Y-153.414
X197.987Y-155.954
X200.52Y-122.97
X200.527Y-125.474
X200.527Y-128.014
X200.527Y-130.554
X200.527Y-133.094
X200.527Y-135.634
X200.527Y-138.174
X200.527Y-140.714
X200.527Y-143.254
X200.527Y-145.794
X200.527Y-148.334
X200.527Y-150.874
X200.527Y-153.414
X200.527Y-155.954
X200.527Y-158.494
X203.06Y-122.97
X203.067Y-130.554
X203.067Y-133.094
X203.067Y-135.634
X203.067Y-143.254
X203.067Y-145.794
X203.067Y-150.874
X203.067Y-153.414
X203.067Y-155.954
X203.067Y-158.494
X203.067Y-125.474
X203.067Y-128.014
X203.067Y-138.174
X203.067Y-140.714
X203.067Y-148.334
X205.6Y-122.97
X205.607Y-125.474
X205.607Y-128.014
X205.607Y-130.554
X205.607Y-133.094
X205.607Y-135.634
X205.607Y-138.174
X205.607Y-140.714
X205.607Y-143.254
X205.607Y-145.794
X205.607Y-148.334
X205.607Y-150.874
X205.607Y-153.414
X205.607Y-155.954
X205.607Y-158.494
X208.14Y-122.97
X208.147Y-125.474
X208.147Y-128.014
X208.147Y-130.554
X208.147Y-135.634
X208.147Y-138.174
X208.147Y-140.714
X208.147Y-145.794
X208.147Y-148.334
X208.147Y-150.874
X208.147Y-153.414
X208.147Y-155.954
X208.147Y-158.494
X208.147Y-133.094
X208.147Y-143.254
X210.68Y-122.97
X210.69Y-125.48
X210.69Y-128.02
X210.69Y-130.56
X210.69Y-133.1
X210.69Y-135.64
X210.69Y-138.18
X210.69Y-140.72
X210.69Y-143.26
X210.69Y-145.8
X210.69Y-148.34
X210.69Y-150.88
X210.69Y-153.42
X210.69Y-155.96
X210.69Y-158.5
X213.22Y-122.97
X213.227Y-125.474
X213.227Y-128.014
X213.227Y-130.554
X213.227Y-133.094
X213.227Y-135.634
X213.227Y-140.714
X213.227Y-143.254
X213.227Y-145.794
X213.227Y-148.334
X213.227Y-150.874
X213.227Y-153.414
X213.227Y-155.954
X213.227Y-158.494
X213.227Y-138.174
X215.76Y-122.97
X215.767Y-130.554
X215.767Y-133.094
X215.767Y-135.634
X215.767Y-143.254
X215.767Y-145.794
X215.767Y-153.414
X215.767Y-155.954
X215.767Y-158.494
X215.767Y-125.474
X215.767Y-128.014
X215.767Y-138.174
X215.767Y-140.714
X215.767Y-148.334
X215.767Y-150.874
X218.3Y-122.97
X218.307Y-125.474
X218.307Y-128.014
X218.307Y-130.554
X218.307Y-133.094
X218.307Y-135.634
X218.307Y-138.174
X218.307Y-140.714
X218.307Y-143.254
X218.307Y-145.794
X218.307Y-148.334
X218.307Y-150.874
X218.307Y-153.414
X218.307Y-155.954
X218.307Y-158.494
X220.84Y-122.97
X220.847Y-125.474
X220.847Y-128.014
X220.847Y-135.634
X220.847Y-138.174
X220.847Y-140.714
X220.847Y-148.334
X220.847Y-150.874
X220.847Y-158.494
X220.847Y-130.554
X220.847Y-133.094
X220.847Y-143.254
X220.847Y-145.794
X220.847Y-153.414
X220.847Y-155.954
X223.38Y-122.97
X223.387Y-125.474
X223.387Y-128.014
X223.387Y-130.554
X223.387Y-133.094
X223.387Y-135.634
X223.387Y-138.174
X223.387Y-140.714
X223.387Y-145.794
X223.387Y-150.874
X223.387Y-153.414
X223.387Y-155.954
X225.92Y-122.97
X225.927Y-130.554
X225.927Y-133.094
X225.927Y-135.634
X225.927Y-153.414
X225.927Y-125.474
X225.927Y-128.014
X225.927Y-138.174
X225.927Y-140.714
X225.927Y-150.874
X228.46Y-122.97
X228.467Y-125.474
X228.467Y-128.014
X228.467Y-130.554
X228.467Y-133.094
X228.467Y-135.634
X228.467Y-138.174
X228.467Y-140.714
X228.467Y-150.874
X231.0Y-125.48
X231.0Y-128.02
X231.0Y-130.56
X231.007Y-133.094
X231.01Y-135.62
X231.01Y-138.16
X231.01Y-140.7
X233.547Y-128.014
X233.547Y-130.554
X233.547Y-133.094
X233.547Y-135.634
X233.547Y-138.174
X233.547Y-140.714
X236.087Y-133.094
X236.087Y-140.714
X236.087Y-138.174
T7
X159.912Y-138.174
X159.912Y-143.174
X172.412Y-138.174
X172.412Y-143.174
X172.692Y-150.914
X172.692Y-155.914
X172.732Y-125.444
X172.732Y-130.444
X185.192Y-150.914
X185.192Y-155.914
X185.232Y-125.444
X185.232Y-130.444
X185.302Y-138.224
X185.302Y-143.224
X197.802Y-138.224
X197.802Y-143.224
X223.522Y-143.314
X223.522Y-148.314
X236.022Y-143.314
X236.022Y-148.314
X236.392Y-130.624
X236.392Y-135.624
X248.892Y-130.624
X248.892Y-135.624
T8
X156.052Y-124.224
X156.142Y-157.434
X252.622Y-124.164
X252.622Y-157.304
T5
G00X238.797Y-156.884
M15
G01X238.797Y-155.784
M16
G05
G00X238.797Y-160.914
M15
G01X238.797Y-160.114
M16
G05
G00X247.437Y-156.884
M15
G01X247.437Y-155.784
M16
G05
G00X247.437Y-160.914
M15
G01X247.437Y-160.114
M16
G05
M30
