G04 #@! TF.GenerationSoftware,KiCad,Pcbnew,9.0.0*
G04 #@! TF.CreationDate,2026-06-26T14:59:30-04:00*
G04 #@! TF.ProjectId,einkbadge,65696e6b-6261-4646-9765-2e6b69636164,rev?*
G04 #@! TF.SameCoordinates,Original*
G04 #@! TF.FileFunction,Soldermask,Top*
G04 #@! TF.FilePolarity,Negative*
%FSLAX46Y46*%
G04 Gerber Fmt 4.6, Leading zero omitted, Abs format (unit mm)*
G04 Created by KiCad (PCBNEW 9.0.0) date 2026-06-26 14:59:30*
%MOMM*%
%LPD*%
G01*
G04 APERTURE LIST*
G04 Aperture macros list*
%AMRoundRect*
0 Rectangle with rounded corners*
0 $1 Rounding radius*
0 $2 $3 $4 $5 $6 $7 $8 $9 X,Y pos of 4 corners*
0 Add a 4 corners polygon primitive as box body*
4,1,4,$2,$3,$4,$5,$6,$7,$8,$9,$2,$3,0*
0 Add four circle primitives for the rounded corners*
1,1,$1+$1,$2,$3*
1,1,$1+$1,$4,$5*
1,1,$1+$1,$6,$7*
1,1,$1+$1,$8,$9*
0 Add four rect primitives between the rounded corners*
20,1,$1+$1,$2,$3,$4,$5,0*
20,1,$1+$1,$4,$5,$6,$7,0*
20,1,$1+$1,$6,$7,$8,$9,0*
20,1,$1+$1,$8,$9,$2,$3,0*%
%AMFreePoly0*
4,1,343,34.783411,15.877694,34.826668,15.859776,34.859776,15.826668,34.877694,15.783411,34.880000,15.760000,34.880000,0.000000,34.877694,-0.023411,34.859776,-0.066668,34.826668,-0.099776,34.783411,-0.117694,34.760000,-0.120000,0.440000,-0.120000,0.416589,-0.117694,0.373332,-0.099776,0.340224,-0.066668,0.322306,-0.023411,0.320000,0.000000,0.320000,15.320000,0.322306,15.343411,0.340224,15.386668,
0.373332,15.419776,0.416589,15.437694,0.440000,15.440000,34.320000,15.440000,34.343411,15.437694,34.386668,15.419776,34.419776,15.386668,34.437694,15.343411,34.440000,15.320000,34.440000,0.440000,34.437694,0.416589,34.419776,0.373332,34.386668,0.340224,34.343411,0.322306,34.320000,0.320000,0.880000,0.320000,0.856589,0.322306,0.813332,0.340224,0.780224,0.373332,0.762306,0.416589,
0.760000,0.440000,0.760000,14.880000,0.762306,14.903411,0.780224,14.946668,0.813332,14.979776,0.856589,14.997694,0.880000,15.000000,33.880000,15.000000,33.903411,14.997694,33.946668,14.979776,33.979776,14.946668,33.997694,14.903411,34.000000,14.880000,34.000000,0.880000,33.997694,0.856589,33.979776,0.813332,33.946668,0.780224,33.903411,0.762306,33.880000,0.760000,1.320000,0.760000,
1.296589,0.762306,1.253332,0.780224,1.220224,0.813332,1.202306,0.856589,1.200000,0.880000,1.200000,14.440000,1.202306,14.463411,1.220224,14.506668,1.253332,14.539776,1.296589,14.557694,1.320000,14.560000,33.440000,14.560000,33.463411,14.557694,33.506668,14.539776,33.539776,14.506668,33.557694,14.463411,33.560000,14.440000,33.560000,1.320000,33.557694,1.296589,33.539776,1.253332,
33.506668,1.220224,33.463411,1.202306,33.440000,1.200000,1.760000,1.200000,1.736589,1.202306,1.693332,1.220224,1.660224,1.253332,1.642306,1.296589,1.640000,1.320000,1.640000,14.000000,1.642306,14.023411,1.660224,14.066668,1.693332,14.099776,1.736589,14.117694,1.760000,14.120000,33.000000,14.120000,33.023411,14.117694,33.066668,14.099776,33.099776,14.066668,33.117694,14.023411,
33.120000,14.000000,33.120000,1.760000,33.117694,1.736589,33.099776,1.693332,33.066668,1.660224,33.023411,1.642306,33.000000,1.640000,2.200000,1.640000,2.176589,1.642306,2.133332,1.660224,2.100224,1.693332,2.082306,1.736589,2.080000,1.760000,2.080000,13.560000,2.082306,13.583411,2.100224,13.626668,2.133332,13.659776,2.176589,13.677694,2.200000,13.680000,32.560000,13.680000,
32.583411,13.677694,32.626668,13.659776,32.659776,13.626668,32.677694,13.583411,32.680000,13.560000,32.680000,2.200000,32.677694,2.176589,32.659776,2.133332,32.626668,2.100224,32.583411,2.082306,32.560000,2.080000,2.640000,2.080000,2.616589,2.082306,2.573332,2.100224,2.540224,2.133332,2.522306,2.176589,2.520000,2.200000,2.520000,13.120000,2.522306,13.143411,2.540224,13.186668,
2.573332,13.219776,2.616589,13.237694,2.640000,13.240000,32.120000,13.240000,32.143411,13.237694,32.186668,13.219776,32.219776,13.186668,32.237694,13.143411,32.240000,13.120000,32.240000,2.640000,32.237694,2.616589,32.219776,2.573332,32.186668,2.540224,32.143411,2.522306,32.120000,2.520000,3.080000,2.520000,3.056589,2.522306,3.013332,2.540224,2.980224,2.573332,2.962306,2.616589,
2.960000,2.640000,2.960000,12.680000,2.962306,12.703411,2.980224,12.746668,3.013332,12.779776,3.056589,12.797694,3.080000,12.800000,31.680000,12.800000,31.703411,12.797694,31.746668,12.779776,31.779776,12.746668,31.797694,12.703411,31.800000,12.680000,31.800000,3.080000,31.797694,3.056589,31.779776,3.013332,31.746668,2.980224,31.703411,2.962306,31.680000,2.960000,3.520000,2.960000,
3.496589,2.962306,3.453332,2.980224,3.420224,3.013332,3.402306,3.056589,3.400000,3.080000,3.400000,12.240000,3.402306,12.263411,3.420224,12.306668,3.453332,12.339776,3.496589,12.357694,3.520000,12.360000,31.240000,12.360000,31.263411,12.357694,31.306668,12.339776,31.339776,12.306668,31.357694,12.263411,31.360000,12.240000,31.360000,3.520000,31.357694,3.496589,31.339776,3.453332,
31.306668,3.420224,31.263411,3.402306,31.240000,3.400000,3.960000,3.400000,3.936589,3.402306,3.893332,3.420224,3.860224,3.453332,3.842306,3.496589,3.840000,3.520000,3.840000,11.800000,3.842306,11.823411,3.860224,11.866668,3.893332,11.899776,3.936589,11.917694,3.960000,11.920000,30.800000,11.920000,30.823411,11.917694,30.866668,11.899776,30.899776,11.866668,30.917694,11.823411,
30.920000,11.800000,30.920000,3.960000,30.917694,3.936589,30.899776,3.893332,30.866668,3.860224,30.823411,3.842306,30.800000,3.840000,4.400000,3.840000,4.376589,3.842306,4.333332,3.860224,4.300224,3.893332,4.282306,3.936589,4.280000,3.960000,4.280000,11.360000,4.282306,11.383411,4.300224,11.426668,4.333332,11.459776,4.376589,11.477694,4.400000,11.480000,30.360000,11.480000,
30.383411,11.477694,30.426668,11.459776,30.459776,11.426668,30.477694,11.383411,30.480000,11.360000,30.480000,4.400000,30.477694,4.376589,30.459776,4.333332,30.426668,4.300224,30.383411,4.282306,30.360000,4.280000,4.840000,4.280000,4.816589,4.282306,4.773332,4.300224,4.740224,4.333332,4.722306,4.376589,4.720000,4.400000,4.720000,10.920000,4.722306,10.943411,4.740224,10.986668,
4.773332,11.019776,4.816589,11.037694,4.840000,11.040000,29.920000,11.040000,29.943411,11.037694,29.986668,11.019776,30.019776,10.986668,30.037694,10.943411,30.040000,10.920000,30.040000,4.840000,30.037694,4.816589,30.019776,4.773332,29.986668,4.740224,29.943411,4.722306,29.896589,4.722306,29.853332,4.740224,29.820224,4.773332,29.802306,4.816589,29.800000,4.840000,29.800000,10.800000,
4.960000,10.800000,4.960000,4.520000,30.240000,4.520000,30.240000,11.240000,4.520000,11.240000,4.520000,4.080000,30.680000,4.080000,30.680000,11.680000,4.080000,11.680000,4.080000,3.640000,31.120000,3.640000,31.120000,12.120000,3.640000,12.120000,3.640000,3.200000,31.560000,3.200000,31.560000,12.560000,3.200000,12.560000,3.200000,2.760000,32.000000,2.760000,32.000000,13.000000,
2.760000,13.000000,2.760000,2.320000,32.440000,2.320000,32.440000,13.440000,2.320000,13.440000,2.320000,1.880000,32.880000,1.880000,32.880000,13.880000,1.880000,13.880000,1.880000,1.440000,33.320000,1.440000,33.320000,14.320000,1.440000,14.320000,1.440000,1.000000,33.760000,1.000000,33.760000,14.760000,1.000000,14.760000,1.000000,0.560000,34.200000,0.560000,34.200000,15.200000,
0.560000,15.200000,0.560000,0.120000,34.640000,0.120000,34.640000,15.640000,0.120000,15.640000,0.120000,0.000000,0.117694,-0.023411,0.099776,-0.066668,0.066668,-0.099776,0.023411,-0.117694,-0.023411,-0.117694,-0.066668,-0.099776,-0.099776,-0.066668,-0.117694,-0.023411,-0.120000,0.000000,-0.120000,15.760000,-0.117694,15.783411,-0.099776,15.826668,-0.066668,15.859776,-0.023411,15.877694,
0.000000,15.880000,34.760000,15.880000,34.783411,15.877694,34.783411,15.877694,$1*%
%AMFreePoly1*
4,1,21,24.663411,0.117694,24.706668,0.099776,24.739776,0.066668,24.757694,0.023411,24.757694,-0.023411,24.739776,-0.066668,24.706668,-0.099776,24.663411,-0.117694,24.640000,-0.120000,0.000000,-0.120000,-0.023411,-0.117694,-0.066668,-0.099776,-0.099776,-0.066668,-0.117694,-0.023411,-0.117694,0.023411,-0.099776,0.066668,-0.066668,0.099776,-0.023411,0.117694,0.000000,0.120000,24.640000,0.120000,
24.663411,0.117694,24.663411,0.117694,$1*%
G04 Aperture macros list end*
%ADD10C,1.700000*%
%ADD11RoundRect,0.250000X-0.600000X-0.600000X0.600000X-0.600000X0.600000X0.600000X-0.600000X0.600000X0*%
%ADD12O,1.700000X1.700000*%
%ADD13O,1.700000X2.200000*%
%ADD14RoundRect,0.250000X0.600000X-0.600000X0.600000X0.600000X-0.600000X0.600000X-0.600000X-0.600000X0*%
%ADD15O,3.000000X2.500000*%
%ADD16FreePoly0,270.000000*%
%ADD17FreePoly1,270.000000*%
%ADD18C,0.700000*%
%ADD19C,4.400000*%
%ADD20C,0.650000*%
%ADD21O,1.000000X1.800000*%
%ADD22O,1.000000X2.100000*%
G04 APERTURE END LIST*
D10*
G04 #@! TO.C,J2*
X152740000Y-116540000D03*
D11*
X152740000Y-114000000D03*
D12*
X152740000Y-111460001D03*
G04 #@! TD*
D11*
G04 #@! TO.C,J5*
X231000000Y-125480000D03*
X231000000Y-128020000D03*
X231000000Y-130560000D03*
G04 #@! TD*
G04 #@! TO.C,J6*
X231010000Y-135620000D03*
X231010000Y-138160000D03*
X231010000Y-140700000D03*
G04 #@! TD*
D13*
G04 #@! TO.C,J4*
X190360000Y-122970000D03*
X192900000Y-122970000D03*
X195440000Y-122970000D03*
X197980000Y-122970000D03*
X200520000Y-122970000D03*
X203060000Y-122970000D03*
X205600000Y-122970000D03*
X208140000Y-122970000D03*
D14*
X210680000Y-122970000D03*
D13*
X213220000Y-122970000D03*
X215760000Y-122970000D03*
X218300000Y-122970000D03*
X220840000Y-122970000D03*
X223380000Y-122970000D03*
X225920000Y-122970000D03*
X228460000Y-122970000D03*
G04 #@! TD*
D11*
G04 #@! TO.C,J3*
X210690000Y-125480000D03*
X210690000Y-128020000D03*
X210690000Y-130560000D03*
X210690000Y-133100000D03*
X210690000Y-135640000D03*
X210690000Y-138180000D03*
X210690000Y-140720000D03*
X210690000Y-143260000D03*
X210690000Y-145800000D03*
X210690000Y-148340000D03*
X210690000Y-150880000D03*
X210690000Y-153420000D03*
X210690000Y-155960000D03*
X210690000Y-158500000D03*
G04 #@! TD*
D10*
G04 #@! TO.C,REF\u002A\u002A10*
X175127095Y-122934282D03*
G04 #@! TD*
G04 #@! TO.C,REF\u002A\u002A502*
X205607095Y-153414281D03*
G04 #@! TD*
G04 #@! TO.C,REF\u002A\u002A206*
X164967096Y-135634281D03*
G04 #@! TD*
G04 #@! TO.C,REF\u002A\u002A193*
X233547095Y-133094281D03*
G04 #@! TD*
G04 #@! TO.C,REF\u002A\u002A194*
X236087095Y-133094281D03*
G04 #@! TD*
G04 #@! TO.C,REF\u002A\u002A107*
X218307095Y-128014281D03*
G04 #@! TD*
G04 #@! TO.C,REF\u002A\u002A420*
X200527095Y-148334281D03*
G04 #@! TD*
G04 #@! TO.C,REF\u002A\u002A291*
X177667095Y-140714282D03*
G04 #@! TD*
G04 #@! TO.C,REF\u002A\u002A460*
X200527095Y-150874282D03*
G04 #@! TD*
G04 #@! TO.C,REF\u002A\u002A222*
X205607095Y-135634282D03*
G04 #@! TD*
G04 #@! TO.C,REF\u002A\u002A535*
X187827096Y-155954281D03*
G04 #@! TD*
G04 #@! TO.C,REF\u002A\u002A369*
X172587095Y-145794282D03*
G04 #@! TD*
G04 #@! TO.C,REF\u002A\u002A86*
X164967095Y-128014281D03*
G04 #@! TD*
G04 #@! TO.C,REF\u002A\u002A97*
X192907096Y-128014281D03*
G04 #@! TD*
G04 #@! TO.C,REF\u002A\u002A61*
X203067096Y-125474281D03*
G04 #@! TD*
G04 #@! TO.C,REF\u002A\u002A189*
X223387095Y-133094281D03*
G04 #@! TD*
G04 #@! TO.C,REF\u002A\u002A58*
X195447095Y-125474281D03*
G04 #@! TD*
G04 #@! TO.C,REF\u002A\u002A229*
X223387095Y-135634281D03*
G04 #@! TD*
G04 #@! TO.C,REF\u002A\u002A82*
X154807095Y-128014281D03*
G04 #@! TD*
G04 #@! TO.C,REF\u002A\u002A165*
X162427095Y-133094282D03*
G04 #@! TD*
D15*
G04 #@! TO.C,SW2*
X159911832Y-138174282D03*
X172411832Y-138174282D03*
X159911832Y-143174282D03*
X172411832Y-143174282D03*
G04 #@! TD*
D10*
G04 #@! TO.C,REF\u002A\u002A445*
X162427095Y-150874281D03*
G04 #@! TD*
G04 #@! TO.C,REF\u002A\u002A322*
X154807095Y-143254281D03*
G04 #@! TD*
G04 #@! TO.C,REF\u002A\u002A187*
X218307095Y-133094282D03*
G04 #@! TD*
G04 #@! TO.C,REF\u002A\u002A340*
X200527095Y-143254281D03*
G04 #@! TD*
G04 #@! TO.C,REF\u002A\u002A537*
X192907095Y-155954281D03*
G04 #@! TD*
G04 #@! TO.C,REF\u002A\u002A572*
X180207095Y-158494281D03*
G04 #@! TD*
G04 #@! TO.C,REF\u002A\u002A525*
X162427095Y-155954282D03*
G04 #@! TD*
G04 #@! TO.C,REF\u002A\u002A180*
X200527095Y-133094281D03*
G04 #@! TD*
G04 #@! TO.C,REF\u002A\u002A205*
X162427095Y-135634282D03*
G04 #@! TD*
G04 #@! TO.C,REF\u002A\u002A164*
X159887095Y-133094281D03*
G04 #@! TD*
G04 #@! TO.C,REF\u002A\u002A89*
X172587095Y-128014281D03*
G04 #@! TD*
G04 #@! TO.C,REF\u002A\u002A274*
X236087096Y-138174281D03*
G04 #@! TD*
G04 #@! TO.C,REF\u002A\u002A466*
X215767096Y-150874281D03*
G04 #@! TD*
G04 #@! TO.C,REF\u002A\u002A383*
X208147095Y-145794282D03*
G04 #@! TD*
G04 #@! TO.C,REF\u002A\u002A425*
X213227095Y-148334281D03*
G04 #@! TD*
G04 #@! TO.C,REF\u002A\u002A208*
X170047095Y-135634281D03*
G04 #@! TD*
G04 #@! TO.C,REF\u002A\u002A57*
X192907096Y-125474281D03*
G04 #@! TD*
G04 #@! TO.C,REF\u002A\u002A416*
X190367095Y-148334281D03*
G04 #@! TD*
G04 #@! TO.C,REF\u002A\u002A233*
X233547095Y-135634281D03*
G04 #@! TD*
G04 #@! TO.C,REF\u002A\u002A447*
X167507095Y-150874282D03*
G04 #@! TD*
G04 #@! TO.C,REF\u002A\u002A209*
X172587095Y-135634282D03*
G04 #@! TD*
G04 #@! TO.C,REF\u002A\u002A500*
X200527095Y-153414281D03*
G04 #@! TD*
G04 #@! TO.C,REF\u002A\u002A218*
X195447095Y-135634282D03*
G04 #@! TD*
G04 #@! TO.C,REF\u002A\u002A177*
X192907095Y-133094281D03*
G04 #@! TD*
G04 #@! TO.C,REF\u002A\u002A428*
X220847095Y-148334281D03*
G04 #@! TD*
G04 #@! TO.C,REF\u002A\u002A501*
X203067095Y-153414281D03*
G04 #@! TD*
G04 #@! TO.C,REF\u002A\u002A95*
X187827095Y-128014281D03*
G04 #@! TD*
G04 #@! TO.C,REF\u002A\u002A87*
X167507095Y-128014282D03*
G04 #@! TD*
G04 #@! TO.C,REF\u002A\u002A377*
X192907095Y-145794281D03*
G04 #@! TD*
G04 #@! TO.C,REF\u002A\u002A528*
X170047095Y-155954281D03*
G04 #@! TD*
G04 #@! TO.C,REF\u002A\u002A506*
X215767095Y-153414281D03*
G04 #@! TD*
G04 #@! TO.C,REF\u002A\u002A419*
X197987095Y-148334281D03*
G04 #@! TD*
G04 #@! TO.C,REF\u002A\u002A414*
X185287095Y-148334281D03*
G04 #@! TD*
G04 #@! TO.C,REF\u002A\u002A443*
X157347095Y-150874282D03*
G04 #@! TD*
G04 #@! TO.C,REF\u002A\u002A168*
X170047095Y-133094281D03*
G04 #@! TD*
G04 #@! TO.C,REF\u002A\u002A142*
X205607095Y-130554281D03*
G04 #@! TD*
G04 #@! TO.C,REF\u002A\u002A373*
X182747095Y-145794282D03*
G04 #@! TD*
G04 #@! TO.C,REF\u002A\u002A145*
X213227095Y-130554282D03*
G04 #@! TD*
G04 #@! TO.C,REF\u002A\u002A406*
X164967095Y-148334281D03*
G04 #@! TD*
G04 #@! TO.C,REF\u002A\u002A427*
X218307095Y-148334281D03*
G04 #@! TD*
G04 #@! TO.C,REF\u002A\u002A100*
X200527095Y-128014282D03*
G04 #@! TD*
G04 #@! TO.C,REF\u002A\u002A48*
X170047096Y-125474281D03*
G04 #@! TD*
G04 #@! TO.C,REF\u002A\u002A536*
X190367095Y-155954281D03*
G04 #@! TD*
G04 #@! TO.C,REF\u002A\u002A347*
X218307095Y-143254281D03*
G04 #@! TD*
G04 #@! TO.C,REF\u002A\u002A566*
X164967096Y-158494281D03*
G04 #@! TD*
G04 #@! TO.C,REF\u002A\u002A309*
X223387095Y-140714282D03*
G04 #@! TD*
G04 #@! TO.C,REF\u002A\u002A375*
X187827096Y-145794281D03*
G04 #@! TD*
G04 #@! TO.C,REF\u002A\u002A386*
X215767095Y-145794281D03*
G04 #@! TD*
G04 #@! TO.C,REF\u002A\u002A4*
X159887095Y-122934281D03*
G04 #@! TD*
G04 #@! TO.C,REF\u002A\u002A228*
X220847095Y-135634282D03*
G04 #@! TD*
G04 #@! TO.C,REF\u002A\u002A268*
X220847095Y-138174281D03*
G04 #@! TD*
G04 #@! TO.C,REF\u002A\u002A348*
X220847096Y-143254281D03*
G04 #@! TD*
G04 #@! TO.C,REF\u002A\u002A341*
X203067095Y-143254281D03*
G04 #@! TD*
G04 #@! TO.C,REF\u002A\u002A423*
X208147095Y-148334281D03*
G04 #@! TD*
G04 #@! TO.C,REF\u002A\u002A362*
X154807095Y-145794281D03*
G04 #@! TD*
G04 #@! TO.C,REF\u002A\u002A583*
X208147095Y-158494282D03*
G04 #@! TD*
G04 #@! TO.C,REF\u002A\u002A465*
X213227095Y-150874282D03*
G04 #@! TD*
G04 #@! TO.C,REF\u002A\u002A564*
X159887095Y-158494282D03*
G04 #@! TD*
G04 #@! TO.C,REF\u002A\u002A267*
X218307095Y-138174281D03*
G04 #@! TD*
G04 #@! TO.C,REF\u002A\u002A214*
X185287095Y-135634282D03*
G04 #@! TD*
G04 #@! TO.C,REF\u002A\u002A307*
X218307095Y-140714281D03*
G04 #@! TD*
G04 #@! TO.C,REF\u002A\u002A538*
X195447095Y-155954282D03*
G04 #@! TD*
G04 #@! TO.C,REF\u002A\u002A578*
X195447095Y-158494282D03*
G04 #@! TD*
G04 #@! TO.C,REF\u002A\u002A372*
X180207095Y-145794281D03*
G04 #@! TD*
G04 #@! TO.C,REF\u002A\u002A191*
X228467095Y-133094281D03*
G04 #@! TD*
G04 #@! TO.C,REF\u002A\u002A163*
X157347095Y-133094281D03*
G04 #@! TD*
G04 #@! TO.C,REF\u002A\u002A565*
X162427095Y-158494282D03*
G04 #@! TD*
G04 #@! TO.C,REF\u002A\u002A217*
X192907095Y-135634281D03*
G04 #@! TD*
G04 #@! TO.C,REF\u002A\u002A166*
X164967096Y-133094281D03*
G04 #@! TD*
G04 #@! TO.C,REF\u002A\u002A332*
X180207095Y-143254281D03*
G04 #@! TD*
G04 #@! TO.C,REF\u002A\u002A388*
X220847096Y-145794282D03*
G04 #@! TD*
G04 #@! TO.C,REF\u002A\u002A487*
X167507095Y-153414281D03*
G04 #@! TD*
G04 #@! TO.C,REF\u002A\u002A207*
X167507095Y-135634281D03*
G04 #@! TD*
G04 #@! TO.C,REF\u002A\u002A102*
X205607095Y-128014281D03*
G04 #@! TD*
G04 #@! TO.C,REF\u002A\u002A250*
X175127095Y-138174281D03*
G04 #@! TD*
G04 #@! TO.C,REF\u002A\u002A417*
X192907096Y-148334281D03*
G04 #@! TD*
G04 #@! TO.C,REF\u002A\u002A284*
X159887095Y-140714281D03*
G04 #@! TD*
G04 #@! TO.C,REF\u002A\u002A489*
X172587095Y-153414281D03*
G04 #@! TD*
G04 #@! TO.C,REF\u002A\u002A546*
X215767095Y-155954281D03*
G04 #@! TD*
G04 #@! TO.C,REF\u002A\u002A162*
X154807095Y-133094281D03*
G04 #@! TD*
G04 #@! TO.C,REF\u002A\u002A203*
X157347095Y-135634281D03*
G04 #@! TD*
G04 #@! TO.C,REF\u002A\u002A379*
X197987096Y-145794282D03*
G04 #@! TD*
D16*
G04 #@! TO.C,L3*
X238690000Y-82120000D03*
D17*
X243530000Y-87400000D03*
G04 #@! TD*
D10*
G04 #@! TO.C,REF\u002A\u002A45*
X162427095Y-125474281D03*
G04 #@! TD*
G04 #@! TO.C,REF\u002A\u002A124*
X159887095Y-130554281D03*
G04 #@! TD*
G04 #@! TO.C,REF\u002A\u002A549*
X223387095Y-155954281D03*
G04 #@! TD*
G04 #@! TO.C,REF\u002A\u002A374*
X185287095Y-145794282D03*
G04 #@! TD*
G04 #@! TO.C,REF\u002A\u002A462*
X205607095Y-150874281D03*
G04 #@! TD*
G04 #@! TO.C,REF\u002A\u002A14*
X185287095Y-122934282D03*
G04 #@! TD*
G04 #@! TO.C,REF\u002A\u002A182*
X205607095Y-133094281D03*
G04 #@! TD*
G04 #@! TO.C,REF\u002A\u002A364*
X159887095Y-145794281D03*
G04 #@! TD*
G04 #@! TO.C,REF\u002A\u002A484*
X159887095Y-153414281D03*
G04 #@! TD*
G04 #@! TO.C,REF\u002A\u002A174*
X185287095Y-133094282D03*
G04 #@! TD*
G04 #@! TO.C,REF\u002A\u002A407*
X167507095Y-148334281D03*
G04 #@! TD*
G04 #@! TO.C,REF\u002A\u002A147*
X218307095Y-130554281D03*
G04 #@! TD*
G04 #@! TO.C,REF\u002A\u002A127*
X167507095Y-130554282D03*
G04 #@! TD*
G04 #@! TO.C,REF\u002A\u002A216*
X190367095Y-135634281D03*
G04 #@! TD*
G04 #@! TO.C,REF\u002A\u002A60*
X200527095Y-125474281D03*
G04 #@! TD*
G04 #@! TO.C,REF\u002A\u002A470*
X225927096Y-150874281D03*
G04 #@! TD*
G04 #@! TO.C,REF\u002A\u002A84*
X159887095Y-128014281D03*
G04 #@! TD*
G04 #@! TO.C,REF\u002A\u002A378*
X195447095Y-145794282D03*
G04 #@! TD*
D18*
G04 #@! TO.C,H1*
X154401832Y-124224281D03*
X154885106Y-123057555D03*
X154885106Y-125391007D03*
X156051832Y-122574281D03*
D19*
X156051832Y-124224281D03*
D18*
X156051832Y-125874281D03*
X157218558Y-123057555D03*
X157218558Y-125391007D03*
X157701832Y-124224281D03*
G04 #@! TD*
D10*
G04 #@! TO.C,REF\u002A\u002A499*
X197987096Y-153414281D03*
G04 #@! TD*
G04 #@! TO.C,REF\u002A\u002A456*
X190367095Y-150874282D03*
G04 #@! TD*
G04 #@! TO.C,REF\u002A\u002A260*
X200527095Y-138174281D03*
G04 #@! TD*
G04 #@! TO.C,REF\u002A\u002A442*
X154807095Y-150874281D03*
G04 #@! TD*
G04 #@! TO.C,REF\u002A\u002A539*
X197987096Y-155954281D03*
G04 #@! TD*
G04 #@! TO.C,REF\u002A\u002A273*
X233547095Y-138174281D03*
G04 #@! TD*
G04 #@! TO.C,REF\u002A\u002A380*
X200527095Y-145794281D03*
G04 #@! TD*
G04 #@! TO.C,REF\u002A\u002A579*
X197987095Y-158494282D03*
G04 #@! TD*
G04 #@! TO.C,REF\u002A\u002A576*
X190367095Y-158494281D03*
G04 #@! TD*
G04 #@! TO.C,REF\u002A\u002A55*
X187827095Y-125474281D03*
G04 #@! TD*
G04 #@! TO.C,REF\u002A\u002A271*
X228467095Y-138174281D03*
G04 #@! TD*
G04 #@! TO.C,REF\u002A\u002A226*
X215767095Y-135634281D03*
G04 #@! TD*
G04 #@! TO.C,REF\u002A\u002A495*
X187827096Y-153414281D03*
G04 #@! TD*
G04 #@! TO.C,REF\u002A\u002A446*
X164967095Y-150874281D03*
G04 #@! TD*
G04 #@! TO.C,REF\u002A\u002A408*
X170047096Y-148334281D03*
G04 #@! TD*
G04 #@! TO.C,REF\u002A\u002A508*
X220847096Y-153414281D03*
G04 #@! TD*
G04 #@! TO.C,REF\u002A\u002A313*
X233547095Y-140714282D03*
G04 #@! TD*
G04 #@! TO.C,REF\u002A\u002A98*
X195447095Y-128014281D03*
G04 #@! TD*
G04 #@! TO.C,REF\u002A\u002A105*
X213227095Y-128014282D03*
G04 #@! TD*
G04 #@! TO.C,REF\u002A\u002A261*
X203067096Y-138174281D03*
G04 #@! TD*
G04 #@! TO.C,REF\u002A\u002A151*
X228467095Y-130554281D03*
G04 #@! TD*
G04 #@! TO.C,REF\u002A\u002A455*
X187827095Y-150874281D03*
G04 #@! TD*
D18*
G04 #@! TO.C,H2*
X250971832Y-124164281D03*
X251455106Y-122997555D03*
X251455106Y-125331007D03*
X252621832Y-122514281D03*
D19*
X252621832Y-124164281D03*
D18*
X252621832Y-125814281D03*
X253788558Y-122997555D03*
X253788558Y-125331007D03*
X254271832Y-124164281D03*
G04 #@! TD*
D10*
G04 #@! TO.C,REF\u002A\u002A457*
X192907096Y-150874281D03*
G04 #@! TD*
G04 #@! TO.C,REF\u002A\u002A215*
X187827096Y-135634281D03*
G04 #@! TD*
G04 #@! TO.C,REF\u002A\u002A293*
X182747095Y-140714281D03*
G04 #@! TD*
G04 #@! TO.C,REF\u002A\u002A306*
X215767096Y-140714281D03*
G04 #@! TD*
G04 #@! TO.C,REF\u002A\u002A292*
X180207095Y-140714282D03*
G04 #@! TD*
G04 #@! TO.C,REF\u002A\u002A494*
X185287095Y-153414281D03*
G04 #@! TD*
G04 #@! TO.C,REF\u002A\u002A6*
X164967096Y-122934281D03*
G04 #@! TD*
G04 #@! TO.C,REF\u002A\u002A7*
X167507095Y-122934281D03*
G04 #@! TD*
G04 #@! TO.C,REF\u002A\u002A509*
X223387095Y-153414281D03*
G04 #@! TD*
G04 #@! TO.C,REF\u002A\u002A366*
X164967096Y-145794281D03*
G04 #@! TD*
G04 #@! TO.C,REF\u002A\u002A171*
X177667095Y-133094281D03*
G04 #@! TD*
G04 #@! TO.C,REF\u002A\u002A103*
X208147095Y-128014281D03*
G04 #@! TD*
G04 #@! TO.C,REF\u002A\u002A542*
X205607095Y-155954281D03*
G04 #@! TD*
G04 #@! TO.C,REF\u002A\u002A488*
X170047095Y-153414281D03*
G04 #@! TD*
G04 #@! TO.C,REF\u002A\u002A123*
X157347095Y-130554282D03*
G04 #@! TD*
G04 #@! TO.C,REF\u002A\u002A330*
X175127096Y-143254281D03*
G04 #@! TD*
G04 #@! TO.C,REF\u002A\u002A404*
X159887095Y-148334281D03*
G04 #@! TD*
G04 #@! TO.C,REF\u002A\u002A46*
X164967095Y-125474281D03*
G04 #@! TD*
G04 #@! TO.C,REF\u002A\u002A300*
X200527095Y-140714282D03*
G04 #@! TD*
G04 #@! TO.C,REF\u002A\u002A141*
X203067095Y-130554282D03*
G04 #@! TD*
G04 #@! TO.C,REF\u002A\u002A510*
X225927095Y-153414281D03*
G04 #@! TD*
G04 #@! TO.C,REF\u002A\u002A101*
X203067096Y-128014281D03*
G04 #@! TD*
G04 #@! TO.C,REF\u002A\u002A139*
X197987096Y-130554281D03*
G04 #@! TD*
G04 #@! TO.C,REF\u002A\u002A471*
X228467095Y-150874281D03*
G04 #@! TD*
G04 #@! TO.C,REF\u002A\u002A167*
X167507095Y-133094281D03*
G04 #@! TD*
G04 #@! TO.C,REF\u002A\u002A178*
X195447095Y-133094282D03*
G04 #@! TD*
G04 #@! TO.C,REF\u002A\u002A345*
X213227095Y-143254281D03*
G04 #@! TD*
G04 #@! TO.C,REF\u002A\u002A175*
X187827096Y-133094281D03*
G04 #@! TD*
G04 #@! TO.C,REF\u002A\u002A568*
X170047095Y-158494281D03*
G04 #@! TD*
G04 #@! TO.C,REF\u002A\u002A230*
X225927095Y-135634281D03*
G04 #@! TD*
G04 #@! TO.C,REF\u002A\u002A448*
X170047096Y-150874281D03*
G04 #@! TD*
G04 #@! TO.C,REF\u002A\u002A301*
X203067096Y-140714282D03*
G04 #@! TD*
G04 #@! TO.C,REF\u002A\u002A110*
X225927096Y-128014281D03*
G04 #@! TD*
G04 #@! TO.C,REF\u002A\u002A243*
X157347096Y-138174281D03*
G04 #@! TD*
G04 #@! TO.C,REF\u002A\u002A108*
X220847095Y-128014281D03*
G04 #@! TD*
G04 #@! TO.C,REF\u002A\u002A263*
X208147095Y-138174281D03*
G04 #@! TD*
G04 #@! TO.C,REF\u002A\u002A410*
X175127095Y-148334281D03*
G04 #@! TD*
G04 #@! TO.C,REF\u002A\u002A402*
X154807095Y-148334281D03*
G04 #@! TD*
G04 #@! TO.C,REF\u002A\u002A343*
X208147096Y-143254281D03*
G04 #@! TD*
G04 #@! TO.C,REF\u002A\u002A310*
X225927096Y-140714282D03*
G04 #@! TD*
G04 #@! TO.C,REF\u002A\u002A503*
X208147095Y-153414281D03*
G04 #@! TD*
G04 #@! TO.C,REF\u002A\u002A314*
X236087095Y-140714282D03*
G04 #@! TD*
D18*
G04 #@! TO.C,H4*
X250971833Y-157304282D03*
X251455107Y-156137556D03*
X251455107Y-158471008D03*
X252621833Y-155654282D03*
D19*
X252621833Y-157304282D03*
D18*
X252621833Y-158954282D03*
X253788559Y-156137556D03*
X253788559Y-158471008D03*
X254271833Y-157304282D03*
G04 #@! TD*
D10*
G04 #@! TO.C,REF\u002A\u002A136*
X190367095Y-130554282D03*
G04 #@! TD*
G04 #@! TO.C,REF\u002A\u002A223*
X208147095Y-135634282D03*
G04 #@! TD*
G04 #@! TO.C,REF\u002A\u002A580*
X200527095Y-158494281D03*
G04 #@! TD*
G04 #@! TO.C,REF\u002A\u002A150*
X225927095Y-130554282D03*
G04 #@! TD*
G04 #@! TO.C,REF\u002A\u002A62*
X205607095Y-125474281D03*
G04 #@! TD*
G04 #@! TO.C,REF\u002A\u002A311*
X228467095Y-140714281D03*
G04 #@! TD*
G04 #@! TO.C,REF\u002A\u002A422*
X205607095Y-148334281D03*
G04 #@! TD*
G04 #@! TO.C,REF\u002A\u002A289*
X172587095Y-140714281D03*
G04 #@! TD*
G04 #@! TO.C,REF\u002A\u002A526*
X164967096Y-155954281D03*
G04 #@! TD*
G04 #@! TO.C,REF\u002A\u002A505*
X213227095Y-153414281D03*
G04 #@! TD*
G04 #@! TO.C,REF\u002A\u002A94*
X185287095Y-128014281D03*
G04 #@! TD*
G04 #@! TO.C,REF\u002A\u002A106*
X215767096Y-128014281D03*
G04 #@! TD*
G04 #@! TO.C,REF\u002A\u002A149*
X223387095Y-130554282D03*
G04 #@! TD*
G04 #@! TO.C,REF\u002A\u002A459*
X197987095Y-150874281D03*
G04 #@! TD*
G04 #@! TO.C,REF\u002A\u002A113*
X233547095Y-128014281D03*
G04 #@! TD*
G04 #@! TO.C,REF\u002A\u002A444*
X159887095Y-150874281D03*
G04 #@! TD*
G04 #@! TO.C,REF\u002A\u002A63*
X208147095Y-125474281D03*
G04 #@! TD*
G04 #@! TO.C,REF\u002A\u002A569*
X172587095Y-158494282D03*
G04 #@! TD*
G04 #@! TO.C,REF\u002A\u002A85*
X162427095Y-128014281D03*
G04 #@! TD*
G04 #@! TO.C,REF\u002A\u002A210*
X175127095Y-135634282D03*
G04 #@! TD*
G04 #@! TO.C,REF\u002A\u002A486*
X164967096Y-153414281D03*
G04 #@! TD*
G04 #@! TO.C,REF\u002A\u002A302*
X205607095Y-140714281D03*
G04 #@! TD*
G04 #@! TO.C,REF\u002A\u002A213*
X182747095Y-135634282D03*
G04 #@! TD*
G04 #@! TO.C,REF\u002A\u002A8*
X170047095Y-122934281D03*
G04 #@! TD*
G04 #@! TO.C,REF\u002A\u002A111*
X228467095Y-128014281D03*
G04 #@! TD*
D15*
G04 #@! TO.C,SW1*
X172731832Y-125444281D03*
X185231832Y-125444281D03*
X172731832Y-130444281D03*
X185231832Y-130444281D03*
G04 #@! TD*
D10*
G04 #@! TO.C,REF\u002A\u002A172*
X180207095Y-133094281D03*
G04 #@! TD*
G04 #@! TO.C,REF\u002A\u002A367*
X167507095Y-145794281D03*
G04 #@! TD*
G04 #@! TO.C,REF\u002A\u002A381*
X203067095Y-145794281D03*
G04 #@! TD*
G04 #@! TO.C,REF\u002A\u002A126*
X164967096Y-130554282D03*
G04 #@! TD*
G04 #@! TO.C,REF\u002A\u002A137*
X192907095Y-130554282D03*
G04 #@! TD*
G04 #@! TO.C,REF\u002A\u002A323*
X157347095Y-143254281D03*
G04 #@! TD*
G04 #@! TO.C,REF\u002A\u002A574*
X185287095Y-158494282D03*
G04 #@! TD*
G04 #@! TO.C,REF\u002A\u002A409*
X172587095Y-148334281D03*
G04 #@! TD*
G04 #@! TO.C,REF\u002A\u002A15*
X187827096Y-122934281D03*
G04 #@! TD*
G04 #@! TO.C,REF\u002A\u002A413*
X182747095Y-148334281D03*
G04 #@! TD*
G04 #@! TO.C,REF\u002A\u002A265*
X213227096Y-138174281D03*
G04 #@! TD*
G04 #@! TO.C,REF\u002A\u002A570*
X175127095Y-158494282D03*
G04 #@! TD*
D15*
G04 #@! TO.C,SW6*
X223521832Y-143314281D03*
X236021832Y-143314281D03*
X223521832Y-148314281D03*
X236021832Y-148314281D03*
G04 #@! TD*
D10*
G04 #@! TO.C,REF\u002A\u002A88*
X170047096Y-128014281D03*
G04 #@! TD*
G04 #@! TO.C,REF\u002A\u002A483*
X157347095Y-153414281D03*
G04 #@! TD*
G04 #@! TO.C,REF\u002A\u002A227*
X218307095Y-135634282D03*
G04 #@! TD*
G04 #@! TO.C,REF\u002A\u002A527*
X167507095Y-155954281D03*
G04 #@! TD*
G04 #@! TO.C,REF\u002A\u002A146*
X215767095Y-130554282D03*
G04 #@! TD*
G04 #@! TO.C,REF\u002A\u002A426*
X215767096Y-148334281D03*
G04 #@! TD*
G04 #@! TO.C,REF\u002A\u002A143*
X208147095Y-130554281D03*
G04 #@! TD*
G04 #@! TO.C,REF\u002A\u002A463*
X208147095Y-150874281D03*
G04 #@! TD*
G04 #@! TO.C,REF\u002A\u002A66*
X215767096Y-125474281D03*
G04 #@! TD*
G04 #@! TO.C,REF\u002A\u002A371*
X177667095Y-145794281D03*
G04 #@! TD*
G04 #@! TO.C,REF\u002A\u002A548*
X220847096Y-155954281D03*
G04 #@! TD*
G04 #@! TO.C,REF\u002A\u002A365*
X162427095Y-145794282D03*
G04 #@! TD*
G04 #@! TO.C,REF\u002A\u002A65*
X213227095Y-125474281D03*
G04 #@! TD*
G04 #@! TO.C,REF\u002A\u002A202*
X154807095Y-135634281D03*
G04 #@! TD*
G04 #@! TO.C,REF\u002A\u002A458*
X195447095Y-150874281D03*
G04 #@! TD*
G04 #@! TO.C,REF\u002A\u002A204*
X159887095Y-135634282D03*
G04 #@! TD*
G04 #@! TO.C,REF\u002A\u002A59*
X197987095Y-125474281D03*
G04 #@! TD*
G04 #@! TO.C,REF\u002A\u002A524*
X159887095Y-155954281D03*
G04 #@! TD*
G04 #@! TO.C,REF\u002A\u002A231*
X228467095Y-135634282D03*
G04 #@! TD*
G04 #@! TO.C,REF\u002A\u002A331*
X177667095Y-143254281D03*
G04 #@! TD*
G04 #@! TO.C,REF\u002A\u002A385*
X213227095Y-145794281D03*
G04 #@! TD*
G04 #@! TO.C,REF\u002A\u002A153*
X233547095Y-130554282D03*
G04 #@! TD*
G04 #@! TO.C,REF\u002A\u002A188*
X220847096Y-133094281D03*
G04 #@! TD*
G04 #@! TO.C,REF\u002A\u002A253*
X182747095Y-138174281D03*
G04 #@! TD*
G04 #@! TO.C,REF\u002A\u002A69*
X223387095Y-125474281D03*
G04 #@! TD*
G04 #@! TO.C,REF\u002A\u002A5*
X162427095Y-122934282D03*
G04 #@! TD*
G04 #@! TO.C,REF\u002A\u002A418*
X195447095Y-148334281D03*
G04 #@! TD*
G04 #@! TO.C,REF\u002A\u002A303*
X208147095Y-140714281D03*
G04 #@! TD*
G04 #@! TO.C,REF\u002A\u002A266*
X215767096Y-138174281D03*
G04 #@! TD*
G04 #@! TO.C,REF\u002A\u002A225*
X213227095Y-135634281D03*
G04 #@! TD*
G04 #@! TO.C,REF\u002A\u002A173*
X182747095Y-133094281D03*
G04 #@! TD*
G04 #@! TO.C,REF\u002A\u002A342*
X205607095Y-143254281D03*
G04 #@! TD*
G04 #@! TO.C,REF\u002A\u002A496*
X190367095Y-153414281D03*
G04 #@! TD*
G04 #@! TO.C,REF\u002A\u002A9*
X172587095Y-122934282D03*
G04 #@! TD*
G04 #@! TO.C,REF\u002A\u002A44*
X159887095Y-125474281D03*
G04 #@! TD*
G04 #@! TO.C,REF\u002A\u002A220*
X200527095Y-135634281D03*
G04 #@! TD*
G04 #@! TO.C,REF\u002A\u002A586*
X215767095Y-158494281D03*
G04 #@! TD*
G04 #@! TO.C,REF\u002A\u002A128*
X170047095Y-130554282D03*
G04 #@! TD*
G04 #@! TO.C,REF\u002A\u002A415*
X187827095Y-148334281D03*
G04 #@! TD*
G04 #@! TO.C,REF\u002A\u002A497*
X192907095Y-153414281D03*
G04 #@! TD*
D18*
G04 #@! TO.C,H3*
X154491832Y-157434282D03*
X154975106Y-156267556D03*
X154975106Y-158601008D03*
X156141832Y-155784282D03*
D19*
X156141832Y-157434282D03*
D18*
X156141832Y-159084282D03*
X157308558Y-156267556D03*
X157308558Y-158601008D03*
X157791832Y-157434282D03*
G04 #@! TD*
D10*
G04 #@! TO.C,REF\u002A\u002A541*
X203067095Y-155954281D03*
G04 #@! TD*
G04 #@! TO.C,REF\u002A\u002A181*
X203067095Y-133094281D03*
G04 #@! TD*
G04 #@! TO.C,REF\u002A\u002A125*
X162427095Y-130554281D03*
G04 #@! TD*
G04 #@! TO.C,REF\u002A\u002A545*
X213227095Y-155954281D03*
G04 #@! TD*
G04 #@! TO.C,REF\u002A\u002A13*
X182747095Y-122934281D03*
G04 #@! TD*
G04 #@! TO.C,REF\u002A\u002A403*
X157347095Y-148334281D03*
G04 #@! TD*
G04 #@! TO.C,REF\u002A\u002A138*
X195447095Y-130554281D03*
G04 #@! TD*
G04 #@! TO.C,REF\u002A\u002A543*
X208147095Y-155954282D03*
G04 #@! TD*
G04 #@! TO.C,REF\u002A\u002A211*
X177667095Y-135634281D03*
G04 #@! TD*
G04 #@! TO.C,REF\u002A\u002A252*
X180207096Y-138174281D03*
G04 #@! TD*
D15*
G04 #@! TO.C,SW4*
X185301832Y-138224281D03*
X197801832Y-138224281D03*
X185301832Y-143224281D03*
X197801832Y-143224281D03*
G04 #@! TD*
D10*
G04 #@! TO.C,REF\u002A\u002A148*
X220847096Y-130554281D03*
G04 #@! TD*
G04 #@! TO.C,REF\u002A\u002A183*
X208147096Y-133094281D03*
G04 #@! TD*
G04 #@! TO.C,REF\u002A\u002A140*
X200527095Y-130554282D03*
G04 #@! TD*
G04 #@! TO.C,REF\u002A\u002A376*
X190367095Y-145794281D03*
G04 #@! TD*
G04 #@! TO.C,REF\u002A\u002A169*
X172587095Y-133094281D03*
G04 #@! TD*
G04 #@! TO.C,REF\u002A\u002A242*
X154807095Y-138174281D03*
G04 #@! TD*
G04 #@! TO.C,REF\u002A\u002A498*
X195447095Y-153414281D03*
G04 #@! TD*
G04 #@! TO.C,REF\u002A\u002A283*
X157347095Y-140714282D03*
G04 #@! TD*
G04 #@! TO.C,REF\u002A\u002A212*
X180207095Y-135634281D03*
G04 #@! TD*
D15*
G04 #@! TO.C,SW3*
X172691833Y-150914281D03*
X185191833Y-150914281D03*
X172691833Y-155914281D03*
X185191833Y-155914281D03*
G04 #@! TD*
D10*
G04 #@! TO.C,REF\u002A\u002A176*
X190367095Y-133094281D03*
G04 #@! TD*
G04 #@! TO.C,REF\u002A\u002A68*
X220847095Y-125474281D03*
G04 #@! TD*
G04 #@! TO.C,REF\u002A\u002A421*
X203067096Y-148334281D03*
G04 #@! TD*
G04 #@! TO.C,REF\u002A\u002A270*
X225927096Y-138174281D03*
G04 #@! TD*
G04 #@! TO.C,REF\u002A\u002A221*
X203067095Y-135634281D03*
G04 #@! TD*
G04 #@! TO.C,REF\u002A\u002A262*
X205607095Y-138174281D03*
G04 #@! TD*
G04 #@! TO.C,REF\u002A\u002A56*
X190367095Y-125474281D03*
G04 #@! TD*
G04 #@! TO.C,REF\u002A\u002A389*
X223387095Y-145794281D03*
G04 #@! TD*
G04 #@! TO.C,REF\u002A\u002A588*
X220847095Y-158494282D03*
G04 #@! TD*
G04 #@! TO.C,REF\u002A\u002A122*
X154807095Y-130554282D03*
G04 #@! TD*
G04 #@! TO.C,REF\u002A\u002A299*
X197987095Y-140714281D03*
G04 #@! TD*
G04 #@! TO.C,REF\u002A\u002A461*
X203067095Y-150874282D03*
G04 #@! TD*
G04 #@! TO.C,REF\u002A\u002A412*
X180207096Y-148334281D03*
G04 #@! TD*
G04 #@! TO.C,REF\u002A\u002A363*
X157347095Y-145794281D03*
G04 #@! TD*
G04 #@! TO.C,REF\u002A\u002A179*
X197987096Y-133094281D03*
G04 #@! TD*
G04 #@! TO.C,REF\u002A\u002A185*
X213227095Y-133094281D03*
G04 #@! TD*
G04 #@! TO.C,REF\u002A\u002A469*
X223387095Y-150874282D03*
G04 #@! TD*
G04 #@! TO.C,REF\u002A\u002A581*
X203067095Y-158494281D03*
G04 #@! TD*
G04 #@! TO.C,REF\u002A\u002A290*
X175127095Y-140714281D03*
G04 #@! TD*
G04 #@! TO.C,REF\u002A\u002A190*
X225927095Y-133094281D03*
G04 #@! TD*
G04 #@! TO.C,REF\u002A\u002A282*
X154807095Y-140714282D03*
G04 #@! TD*
G04 #@! TO.C,REF\u002A\u002A83*
X157347095Y-128014282D03*
G04 #@! TD*
G04 #@! TO.C,REF\u002A\u002A547*
X218307095Y-155954282D03*
G04 #@! TD*
G04 #@! TO.C,REF\u002A\u002A585*
X213227095Y-158494281D03*
G04 #@! TD*
G04 #@! TO.C,REF\u002A\u002A135*
X187827096Y-130554282D03*
G04 #@! TD*
G04 #@! TO.C,REF\u002A\u002A186*
X215767095Y-133094281D03*
G04 #@! TD*
G04 #@! TO.C,REF\u002A\u002A71*
X228467095Y-125474281D03*
G04 #@! TD*
G04 #@! TO.C,REF\u002A\u002A12*
X180207095Y-122934281D03*
G04 #@! TD*
G04 #@! TO.C,REF\u002A\u002A305*
X213227095Y-140714282D03*
G04 #@! TD*
G04 #@! TO.C,REF\u002A\u002A582*
X205607095Y-158494282D03*
G04 #@! TD*
G04 #@! TO.C,REF\u002A\u002A387*
X218307095Y-145794282D03*
G04 #@! TD*
G04 #@! TO.C,REF\u002A\u002A411*
X177667095Y-148334281D03*
G04 #@! TD*
G04 #@! TO.C,REF\u002A\u002A485*
X162427095Y-153414281D03*
G04 #@! TD*
G04 #@! TO.C,REF\u002A\u002A368*
X170047095Y-145794281D03*
G04 #@! TD*
G04 #@! TO.C,REF\u002A\u002A540*
X200527095Y-155954281D03*
G04 #@! TD*
G04 #@! TO.C,REF\u002A\u002A11*
X177667095Y-122934281D03*
G04 #@! TD*
G04 #@! TO.C,REF\u002A\u002A109*
X223387095Y-128014282D03*
G04 #@! TD*
G04 #@! TO.C,REF\u002A\u002A571*
X177667095Y-158494281D03*
G04 #@! TD*
G04 #@! TO.C,REF\u002A\u002A96*
X190367095Y-128014282D03*
G04 #@! TD*
D15*
G04 #@! TO.C,SW5*
X236391832Y-130624282D03*
X248891832Y-130624282D03*
X236391832Y-135624282D03*
X248891832Y-135624282D03*
G04 #@! TD*
D10*
G04 #@! TO.C,REF\u002A\u002A99*
X197987095Y-128014281D03*
G04 #@! TD*
G04 #@! TO.C,REF\u002A\u002A567*
X167507095Y-158494281D03*
G04 #@! TD*
G04 #@! TO.C,REF\u002A\u002A467*
X218307095Y-150874281D03*
G04 #@! TD*
G04 #@! TO.C,REF\u002A\u002A346*
X215767095Y-143254281D03*
G04 #@! TD*
G04 #@! TO.C,REF\u002A\u002A507*
X218307095Y-153414281D03*
G04 #@! TD*
G04 #@! TO.C,REF\u002A\u002A251*
X177667095Y-138174281D03*
G04 #@! TD*
G04 #@! TO.C,REF\u002A\u002A575*
X187827096Y-158494281D03*
G04 #@! TD*
G04 #@! TO.C,REF\u002A\u002A482*
X154807095Y-153414281D03*
G04 #@! TD*
G04 #@! TO.C,REF\u002A\u002A577*
X192907095Y-158494281D03*
G04 #@! TD*
G04 #@! TO.C,REF\u002A\u002A70*
X225927096Y-125474281D03*
G04 #@! TD*
G04 #@! TO.C,REF\u002A\u002A405*
X162427095Y-148334281D03*
G04 #@! TD*
G04 #@! TO.C,REF\u002A\u002A587*
X218307095Y-158494282D03*
G04 #@! TD*
G04 #@! TO.C,REF\u002A\u002A382*
X205607095Y-145794282D03*
G04 #@! TD*
G04 #@! TO.C,REF\u002A\u002A294*
X185287095Y-140714281D03*
G04 #@! TD*
G04 #@! TO.C,REF\u002A\u002A333*
X182747095Y-143254281D03*
G04 #@! TD*
G04 #@! TO.C,REF\u002A\u002A219*
X197987095Y-135634282D03*
G04 #@! TD*
G04 #@! TO.C,REF\u002A\u002A170*
X175127096Y-133094281D03*
G04 #@! TD*
G04 #@! TO.C,REF\u002A\u002A468*
X220847095Y-150874281D03*
G04 #@! TD*
G04 #@! TO.C,REF\u002A\u002A308*
X220847095Y-140714281D03*
G04 #@! TD*
G04 #@! TO.C,REF\u002A\u002A269*
X223387095Y-138174281D03*
G04 #@! TD*
G04 #@! TO.C,REF\u002A\u002A67*
X218307095Y-125474281D03*
G04 #@! TD*
G04 #@! TO.C,REF\u002A\u002A573*
X182747095Y-158494282D03*
G04 #@! TD*
G04 #@! TO.C,REF\u002A\u002A47*
X167507095Y-125474281D03*
G04 #@! TD*
G04 #@! TO.C,REF\u002A\u002A370*
X175127095Y-145794282D03*
G04 #@! TD*
D20*
G04 #@! TO.C,J1*
X246007096Y-156834282D03*
X240227096Y-156834282D03*
D21*
X247437096Y-160514282D03*
D22*
X247437096Y-156334282D03*
D21*
X238797096Y-160514282D03*
D22*
X238797096Y-156334282D03*
G04 #@! TD*
D10*
G04 #@! TO.C,REF\u002A\u002A192*
X231007096Y-133094281D03*
G04 #@! TD*
M02*
