G04 #@! TF.GenerationSoftware,KiCad,Pcbnew,9.0.0*
G04 #@! TF.CreationDate,2026-06-26T15:37:04-04:00*
G04 #@! TF.ProjectId,einkbadge,65696e6b-6261-4646-9765-2e6b69636164,rev?*
G04 #@! TF.SameCoordinates,Original*
G04 #@! TF.FileFunction,Paste,Bot*
G04 #@! TF.FilePolarity,Positive*
%FSLAX46Y46*%
G04 Gerber Fmt 4.6, Leading zero omitted, Abs format (unit mm)*
G04 Created by KiCad (PCBNEW 9.0.0) date 2026-06-26 15:37:04*
%MOMM*%
%LPD*%
G01*
G04 APERTURE LIST*
G04 Aperture macros list*
%AMRoundRect*
0 Rectangle with rounded corners*
0 $1 Rounding radius*
0 $2 $3 $4 $5 $6 $7 $8 $9 X,Y pos of 4 corners*
0 Add a 4 corners polygon primitive as box body*
4,1,4,$2,$3,$4,$5,$6,$7,$8,$9,$2,$3,0*
0 Add four circle primitives for the rounded corners*
1,1,$1+$1,$2,$3*
1,1,$1+$1,$4,$5*
1,1,$1+$1,$6,$7*
1,1,$1+$1,$8,$9*
0 Add four rect primitives between the rounded corners*
20,1,$1+$1,$2,$3,$4,$5,0*
20,1,$1+$1,$4,$5,$6,$7,0*
20,1,$1+$1,$6,$7,$8,$9,0*
20,1,$1+$1,$8,$9,$2,$3,0*%
%AMRotRect*
0 Rectangle, with rotation*
0 The origin of the aperture is its center*
0 $1 length*
0 $2 width*
0 $3 Rotation angle, in degrees counterclockwise*
0 Add horizontal line*
21,1,$1,$2,0,0,$3*%
%AMFreePoly0*
4,1,25,0.527118,0.638197,0.539745,0.627412,0.627412,0.539745,0.657104,0.481471,0.658407,0.464917,0.658407,-0.464917,0.638197,-0.527118,0.627412,-0.539745,0.539745,-0.627412,0.481471,-0.657104,0.464917,-0.658407,-0.464917,-0.658407,-0.527118,-0.638197,-0.539745,-0.627412,-0.627412,-0.539745,-0.657104,-0.481471,-0.658407,-0.464917,-0.658407,0.464917,-0.638197,0.527118,-0.627412,0.539745,
-0.539745,0.627412,-0.481471,0.657104,-0.464917,0.658407,0.464917,0.658407,0.527118,0.638197,0.527118,0.638197,$1*%
G04 Aperture macros list end*
%ADD10RoundRect,0.140000X-0.170000X0.140000X-0.170000X-0.140000X0.170000X-0.140000X0.170000X0.140000X0*%
%ADD11RoundRect,0.062500X0.300000X0.062500X-0.300000X0.062500X-0.300000X-0.062500X0.300000X-0.062500X0*%
%ADD12RoundRect,0.250000X0.315000X0.780000X-0.315000X0.780000X-0.315000X-0.780000X0.315000X-0.780000X0*%
%ADD13RoundRect,0.140000X0.140000X0.170000X-0.140000X0.170000X-0.140000X-0.170000X0.140000X-0.170000X0*%
%ADD14RoundRect,0.225000X-0.375000X0.225000X-0.375000X-0.225000X0.375000X-0.225000X0.375000X0.225000X0*%
%ADD15RoundRect,0.135000X0.185000X-0.135000X0.185000X0.135000X-0.185000X0.135000X-0.185000X-0.135000X0*%
%ADD16RoundRect,0.140000X-0.021213X0.219203X-0.219203X0.021213X0.021213X-0.219203X0.219203X-0.021213X0*%
%ADD17RoundRect,0.135000X-0.135000X-0.185000X0.135000X-0.185000X0.135000X0.185000X-0.135000X0.185000X0*%
%ADD18RoundRect,0.140000X0.021213X-0.219203X0.219203X-0.021213X-0.021213X0.219203X-0.219203X0.021213X0*%
%ADD19RoundRect,0.140000X-0.219203X-0.021213X-0.021213X-0.219203X0.219203X0.021213X0.021213X0.219203X0*%
%ADD20RoundRect,0.140000X0.219203X0.021213X0.021213X0.219203X-0.219203X-0.021213X-0.021213X-0.219203X0*%
%ADD21RoundRect,0.140000X0.170000X-0.140000X0.170000X0.140000X-0.170000X0.140000X-0.170000X-0.140000X0*%
%ADD22RoundRect,0.112500X0.060104X-0.219203X0.219203X-0.060104X-0.060104X0.219203X-0.219203X0.060104X0*%
%ADD23RoundRect,0.112500X-0.237500X0.112500X-0.237500X-0.112500X0.237500X-0.112500X0.237500X0.112500X0*%
%ADD24RoundRect,0.225000X-0.250000X0.225000X-0.250000X-0.225000X0.250000X-0.225000X0.250000X0.225000X0*%
%ADD25RoundRect,0.150000X0.150000X0.425000X-0.150000X0.425000X-0.150000X-0.425000X0.150000X-0.425000X0*%
%ADD26RoundRect,0.075000X0.075000X0.500000X-0.075000X0.500000X-0.075000X-0.500000X0.075000X-0.500000X0*%
%ADD27O,1.000000X1.800000*%
%ADD28O,1.000000X2.100000*%
%ADD29RoundRect,0.250000X1.600000X-0.300000X1.600000X0.300000X-1.600000X0.300000X-1.600000X-0.300000X0*%
%ADD30RoundRect,0.225000X0.225000X0.375000X-0.225000X0.375000X-0.225000X-0.375000X0.225000X-0.375000X0*%
%ADD31R,1.000000X0.750000*%
%ADD32RoundRect,0.375000X0.375000X-0.625000X0.375000X0.625000X-0.375000X0.625000X-0.375000X-0.625000X0*%
%ADD33RoundRect,0.500000X1.400000X-0.500000X1.400000X0.500000X-1.400000X0.500000X-1.400000X-0.500000X0*%
%ADD34RoundRect,0.250000X-0.250000X-0.475000X0.250000X-0.475000X0.250000X0.475000X-0.250000X0.475000X0*%
%ADD35RoundRect,0.225000X0.375000X-0.225000X0.375000X0.225000X-0.375000X0.225000X-0.375000X-0.225000X0*%
%ADD36FreePoly0,45.000000*%
%ADD37RoundRect,0.050000X-0.212132X-0.282843X0.282843X0.212132X0.212132X0.282843X-0.282843X-0.212132X0*%
%ADD38RoundRect,0.050000X0.212132X-0.282843X0.282843X-0.212132X-0.212132X0.282843X-0.282843X0.212132X0*%
%ADD39RoundRect,0.243750X0.243750X0.456250X-0.243750X0.456250X-0.243750X-0.456250X0.243750X-0.456250X0*%
%ADD40R,1.300000X0.300000*%
%ADD41R,3.000000X2.000000*%
%ADD42RoundRect,0.135000X-0.185000X0.135000X-0.185000X-0.135000X0.185000X-0.135000X0.185000X0.135000X0*%
%ADD43RoundRect,0.135000X-0.226274X-0.035355X-0.035355X-0.226274X0.226274X0.035355X0.035355X0.226274X0*%
%ADD44RotRect,1.400000X1.200000X45.000000*%
%ADD45RoundRect,0.135000X0.226274X0.035355X0.035355X0.226274X-0.226274X-0.035355X-0.035355X-0.226274X0*%
%ADD46RoundRect,0.225000X-0.225000X-0.250000X0.225000X-0.250000X0.225000X0.250000X-0.225000X0.250000X0*%
%ADD47RotRect,1.000000X1.600000X45.000000*%
%ADD48RoundRect,0.150000X-0.150000X0.512500X-0.150000X-0.512500X0.150000X-0.512500X0.150000X0.512500X0*%
G04 APERTURE END LIST*
D10*
G04 #@! TO.C,C23*
X235980000Y-89590000D03*
X235980000Y-88630000D03*
G04 #@! TD*
D11*
G04 #@! TO.C,U4*
X231797500Y-87260001D03*
X231797500Y-87760000D03*
X231797500Y-88260000D03*
X231797500Y-88760000D03*
X231797500Y-89260000D03*
X231797500Y-89759999D03*
X234822500Y-89759999D03*
X234822500Y-89260000D03*
X234822500Y-88760000D03*
X234822500Y-88260000D03*
X234822500Y-87760000D03*
X234822500Y-87260001D03*
D12*
X233310000Y-88510000D03*
G04 #@! TD*
D13*
G04 #@! TO.C,C22*
X231660000Y-86180000D03*
X232620000Y-86180000D03*
G04 #@! TD*
G04 #@! TO.C,C32*
X162570000Y-105430000D03*
X161610000Y-105430000D03*
G04 #@! TD*
D14*
G04 #@! TO.C,D2*
X166870000Y-97440000D03*
X166870000Y-100740000D03*
G04 #@! TD*
D15*
G04 #@! TO.C,R2*
X240607095Y-154044280D03*
X240607095Y-153024282D03*
G04 #@! TD*
D16*
G04 #@! TO.C,C17*
X192492775Y-106889298D03*
X191813953Y-107568120D03*
G04 #@! TD*
D17*
G04 #@! TO.C,R12*
X165460001Y-92950000D03*
X166479999Y-92950000D03*
G04 #@! TD*
D18*
G04 #@! TO.C,C6*
X204269824Y-98096238D03*
X204948646Y-97417416D03*
G04 #@! TD*
D15*
G04 #@! TO.C,R5*
X223051833Y-102544280D03*
X223051833Y-101524282D03*
G04 #@! TD*
D19*
G04 #@! TO.C,C19*
X200280589Y-109340589D03*
X200959411Y-110019411D03*
G04 #@! TD*
G04 #@! TO.C,C8*
X190430589Y-93970589D03*
X191109411Y-94649411D03*
G04 #@! TD*
D20*
G04 #@! TO.C,C7*
X187622500Y-99464416D03*
X186943678Y-98785594D03*
G04 #@! TD*
D13*
G04 #@! TO.C,C33*
X162570000Y-107740000D03*
X161610000Y-107740000D03*
G04 #@! TD*
D20*
G04 #@! TO.C,C3*
X208346568Y-102049412D03*
X207667746Y-101370590D03*
G04 #@! TD*
D15*
G04 #@! TO.C,R4*
X223081832Y-112929280D03*
X223081832Y-111909282D03*
G04 #@! TD*
D21*
G04 #@! TO.C,C25*
X162430000Y-101350000D03*
X162430000Y-100390000D03*
G04 #@! TD*
D18*
G04 #@! TO.C,C10*
X206839972Y-100617260D03*
X207518794Y-99938438D03*
G04 #@! TD*
D17*
G04 #@! TO.C,R9*
X229640001Y-89080000D03*
X230659999Y-89080000D03*
G04 #@! TD*
D22*
G04 #@! TO.C,C2*
X204110589Y-105759412D03*
X204789412Y-105080589D03*
G04 #@! TD*
D23*
G04 #@! TO.C,Q1*
X164050000Y-92690000D03*
X164050000Y-93990000D03*
X162050000Y-93340000D03*
G04 #@! TD*
D18*
G04 #@! TO.C,C15*
X206132865Y-99910154D03*
X206811687Y-99231332D03*
G04 #@! TD*
D24*
G04 #@! TO.C,C20*
X169040000Y-100515000D03*
X169040000Y-102065000D03*
G04 #@! TD*
D17*
G04 #@! TO.C,R10*
X165440001Y-91890000D03*
X166459999Y-91890000D03*
G04 #@! TD*
D13*
G04 #@! TO.C,C28*
X162580000Y-106740000D03*
X161620000Y-106740000D03*
G04 #@! TD*
D25*
G04 #@! TO.C,J1*
X246317096Y-155759282D03*
X245517096Y-155759282D03*
D26*
X244367096Y-155759283D03*
X243367096Y-155759282D03*
X242867096Y-155759282D03*
X241867096Y-155759283D03*
D25*
X240717096Y-155759282D03*
X239917096Y-155759282D03*
X239917096Y-155759282D03*
X240717096Y-155759282D03*
D26*
X241367096Y-155759282D03*
X242367096Y-155759282D03*
X243867096Y-155759282D03*
X244867096Y-155759282D03*
D25*
X245517096Y-155759282D03*
X246317096Y-155759282D03*
D27*
X247437096Y-160514282D03*
D28*
X247437096Y-156334282D03*
D27*
X238797096Y-160514282D03*
D28*
X238797096Y-156334282D03*
G04 #@! TD*
D29*
G04 #@! TO.C,L2*
X172150000Y-100540000D03*
X172150000Y-97540000D03*
G04 #@! TD*
D30*
G04 #@! TO.C,D1*
X170580000Y-95370000D03*
X167280000Y-95370000D03*
G04 #@! TD*
D13*
G04 #@! TO.C,C16*
X192520000Y-100180000D03*
X191560000Y-100180000D03*
G04 #@! TD*
D31*
G04 #@! TO.C,RESET1*
X230561833Y-98749281D03*
X224561833Y-98749281D03*
X230561833Y-102499281D03*
X224561833Y-102499281D03*
G04 #@! TD*
D32*
G04 #@! TO.C,U3*
X252307095Y-149284281D03*
X250007095Y-149284280D03*
D33*
X250007095Y-142984282D03*
D32*
X247707095Y-149284281D03*
G04 #@! TD*
D22*
G04 #@! TO.C,C1*
X203390589Y-105049412D03*
X204069412Y-104370589D03*
G04 #@! TD*
D13*
G04 #@! TO.C,C27*
X162580000Y-104380000D03*
X161620000Y-104380000D03*
G04 #@! TD*
D34*
G04 #@! TO.C,C12*
X248090001Y-140620000D03*
X249989999Y-140620000D03*
G04 #@! TD*
D16*
G04 #@! TO.C,C4*
X194225186Y-108579283D03*
X193546364Y-109258105D03*
G04 #@! TD*
D13*
G04 #@! TO.C,C31*
X162580000Y-103380000D03*
X161620000Y-103380000D03*
G04 #@! TD*
D35*
G04 #@! TO.C,D3*
X164470000Y-100760000D03*
X164470000Y-97460000D03*
G04 #@! TD*
D15*
G04 #@! TO.C,R1*
X245207095Y-154044281D03*
X245207095Y-153024283D03*
G04 #@! TD*
D36*
G04 #@! TO.C,U2*
X197711222Y-102639587D03*
X198736527Y-103664892D03*
X198736527Y-101614282D03*
X199761832Y-102639587D03*
D37*
X198276908Y-107059004D03*
X197994065Y-106776162D03*
X197711222Y-106493319D03*
X197428379Y-106210476D03*
X197145537Y-105927634D03*
X196862694Y-105644791D03*
X196579851Y-105361948D03*
X196297009Y-105079105D03*
X196014166Y-104796263D03*
X195731323Y-104513420D03*
X195448480Y-104230577D03*
X195165638Y-103947735D03*
X194882795Y-103664892D03*
X194599952Y-103382049D03*
X194317110Y-103099206D03*
D38*
X194317110Y-102179968D03*
X194599952Y-101897125D03*
X194882795Y-101614282D03*
X195165638Y-101331439D03*
X195448480Y-101048597D03*
X195731323Y-100765754D03*
X196014166Y-100482911D03*
X196297009Y-100200069D03*
X196579851Y-99917226D03*
X196862694Y-99634383D03*
X197145537Y-99351540D03*
X197428379Y-99068698D03*
X197711222Y-98785855D03*
X197994065Y-98503012D03*
X198276908Y-98220170D03*
D37*
X199196146Y-98220170D03*
X199478989Y-98503012D03*
X199761832Y-98785855D03*
X200044675Y-99068698D03*
X200327517Y-99351540D03*
X200610360Y-99634383D03*
X200893203Y-99917226D03*
X201176045Y-100200069D03*
X201458888Y-100482911D03*
X201741731Y-100765754D03*
X202024574Y-101048597D03*
X202307416Y-101331439D03*
X202590259Y-101614282D03*
X202873102Y-101897125D03*
X203155944Y-102179968D03*
D38*
X203155944Y-103099206D03*
X202873102Y-103382049D03*
X202590259Y-103664892D03*
X202307416Y-103947735D03*
X202024574Y-104230577D03*
X201741731Y-104513420D03*
X201458888Y-104796263D03*
X201176045Y-105079105D03*
X200893203Y-105361948D03*
X200610360Y-105644791D03*
X200327517Y-105927634D03*
X200044675Y-106210476D03*
X199761832Y-106493319D03*
X199478989Y-106776162D03*
X199196146Y-107059004D03*
G04 #@! TD*
D13*
G04 #@! TO.C,C30*
X162787095Y-96294281D03*
X161827095Y-96294281D03*
G04 #@! TD*
D39*
G04 #@! TO.C,D4*
X231017501Y-82374282D03*
X229142499Y-82374282D03*
G04 #@! TD*
D40*
G04 #@! TO.C,U5*
X159607095Y-105534282D03*
X159607095Y-105034282D03*
X159607095Y-104534282D03*
X159607095Y-104034282D03*
X159607095Y-103534282D03*
X159607095Y-103034282D03*
X159607095Y-102534282D03*
X159607095Y-102034282D03*
X159607095Y-101534282D03*
X159607095Y-101034282D03*
X159607095Y-100534282D03*
X159607095Y-100034282D03*
X159607095Y-99534282D03*
X159607095Y-99034282D03*
X159607095Y-98534282D03*
X159607095Y-98034282D03*
X159607095Y-97534282D03*
X159607095Y-97034282D03*
X159607095Y-96534282D03*
X159607095Y-96034282D03*
X159607095Y-95534282D03*
X159607095Y-95034282D03*
X159607095Y-94534282D03*
X159607095Y-94034282D03*
D41*
X157257095Y-107184282D03*
X157257095Y-92384282D03*
G04 #@! TD*
D42*
G04 #@! TO.C,R13*
X232420000Y-81850002D03*
X232420000Y-82870000D03*
G04 #@! TD*
D43*
G04 #@! TO.C,R6*
X191759376Y-95309376D03*
X192480624Y-96030624D03*
G04 #@! TD*
D20*
G04 #@! TO.C,C5*
X194159411Y-96979411D03*
X193480589Y-96300589D03*
G04 #@! TD*
D34*
G04 #@! TO.C,C9*
X247357158Y-153500001D03*
X249257156Y-153500001D03*
G04 #@! TD*
D13*
G04 #@! TO.C,C26*
X162580000Y-102380000D03*
X161620000Y-102380000D03*
G04 #@! TD*
D44*
G04 #@! TO.C,Y1*
X188324365Y-97955635D03*
X189880000Y-96400000D03*
X191082081Y-97602081D03*
X189526446Y-99157716D03*
G04 #@! TD*
D13*
G04 #@! TO.C,C29*
X162590000Y-109070000D03*
X161630000Y-109070000D03*
G04 #@! TD*
D45*
G04 #@! TO.C,R3*
X209777781Y-103480625D03*
X209056533Y-102759377D03*
G04 #@! TD*
D42*
G04 #@! TO.C,R14*
X230640000Y-86160001D03*
X230640000Y-87179999D03*
G04 #@! TD*
D18*
G04 #@! TO.C,C14*
X203562718Y-97389133D03*
X204241540Y-96710311D03*
G04 #@! TD*
D19*
G04 #@! TO.C,C18*
X197796076Y-108275227D03*
X198474898Y-108954049D03*
G04 #@! TD*
D43*
G04 #@! TO.C,R8*
X203059376Y-107079376D03*
X203780624Y-107800624D03*
G04 #@! TD*
D19*
G04 #@! TO.C,C11*
X201000589Y-108620589D03*
X201679411Y-109299411D03*
G04 #@! TD*
D13*
G04 #@! TO.C,C24*
X162791833Y-95304281D03*
X161831833Y-95304281D03*
G04 #@! TD*
D46*
G04 #@! TO.C,C21*
X164115000Y-95560000D03*
X165665000Y-95560000D03*
G04 #@! TD*
D47*
G04 #@! TO.C,L1*
X204752893Y-107027107D03*
X206167107Y-105612893D03*
G04 #@! TD*
D43*
G04 #@! TO.C,R7*
X202329376Y-107809376D03*
X203050624Y-108530624D03*
G04 #@! TD*
D48*
G04 #@! TO.C,U1*
X241944658Y-151052500D03*
X242894657Y-151052500D03*
X243844656Y-151052500D03*
X243844656Y-153327500D03*
X242894657Y-153327500D03*
X241944658Y-153327500D03*
G04 #@! TD*
D31*
G04 #@! TO.C,BOOT1*
X230581832Y-109044281D03*
X224581832Y-109044281D03*
X230581832Y-112794281D03*
X224581832Y-112794281D03*
G04 #@! TD*
D18*
G04 #@! TO.C,C13*
X197994066Y-96763528D03*
X198672888Y-96084706D03*
G04 #@! TD*
D17*
G04 #@! TO.C,R11*
X229660001Y-90640000D03*
X230679999Y-90640000D03*
G04 #@! TD*
M02*
