%TF.GenerationSoftware,KiCad,Pcbnew,9.0.0*%
%TF.CreationDate,2026-06-26T15:37:04-04:00*%
%TF.ProjectId,einkbadge,65696e6b-6261-4646-9765-2e6b69636164,rev?*%
%TF.SameCoordinates,Original*%
%TF.FileFunction,Drillmap*%
%TF.FilePolarity,Positive*%
%FSLAX45Y45*%
G04 Gerber Fmt 4.5, Leading zero omitted, Abs format (unit mm)*
G04 Created by KiCad (PCBNEW 9.0.0) date 2026-06-26 15:37:04*
%MOMM*%
%LPD*%
G01*
G04 APERTURE LIST*
%ADD10C,0.100000*%
%ADD11C,0.200000*%
G04 APERTURE END LIST*
D10*
X24704243Y-6410741D02*
X24767032Y-6422055D01*
X24827990Y-6438996D01*
X24887126Y-6461278D01*
X24944448Y-6488618D01*
X24999967Y-6520731D01*
X25053692Y-6557332D01*
X25105630Y-6598136D01*
X25155792Y-6642859D01*
X25204187Y-6691216D01*
X25250824Y-6742922D01*
X25295711Y-6797693D01*
X25338859Y-6855245D01*
X25380276Y-6915292D01*
X25419970Y-6977551D01*
X25494232Y-7107561D01*
X25561716Y-7243000D01*
X25622495Y-7381590D01*
X25676643Y-7521054D01*
X25724233Y-7659115D01*
X25765338Y-7793495D01*
X25800030Y-7921918D01*
X25828383Y-8042107D01*
X25850470Y-8151784D01*
X25851127Y-8155638D01*
X25851689Y-8159480D01*
X25852159Y-8163315D01*
X25852539Y-8167152D01*
X25852830Y-8170997D01*
X25853035Y-8174857D01*
X25853156Y-8178737D01*
X25853196Y-8182645D01*
X25853196Y-14233973D01*
X25853196Y-15781785D01*
X25852499Y-15809357D01*
X25850430Y-15836566D01*
X25847023Y-15863380D01*
X25842311Y-15889765D01*
X25836329Y-15915686D01*
X25829109Y-15941111D01*
X25820686Y-15966006D01*
X25811092Y-15990337D01*
X25800363Y-16014070D01*
X25788531Y-16037171D01*
X25775630Y-16059608D01*
X25761694Y-16081347D01*
X25746756Y-16102353D01*
X25730851Y-16122593D01*
X25714011Y-16142033D01*
X25696271Y-16160641D01*
X25677663Y-16178381D01*
X25658223Y-16195221D01*
X25637983Y-16211126D01*
X25616977Y-16226064D01*
X25595238Y-16240000D01*
X25572802Y-16252901D01*
X25549700Y-16264733D01*
X25525967Y-16275463D01*
X25501636Y-16285056D01*
X25476741Y-16293479D01*
X25451316Y-16300699D01*
X25425395Y-16306682D01*
X25399010Y-16311393D01*
X25372196Y-16314801D01*
X25344987Y-16316870D01*
X25317415Y-16317567D01*
X15566197Y-16317567D01*
X15538625Y-16316870D01*
X15511416Y-16314801D01*
X15484603Y-16311393D01*
X15458218Y-16306682D01*
X15432297Y-16300699D01*
X15406872Y-16293479D01*
X15381977Y-16285056D01*
X15357647Y-16275463D01*
X15333913Y-16264733D01*
X15310812Y-16252901D01*
X15288375Y-16240000D01*
X15266636Y-16226064D01*
X15245630Y-16211127D01*
X15225390Y-16195221D01*
X15205950Y-16178381D01*
X15187342Y-16160641D01*
X15169602Y-16142033D01*
X15152762Y-16122593D01*
X15136856Y-16102353D01*
X15121919Y-16081347D01*
X15107982Y-16059608D01*
X15095082Y-16037171D01*
X15083249Y-16014070D01*
X15072520Y-15990337D01*
X15062927Y-15966006D01*
X15054503Y-15941111D01*
X15047283Y-15915686D01*
X15041301Y-15889765D01*
X15036589Y-15863380D01*
X15033182Y-15836566D01*
X15031113Y-15809357D01*
X15030415Y-15781785D01*
X15030415Y-11001462D01*
X15030766Y-10990262D01*
X15031808Y-10979184D01*
X15033527Y-10968256D01*
X15035907Y-10957505D01*
X15038933Y-10946958D01*
X15042591Y-10936645D01*
X15046866Y-10926591D01*
X15051743Y-10916826D01*
X15057207Y-10907377D01*
X15063243Y-10898272D01*
X15069835Y-10889538D01*
X15076970Y-10881202D01*
X15084632Y-10873294D01*
X15092807Y-10865841D01*
X15101478Y-10858869D01*
X15110632Y-10852408D01*
X15247855Y-10761837D01*
X15257009Y-10755375D01*
X15265681Y-10748404D01*
X15273855Y-10740950D01*
X15281517Y-10733042D01*
X15288652Y-10724707D01*
X15295245Y-10715973D01*
X15301280Y-10706867D01*
X15306744Y-10697418D01*
X15311621Y-10687653D01*
X15315896Y-10677600D01*
X15319554Y-10667286D01*
X15322581Y-10656740D01*
X15324961Y-10645989D01*
X15326679Y-10635060D01*
X15327721Y-10623982D01*
X15328072Y-10612782D01*
X15328072Y-9349791D01*
X15327700Y-9338259D01*
X15326596Y-9326860D01*
X15324776Y-9315624D01*
X15322258Y-9304581D01*
X15319057Y-9293760D01*
X15315190Y-9283192D01*
X15310675Y-9272906D01*
X15305527Y-9262934D01*
X15299764Y-9253304D01*
X15293402Y-9244046D01*
X15286458Y-9235191D01*
X15278948Y-9226768D01*
X15270889Y-9218807D01*
X15262298Y-9211339D01*
X15253192Y-9204393D01*
X15243586Y-9197999D01*
X15114901Y-9118215D01*
X15110037Y-9115090D01*
X15105296Y-9111823D01*
X15100679Y-9108418D01*
X15096189Y-9104879D01*
X15091828Y-9101209D01*
X15087598Y-9097412D01*
X15079539Y-9089453D01*
X15072029Y-9081031D01*
X15065085Y-9072177D01*
X15058723Y-9062920D01*
X15052960Y-9053290D01*
X15047812Y-9043318D01*
X15043297Y-9033033D01*
X15039430Y-9022465D01*
X15036229Y-9011645D01*
X15033711Y-9000601D01*
X15032713Y-8995005D01*
X15031891Y-8989365D01*
X15031249Y-8983684D01*
X15030787Y-8977966D01*
X15030509Y-8972215D01*
X15030415Y-8966434D01*
X15030415Y-8168191D01*
X15030482Y-8163407D01*
X15030680Y-8158606D01*
X15031010Y-8153798D01*
X15031468Y-8148995D01*
X15032055Y-8144207D01*
X15032769Y-8139443D01*
X15033608Y-8134715D01*
X15034572Y-8130032D01*
X15093115Y-7889017D01*
X15157026Y-7670249D01*
X15225451Y-7472789D01*
X15297538Y-7295694D01*
X15372434Y-7138025D01*
X15449285Y-6998840D01*
X15527239Y-6877199D01*
X15605442Y-6772162D01*
X15683042Y-6682787D01*
X15759186Y-6608134D01*
X15833020Y-6547262D01*
X15903692Y-6499231D01*
X15970349Y-6463099D01*
X16032137Y-6437926D01*
X16088204Y-6422772D01*
X16137697Y-6416695D01*
X16192928Y-6413793D01*
X16248553Y-6415041D01*
X16304494Y-6420253D01*
X16360668Y-6429244D01*
X16416996Y-6441828D01*
X16473398Y-6457818D01*
X16529792Y-6477031D01*
X16586099Y-6499279D01*
X16642239Y-6524377D01*
X16698131Y-6552140D01*
X16808850Y-6614915D01*
X16917613Y-6686120D01*
X17023778Y-6764269D01*
X17126702Y-6847876D01*
X17225742Y-6935456D01*
X17320256Y-7025523D01*
X17409601Y-7116592D01*
X17493135Y-7207177D01*
X17570214Y-7295793D01*
X17640197Y-7380954D01*
X17702440Y-7461174D01*
X17709209Y-7469658D01*
X17716406Y-7477703D01*
X17724008Y-7485295D01*
X17731993Y-7492418D01*
X17740339Y-7499057D01*
X17749023Y-7505198D01*
X17758023Y-7510825D01*
X17767317Y-7515924D01*
X17776882Y-7520479D01*
X17786696Y-7524475D01*
X17796736Y-7527898D01*
X17806981Y-7530732D01*
X17817407Y-7532962D01*
X17827993Y-7534574D01*
X17838716Y-7535552D01*
X17849553Y-7535881D01*
X23045619Y-7535881D01*
X23056494Y-7535547D01*
X23067258Y-7534556D01*
X23077885Y-7532922D01*
X23088353Y-7530661D01*
X23098637Y-7527788D01*
X23108714Y-7524318D01*
X23118558Y-7520266D01*
X23128147Y-7515649D01*
X23137457Y-7510480D01*
X23146463Y-7504776D01*
X23155141Y-7498551D01*
X23163468Y-7491821D01*
X23171419Y-7484601D01*
X23178971Y-7476906D01*
X23186099Y-7468752D01*
X23192780Y-7460153D01*
X23312412Y-7304254D01*
X23431300Y-7163646D01*
X23548886Y-7037632D01*
X23664610Y-6925516D01*
X23777911Y-6826602D01*
X23888230Y-6740193D01*
X23995007Y-6665593D01*
X24097682Y-6602107D01*
X24195696Y-6549037D01*
X24288488Y-6505688D01*
X24375499Y-6471363D01*
X24456169Y-6445367D01*
X24529938Y-6427003D01*
X24596247Y-6415575D01*
X24654535Y-6410386D01*
X24704243Y-6410741D01*
X16322887Y-6793953D02*
X16348250Y-6797290D01*
X16374071Y-6802675D01*
X16400310Y-6810023D01*
X16426926Y-6819250D01*
X16453878Y-6830269D01*
X16481125Y-6842997D01*
X16508627Y-6857348D01*
X16536342Y-6873236D01*
X16592250Y-6909287D01*
X16648522Y-6950468D01*
X16704832Y-6996099D01*
X16760852Y-7045500D01*
X16816257Y-7097990D01*
X16870719Y-7152888D01*
X16923911Y-7209514D01*
X16975507Y-7267187D01*
X17025180Y-7325226D01*
X17072603Y-7382952D01*
X17117450Y-7439682D01*
X17122111Y-7446206D01*
X17126099Y-7452863D01*
X17129431Y-7459628D01*
X17132125Y-7466475D01*
X17134199Y-7473382D01*
X17135669Y-7480322D01*
X17136555Y-7487271D01*
X17136873Y-7494205D01*
X17136641Y-7501098D01*
X17135877Y-7507925D01*
X17134598Y-7514663D01*
X17132822Y-7521286D01*
X17130567Y-7527770D01*
X17127850Y-7534089D01*
X17124689Y-7540219D01*
X17121102Y-7546136D01*
X17117106Y-7551814D01*
X17112719Y-7557229D01*
X17107958Y-7562356D01*
X17102842Y-7567170D01*
X17097387Y-7571647D01*
X17091612Y-7575762D01*
X17085535Y-7579489D01*
X17079171Y-7582806D01*
X17072541Y-7585685D01*
X17065660Y-7588103D01*
X17058547Y-7590036D01*
X17051220Y-7591457D01*
X17043695Y-7592343D01*
X17035991Y-7592669D01*
X17028126Y-7592410D01*
X17020116Y-7591542D01*
X16924150Y-7579355D01*
X16829624Y-7570916D01*
X16736701Y-7565992D01*
X16645548Y-7564349D01*
X16556329Y-7565755D01*
X16469211Y-7569976D01*
X16384359Y-7576780D01*
X16301937Y-7585932D01*
X16222111Y-7597201D01*
X16145047Y-7610353D01*
X16070910Y-7625155D01*
X15999864Y-7641374D01*
X15867712Y-7677130D01*
X15749912Y-7715757D01*
X15742128Y-7718213D01*
X15734328Y-7720033D01*
X15726537Y-7721237D01*
X15718778Y-7721848D01*
X15711077Y-7721884D01*
X15703458Y-7721369D01*
X15695944Y-7720322D01*
X15688561Y-7718765D01*
X15681331Y-7716718D01*
X15674281Y-7714203D01*
X15667433Y-7711240D01*
X15660813Y-7707850D01*
X15654444Y-7704054D01*
X15648351Y-7699874D01*
X15642558Y-7695330D01*
X15637089Y-7690442D01*
X15631969Y-7685233D01*
X15627221Y-7679723D01*
X15622872Y-7673932D01*
X15618943Y-7667883D01*
X15615460Y-7661595D01*
X15612447Y-7655090D01*
X15609929Y-7648388D01*
X15607929Y-7641511D01*
X15606472Y-7634480D01*
X15605583Y-7627315D01*
X15605284Y-7620037D01*
X15605602Y-7612668D01*
X15606559Y-7605228D01*
X15608181Y-7597738D01*
X15610492Y-7590220D01*
X15613515Y-7582693D01*
X15675327Y-7452311D01*
X15709403Y-7385842D01*
X15745396Y-7319481D01*
X15783161Y-7253948D01*
X15822551Y-7189964D01*
X15863421Y-7128250D01*
X15905624Y-7069524D01*
X15949013Y-7014508D01*
X15993444Y-6963922D01*
X16038770Y-6918486D01*
X16084844Y-6878920D01*
X16131520Y-6845944D01*
X16155038Y-6832153D01*
X16178652Y-6820280D01*
X16202344Y-6810414D01*
X16226095Y-6802647D01*
X16249887Y-6797067D01*
X16273701Y-6793765D01*
X16298024Y-6792750D01*
X16322887Y-6793953D01*
X21114685Y-7716676D02*
X21121638Y-7717205D01*
X21128491Y-7718076D01*
X21135233Y-7719280D01*
X21141858Y-7720809D01*
X21148355Y-7722654D01*
X21154717Y-7724806D01*
X21160935Y-7727258D01*
X21167000Y-7730000D01*
X21172904Y-7733024D01*
X21178638Y-7736321D01*
X21184193Y-7739882D01*
X21189561Y-7743699D01*
X21194734Y-7747764D01*
X21199702Y-7752068D01*
X21204457Y-7756601D01*
X21208991Y-7761357D01*
X21213294Y-7766325D01*
X21217359Y-7771497D01*
X21221177Y-7776865D01*
X21224738Y-7782421D01*
X21228035Y-7788155D01*
X21231059Y-7794058D01*
X21233801Y-7800124D01*
X21236252Y-7806341D01*
X21238405Y-7812703D01*
X21240250Y-7819201D01*
X21241779Y-7825825D01*
X21242983Y-7832568D01*
X21243854Y-7839420D01*
X21244382Y-7846374D01*
X21244561Y-7853420D01*
X21244382Y-7860466D01*
X21243854Y-7867419D01*
X21242983Y-7874272D01*
X21241779Y-7881014D01*
X21240250Y-7887639D01*
X21238405Y-7894136D01*
X21236252Y-7900498D01*
X21233801Y-7906716D01*
X21231059Y-7912781D01*
X21228035Y-7918685D01*
X21224738Y-7924419D01*
X21221177Y-7929974D01*
X21217359Y-7935342D01*
X21213294Y-7940515D01*
X21208991Y-7945483D01*
X21204457Y-7950238D01*
X21199702Y-7954772D01*
X21194734Y-7959075D01*
X21189561Y-7963140D01*
X21184193Y-7966958D01*
X21178638Y-7970519D01*
X21172904Y-7973816D01*
X21167000Y-7976840D01*
X21160935Y-7979582D01*
X21154717Y-7982033D01*
X21148355Y-7984186D01*
X21141858Y-7986031D01*
X21135233Y-7987560D01*
X21128491Y-7988764D01*
X21121638Y-7989635D01*
X21114685Y-7990164D01*
X21107639Y-7990342D01*
X19786045Y-7990342D01*
X19778999Y-7990164D01*
X19772045Y-7989635D01*
X19765193Y-7988764D01*
X19758450Y-7987560D01*
X19751826Y-7986031D01*
X19745328Y-7984186D01*
X19738967Y-7982033D01*
X19732749Y-7979582D01*
X19726684Y-7976840D01*
X19720780Y-7973816D01*
X19715046Y-7970519D01*
X19709491Y-7966958D01*
X19704122Y-7963140D01*
X19698950Y-7959075D01*
X19693982Y-7954772D01*
X19689226Y-7950238D01*
X19684693Y-7945483D01*
X19680389Y-7940515D01*
X19676325Y-7935342D01*
X19672507Y-7929974D01*
X19668946Y-7924419D01*
X19665649Y-7918685D01*
X19662625Y-7912781D01*
X19659883Y-7906716D01*
X19657431Y-7900498D01*
X19655279Y-7894136D01*
X19653434Y-7887639D01*
X19651905Y-7881014D01*
X19650701Y-7874272D01*
X19649830Y-7867419D01*
X19649301Y-7860466D01*
X19649123Y-7853420D01*
X19649301Y-7846374D01*
X19649830Y-7839420D01*
X19650701Y-7832568D01*
X19651905Y-7825825D01*
X19653434Y-7819201D01*
X19655279Y-7812704D01*
X19657431Y-7806341D01*
X19659883Y-7800124D01*
X19662625Y-7794058D01*
X19665649Y-7788155D01*
X19668946Y-7782421D01*
X19672507Y-7776865D01*
X19676325Y-7771497D01*
X19680389Y-7766325D01*
X19684693Y-7761357D01*
X19689226Y-7756601D01*
X19693982Y-7752068D01*
X19698950Y-7747764D01*
X19704122Y-7743699D01*
X19709491Y-7739882D01*
X19715046Y-7736321D01*
X19720780Y-7733024D01*
X19726684Y-7730000D01*
X19732749Y-7727258D01*
X19738967Y-7724806D01*
X19745328Y-7722654D01*
X19751826Y-7720809D01*
X19758450Y-7719280D01*
X19765193Y-7718076D01*
X19772046Y-7717205D01*
X19778999Y-7716676D01*
X19786045Y-7716498D01*
X21107639Y-7716498D01*
X21114685Y-7716676D01*
X24619982Y-6793765D02*
X24643797Y-6797067D01*
X24667589Y-6802647D01*
X24691340Y-6810414D01*
X24715031Y-6820280D01*
X24738645Y-6832153D01*
X24762164Y-6845944D01*
X24808840Y-6878920D01*
X24854914Y-6918486D01*
X24900239Y-6963922D01*
X24944670Y-7014508D01*
X24988060Y-7069524D01*
X25030262Y-7128250D01*
X25071132Y-7189964D01*
X25110523Y-7253948D01*
X25148288Y-7319481D01*
X25184281Y-7385842D01*
X25218357Y-7452311D01*
X25280172Y-7582693D01*
X25283195Y-7590220D01*
X25285505Y-7597738D01*
X25287127Y-7605228D01*
X25288084Y-7612668D01*
X25288401Y-7620037D01*
X25288103Y-7627315D01*
X25287213Y-7634480D01*
X25285756Y-7641511D01*
X25283756Y-7648388D01*
X25281237Y-7655090D01*
X25278224Y-7661595D01*
X25274741Y-7667883D01*
X25270812Y-7673932D01*
X25266462Y-7679723D01*
X25261715Y-7685233D01*
X25256594Y-7690443D01*
X25251126Y-7695330D01*
X25245332Y-7699874D01*
X25239239Y-7704054D01*
X25232870Y-7707850D01*
X25226250Y-7711240D01*
X25219402Y-7714203D01*
X25212351Y-7716718D01*
X25205122Y-7718765D01*
X25197739Y-7720322D01*
X25190225Y-7721369D01*
X25182606Y-7721884D01*
X25174905Y-7721848D01*
X25167147Y-7721237D01*
X25159357Y-7720033D01*
X25151557Y-7718213D01*
X25143774Y-7715757D01*
X25025973Y-7677130D01*
X24893820Y-7641374D01*
X24822775Y-7625155D01*
X24748638Y-7610353D01*
X24671573Y-7597201D01*
X24591748Y-7585932D01*
X24509326Y-7576780D01*
X24424473Y-7569976D01*
X24337355Y-7565755D01*
X24248137Y-7564349D01*
X24156984Y-7565992D01*
X24064061Y-7570916D01*
X23969534Y-7579355D01*
X23873568Y-7591542D01*
X23865558Y-7592410D01*
X23857693Y-7592670D01*
X23849989Y-7592343D01*
X23842464Y-7591457D01*
X23835136Y-7590036D01*
X23828024Y-7588103D01*
X23821143Y-7585685D01*
X23814512Y-7582805D01*
X23808149Y-7579489D01*
X23802071Y-7575762D01*
X23796296Y-7571647D01*
X23790842Y-7567170D01*
X23785725Y-7562356D01*
X23780965Y-7557229D01*
X23776578Y-7551814D01*
X23772582Y-7546136D01*
X23768994Y-7540219D01*
X23765833Y-7534089D01*
X23763117Y-7527770D01*
X23760861Y-7521286D01*
X23759085Y-7514663D01*
X23757807Y-7507925D01*
X23757042Y-7501098D01*
X23756810Y-7494205D01*
X23757128Y-7487271D01*
X23758014Y-7480322D01*
X23759484Y-7473382D01*
X23761558Y-7466475D01*
X23764252Y-7459628D01*
X23767584Y-7452863D01*
X23771572Y-7446206D01*
X23776233Y-7439682D01*
X23821080Y-7382952D01*
X23868503Y-7325226D01*
X23918177Y-7267187D01*
X23969773Y-7209514D01*
X24022965Y-7152888D01*
X24077427Y-7097990D01*
X24132832Y-7045500D01*
X24188852Y-6996099D01*
X24245162Y-6950468D01*
X24301434Y-6909287D01*
X24357342Y-6873236D01*
X24385058Y-6857348D01*
X24412559Y-6842997D01*
X24439807Y-6830269D01*
X24466758Y-6819250D01*
X24493374Y-6810023D01*
X24519613Y-6802675D01*
X24545434Y-6797290D01*
X24570796Y-6793953D01*
X24595659Y-6792750D01*
X24619982Y-6793765D01*
D11*
D10*
X23990210Y-15650928D02*
X24055210Y-15715928D01*
X24055210Y-15650928D02*
X23990210Y-15715928D01*
X24568210Y-15650928D02*
X24633210Y-15715928D01*
X24633210Y-15650928D02*
X24568210Y-15715928D01*
D11*
X15286192Y-16634050D02*
X15286192Y-16434050D01*
X15286192Y-16434050D02*
X15333811Y-16434050D01*
X15333811Y-16434050D02*
X15362383Y-16443574D01*
X15362383Y-16443574D02*
X15381430Y-16462622D01*
X15381430Y-16462622D02*
X15390954Y-16481669D01*
X15390954Y-16481669D02*
X15400478Y-16519765D01*
X15400478Y-16519765D02*
X15400478Y-16548336D01*
X15400478Y-16548336D02*
X15390954Y-16586431D01*
X15390954Y-16586431D02*
X15381430Y-16605479D01*
X15381430Y-16605479D02*
X15362383Y-16624527D01*
X15362383Y-16624527D02*
X15333811Y-16634050D01*
X15333811Y-16634050D02*
X15286192Y-16634050D01*
X15486192Y-16634050D02*
X15486192Y-16500717D01*
X15486192Y-16538812D02*
X15495716Y-16519765D01*
X15495716Y-16519765D02*
X15505240Y-16510241D01*
X15505240Y-16510241D02*
X15524287Y-16500717D01*
X15524287Y-16500717D02*
X15543335Y-16500717D01*
X15610002Y-16634050D02*
X15610002Y-16500717D01*
X15610002Y-16434050D02*
X15600478Y-16443574D01*
X15600478Y-16443574D02*
X15610002Y-16453098D01*
X15610002Y-16453098D02*
X15619526Y-16443574D01*
X15619526Y-16443574D02*
X15610002Y-16434050D01*
X15610002Y-16434050D02*
X15610002Y-16453098D01*
X15733811Y-16634050D02*
X15714764Y-16624527D01*
X15714764Y-16624527D02*
X15705240Y-16605479D01*
X15705240Y-16605479D02*
X15705240Y-16434050D01*
X15838573Y-16634050D02*
X15819526Y-16624527D01*
X15819526Y-16624527D02*
X15810002Y-16605479D01*
X15810002Y-16605479D02*
X15810002Y-16434050D01*
X16067145Y-16634050D02*
X16067145Y-16434050D01*
X16067145Y-16434050D02*
X16133811Y-16576908D01*
X16133811Y-16576908D02*
X16200478Y-16434050D01*
X16200478Y-16434050D02*
X16200478Y-16634050D01*
X16381430Y-16634050D02*
X16381430Y-16529289D01*
X16381430Y-16529289D02*
X16371907Y-16510241D01*
X16371907Y-16510241D02*
X16352859Y-16500717D01*
X16352859Y-16500717D02*
X16314764Y-16500717D01*
X16314764Y-16500717D02*
X16295716Y-16510241D01*
X16381430Y-16624527D02*
X16362383Y-16634050D01*
X16362383Y-16634050D02*
X16314764Y-16634050D01*
X16314764Y-16634050D02*
X16295716Y-16624527D01*
X16295716Y-16624527D02*
X16286192Y-16605479D01*
X16286192Y-16605479D02*
X16286192Y-16586431D01*
X16286192Y-16586431D02*
X16295716Y-16567384D01*
X16295716Y-16567384D02*
X16314764Y-16557860D01*
X16314764Y-16557860D02*
X16362383Y-16557860D01*
X16362383Y-16557860D02*
X16381430Y-16548336D01*
X16476668Y-16500717D02*
X16476668Y-16700717D01*
X16476668Y-16510241D02*
X16495716Y-16500717D01*
X16495716Y-16500717D02*
X16533811Y-16500717D01*
X16533811Y-16500717D02*
X16552859Y-16510241D01*
X16552859Y-16510241D02*
X16562383Y-16519765D01*
X16562383Y-16519765D02*
X16571907Y-16538812D01*
X16571907Y-16538812D02*
X16571907Y-16595955D01*
X16571907Y-16595955D02*
X16562383Y-16615003D01*
X16562383Y-16615003D02*
X16552859Y-16624527D01*
X16552859Y-16624527D02*
X16533811Y-16634050D01*
X16533811Y-16634050D02*
X16495716Y-16634050D01*
X16495716Y-16634050D02*
X16476668Y-16624527D01*
X16657621Y-16615003D02*
X16667145Y-16624527D01*
X16667145Y-16624527D02*
X16657621Y-16634050D01*
X16657621Y-16634050D02*
X16648097Y-16624527D01*
X16648097Y-16624527D02*
X16657621Y-16615003D01*
X16657621Y-16615003D02*
X16657621Y-16634050D01*
X16657621Y-16510241D02*
X16667145Y-16519765D01*
X16667145Y-16519765D02*
X16657621Y-16529289D01*
X16657621Y-16529289D02*
X16648097Y-16519765D01*
X16648097Y-16519765D02*
X16657621Y-16510241D01*
X16657621Y-16510241D02*
X16657621Y-16529289D01*
D10*
X14960415Y-16930067D02*
X15025415Y-16995067D01*
X15025415Y-16930067D02*
X14960415Y-16995067D01*
D11*
X15324287Y-16854051D02*
X15343335Y-16854051D01*
X15343335Y-16854051D02*
X15362383Y-16863574D01*
X15362383Y-16863574D02*
X15371907Y-16873098D01*
X15371907Y-16873098D02*
X15381430Y-16892146D01*
X15381430Y-16892146D02*
X15390954Y-16930241D01*
X15390954Y-16930241D02*
X15390954Y-16977860D01*
X15390954Y-16977860D02*
X15381430Y-17015955D01*
X15381430Y-17015955D02*
X15371907Y-17035003D01*
X15371907Y-17035003D02*
X15362383Y-17044527D01*
X15362383Y-17044527D02*
X15343335Y-17054051D01*
X15343335Y-17054051D02*
X15324287Y-17054051D01*
X15324287Y-17054051D02*
X15305240Y-17044527D01*
X15305240Y-17044527D02*
X15295716Y-17035003D01*
X15295716Y-17035003D02*
X15286192Y-17015955D01*
X15286192Y-17015955D02*
X15276668Y-16977860D01*
X15276668Y-16977860D02*
X15276668Y-16930241D01*
X15276668Y-16930241D02*
X15286192Y-16892146D01*
X15286192Y-16892146D02*
X15295716Y-16873098D01*
X15295716Y-16873098D02*
X15305240Y-16863574D01*
X15305240Y-16863574D02*
X15324287Y-16854051D01*
X15476668Y-17035003D02*
X15486192Y-17044527D01*
X15486192Y-17044527D02*
X15476668Y-17054051D01*
X15476668Y-17054051D02*
X15467145Y-17044527D01*
X15467145Y-17044527D02*
X15476668Y-17035003D01*
X15476668Y-17035003D02*
X15476668Y-17054051D01*
X15657621Y-16854051D02*
X15619526Y-16854051D01*
X15619526Y-16854051D02*
X15600478Y-16863574D01*
X15600478Y-16863574D02*
X15590954Y-16873098D01*
X15590954Y-16873098D02*
X15571907Y-16901670D01*
X15571907Y-16901670D02*
X15562383Y-16939765D01*
X15562383Y-16939765D02*
X15562383Y-17015955D01*
X15562383Y-17015955D02*
X15571907Y-17035003D01*
X15571907Y-17035003D02*
X15581430Y-17044527D01*
X15581430Y-17044527D02*
X15600478Y-17054051D01*
X15600478Y-17054051D02*
X15638573Y-17054051D01*
X15638573Y-17054051D02*
X15657621Y-17044527D01*
X15657621Y-17044527D02*
X15667145Y-17035003D01*
X15667145Y-17035003D02*
X15676668Y-17015955D01*
X15676668Y-17015955D02*
X15676668Y-16968336D01*
X15676668Y-16968336D02*
X15667145Y-16949289D01*
X15667145Y-16949289D02*
X15657621Y-16939765D01*
X15657621Y-16939765D02*
X15638573Y-16930241D01*
X15638573Y-16930241D02*
X15600478Y-16930241D01*
X15600478Y-16930241D02*
X15581430Y-16939765D01*
X15581430Y-16939765D02*
X15571907Y-16949289D01*
X15571907Y-16949289D02*
X15562383Y-16968336D01*
X15857621Y-16854051D02*
X15762383Y-16854051D01*
X15762383Y-16854051D02*
X15752859Y-16949289D01*
X15752859Y-16949289D02*
X15762383Y-16939765D01*
X15762383Y-16939765D02*
X15781430Y-16930241D01*
X15781430Y-16930241D02*
X15829049Y-16930241D01*
X15829049Y-16930241D02*
X15848097Y-16939765D01*
X15848097Y-16939765D02*
X15857621Y-16949289D01*
X15857621Y-16949289D02*
X15867145Y-16968336D01*
X15867145Y-16968336D02*
X15867145Y-17015955D01*
X15867145Y-17015955D02*
X15857621Y-17035003D01*
X15857621Y-17035003D02*
X15848097Y-17044527D01*
X15848097Y-17044527D02*
X15829049Y-17054051D01*
X15829049Y-17054051D02*
X15781430Y-17054051D01*
X15781430Y-17054051D02*
X15762383Y-17044527D01*
X15762383Y-17044527D02*
X15752859Y-17035003D01*
X15990954Y-16854051D02*
X16010002Y-16854051D01*
X16010002Y-16854051D02*
X16029049Y-16863574D01*
X16029049Y-16863574D02*
X16038573Y-16873098D01*
X16038573Y-16873098D02*
X16048097Y-16892146D01*
X16048097Y-16892146D02*
X16057621Y-16930241D01*
X16057621Y-16930241D02*
X16057621Y-16977860D01*
X16057621Y-16977860D02*
X16048097Y-17015955D01*
X16048097Y-17015955D02*
X16038573Y-17035003D01*
X16038573Y-17035003D02*
X16029049Y-17044527D01*
X16029049Y-17044527D02*
X16010002Y-17054051D01*
X16010002Y-17054051D02*
X15990954Y-17054051D01*
X15990954Y-17054051D02*
X15971907Y-17044527D01*
X15971907Y-17044527D02*
X15962383Y-17035003D01*
X15962383Y-17035003D02*
X15952859Y-17015955D01*
X15952859Y-17015955D02*
X15943335Y-16977860D01*
X15943335Y-16977860D02*
X15943335Y-16930241D01*
X15943335Y-16930241D02*
X15952859Y-16892146D01*
X15952859Y-16892146D02*
X15962383Y-16873098D01*
X15962383Y-16873098D02*
X15971907Y-16863574D01*
X15971907Y-16863574D02*
X15990954Y-16854051D01*
X16143335Y-17054051D02*
X16143335Y-16920717D01*
X16143335Y-16939765D02*
X16152859Y-16930241D01*
X16152859Y-16930241D02*
X16171907Y-16920717D01*
X16171907Y-16920717D02*
X16200478Y-16920717D01*
X16200478Y-16920717D02*
X16219526Y-16930241D01*
X16219526Y-16930241D02*
X16229049Y-16949289D01*
X16229049Y-16949289D02*
X16229049Y-17054051D01*
X16229049Y-16949289D02*
X16238573Y-16930241D01*
X16238573Y-16930241D02*
X16257621Y-16920717D01*
X16257621Y-16920717D02*
X16286192Y-16920717D01*
X16286192Y-16920717D02*
X16305240Y-16930241D01*
X16305240Y-16930241D02*
X16314764Y-16949289D01*
X16314764Y-16949289D02*
X16314764Y-17054051D01*
X16410002Y-17054051D02*
X16410002Y-16920717D01*
X16410002Y-16939765D02*
X16419526Y-16930241D01*
X16419526Y-16930241D02*
X16438573Y-16920717D01*
X16438573Y-16920717D02*
X16467145Y-16920717D01*
X16467145Y-16920717D02*
X16486192Y-16930241D01*
X16486192Y-16930241D02*
X16495716Y-16949289D01*
X16495716Y-16949289D02*
X16495716Y-17054051D01*
X16495716Y-16949289D02*
X16505240Y-16930241D01*
X16505240Y-16930241D02*
X16524288Y-16920717D01*
X16524288Y-16920717D02*
X16552859Y-16920717D01*
X16552859Y-16920717D02*
X16571907Y-16930241D01*
X16571907Y-16930241D02*
X16581430Y-16949289D01*
X16581430Y-16949289D02*
X16581430Y-17054051D01*
X16971907Y-16844527D02*
X16800478Y-17101670D01*
X17229050Y-16854051D02*
X17248097Y-16854051D01*
X17248097Y-16854051D02*
X17267145Y-16863574D01*
X17267145Y-16863574D02*
X17276669Y-16873098D01*
X17276669Y-16873098D02*
X17286193Y-16892146D01*
X17286193Y-16892146D02*
X17295716Y-16930241D01*
X17295716Y-16930241D02*
X17295716Y-16977860D01*
X17295716Y-16977860D02*
X17286193Y-17015955D01*
X17286193Y-17015955D02*
X17276669Y-17035003D01*
X17276669Y-17035003D02*
X17267145Y-17044527D01*
X17267145Y-17044527D02*
X17248097Y-17054051D01*
X17248097Y-17054051D02*
X17229050Y-17054051D01*
X17229050Y-17054051D02*
X17210002Y-17044527D01*
X17210002Y-17044527D02*
X17200478Y-17035003D01*
X17200478Y-17035003D02*
X17190954Y-17015955D01*
X17190954Y-17015955D02*
X17181431Y-16977860D01*
X17181431Y-16977860D02*
X17181431Y-16930241D01*
X17181431Y-16930241D02*
X17190954Y-16892146D01*
X17190954Y-16892146D02*
X17200478Y-16873098D01*
X17200478Y-16873098D02*
X17210002Y-16863574D01*
X17210002Y-16863574D02*
X17229050Y-16854051D01*
X17381431Y-17035003D02*
X17390954Y-17044527D01*
X17390954Y-17044527D02*
X17381431Y-17054051D01*
X17381431Y-17054051D02*
X17371907Y-17044527D01*
X17371907Y-17044527D02*
X17381431Y-17035003D01*
X17381431Y-17035003D02*
X17381431Y-17054051D01*
X17514764Y-16854051D02*
X17533812Y-16854051D01*
X17533812Y-16854051D02*
X17552859Y-16863574D01*
X17552859Y-16863574D02*
X17562383Y-16873098D01*
X17562383Y-16873098D02*
X17571907Y-16892146D01*
X17571907Y-16892146D02*
X17581431Y-16930241D01*
X17581431Y-16930241D02*
X17581431Y-16977860D01*
X17581431Y-16977860D02*
X17571907Y-17015955D01*
X17571907Y-17015955D02*
X17562383Y-17035003D01*
X17562383Y-17035003D02*
X17552859Y-17044527D01*
X17552859Y-17044527D02*
X17533812Y-17054051D01*
X17533812Y-17054051D02*
X17514764Y-17054051D01*
X17514764Y-17054051D02*
X17495716Y-17044527D01*
X17495716Y-17044527D02*
X17486193Y-17035003D01*
X17486193Y-17035003D02*
X17476669Y-17015955D01*
X17476669Y-17015955D02*
X17467145Y-16977860D01*
X17467145Y-16977860D02*
X17467145Y-16930241D01*
X17467145Y-16930241D02*
X17476669Y-16892146D01*
X17476669Y-16892146D02*
X17486193Y-16873098D01*
X17486193Y-16873098D02*
X17495716Y-16863574D01*
X17495716Y-16863574D02*
X17514764Y-16854051D01*
X17657621Y-16873098D02*
X17667145Y-16863574D01*
X17667145Y-16863574D02*
X17686193Y-16854051D01*
X17686193Y-16854051D02*
X17733812Y-16854051D01*
X17733812Y-16854051D02*
X17752859Y-16863574D01*
X17752859Y-16863574D02*
X17762383Y-16873098D01*
X17762383Y-16873098D02*
X17771907Y-16892146D01*
X17771907Y-16892146D02*
X17771907Y-16911193D01*
X17771907Y-16911193D02*
X17762383Y-16939765D01*
X17762383Y-16939765D02*
X17648097Y-17054051D01*
X17648097Y-17054051D02*
X17771907Y-17054051D01*
X17952859Y-16854051D02*
X17857621Y-16854051D01*
X17857621Y-16854051D02*
X17848097Y-16949289D01*
X17848097Y-16949289D02*
X17857621Y-16939765D01*
X17857621Y-16939765D02*
X17876669Y-16930241D01*
X17876669Y-16930241D02*
X17924288Y-16930241D01*
X17924288Y-16930241D02*
X17943335Y-16939765D01*
X17943335Y-16939765D02*
X17952859Y-16949289D01*
X17952859Y-16949289D02*
X17962383Y-16968336D01*
X17962383Y-16968336D02*
X17962383Y-17015955D01*
X17962383Y-17015955D02*
X17952859Y-17035003D01*
X17952859Y-17035003D02*
X17943335Y-17044527D01*
X17943335Y-17044527D02*
X17924288Y-17054051D01*
X17924288Y-17054051D02*
X17876669Y-17054051D01*
X17876669Y-17054051D02*
X17857621Y-17044527D01*
X17857621Y-17044527D02*
X17848097Y-17035003D01*
X18133812Y-16854051D02*
X18095716Y-16854051D01*
X18095716Y-16854051D02*
X18076669Y-16863574D01*
X18076669Y-16863574D02*
X18067145Y-16873098D01*
X18067145Y-16873098D02*
X18048097Y-16901670D01*
X18048097Y-16901670D02*
X18038574Y-16939765D01*
X18038574Y-16939765D02*
X18038574Y-17015955D01*
X18038574Y-17015955D02*
X18048097Y-17035003D01*
X18048097Y-17035003D02*
X18057621Y-17044527D01*
X18057621Y-17044527D02*
X18076669Y-17054051D01*
X18076669Y-17054051D02*
X18114764Y-17054051D01*
X18114764Y-17054051D02*
X18133812Y-17044527D01*
X18133812Y-17044527D02*
X18143335Y-17035003D01*
X18143335Y-17035003D02*
X18152859Y-17015955D01*
X18152859Y-17015955D02*
X18152859Y-16968336D01*
X18152859Y-16968336D02*
X18143335Y-16949289D01*
X18143335Y-16949289D02*
X18133812Y-16939765D01*
X18133812Y-16939765D02*
X18114764Y-16930241D01*
X18114764Y-16930241D02*
X18076669Y-16930241D01*
X18076669Y-16930241D02*
X18057621Y-16939765D01*
X18057621Y-16939765D02*
X18048097Y-16949289D01*
X18048097Y-16949289D02*
X18038574Y-16968336D01*
X18229050Y-16854051D02*
X18229050Y-16892146D01*
X18305240Y-16854051D02*
X18305240Y-16892146D01*
X18600478Y-17130241D02*
X18590955Y-17120717D01*
X18590955Y-17120717D02*
X18571907Y-17092146D01*
X18571907Y-17092146D02*
X18562383Y-17073098D01*
X18562383Y-17073098D02*
X18552859Y-17044527D01*
X18552859Y-17044527D02*
X18543336Y-16996908D01*
X18543336Y-16996908D02*
X18543336Y-16958812D01*
X18543336Y-16958812D02*
X18552859Y-16911193D01*
X18552859Y-16911193D02*
X18562383Y-16882622D01*
X18562383Y-16882622D02*
X18571907Y-16863574D01*
X18571907Y-16863574D02*
X18590955Y-16835003D01*
X18590955Y-16835003D02*
X18600478Y-16825479D01*
X18667145Y-16873098D02*
X18676669Y-16863574D01*
X18676669Y-16863574D02*
X18695716Y-16854051D01*
X18695716Y-16854051D02*
X18743336Y-16854051D01*
X18743336Y-16854051D02*
X18762383Y-16863574D01*
X18762383Y-16863574D02*
X18771907Y-16873098D01*
X18771907Y-16873098D02*
X18781431Y-16892146D01*
X18781431Y-16892146D02*
X18781431Y-16911193D01*
X18781431Y-16911193D02*
X18771907Y-16939765D01*
X18771907Y-16939765D02*
X18657621Y-17054051D01*
X18657621Y-17054051D02*
X18781431Y-17054051D01*
X19019526Y-17054051D02*
X19019526Y-16854051D01*
X19105240Y-17054051D02*
X19105240Y-16949289D01*
X19105240Y-16949289D02*
X19095717Y-16930241D01*
X19095717Y-16930241D02*
X19076669Y-16920717D01*
X19076669Y-16920717D02*
X19048097Y-16920717D01*
X19048097Y-16920717D02*
X19029050Y-16930241D01*
X19029050Y-16930241D02*
X19019526Y-16939765D01*
X19229050Y-17054051D02*
X19210002Y-17044527D01*
X19210002Y-17044527D02*
X19200478Y-17035003D01*
X19200478Y-17035003D02*
X19190955Y-17015955D01*
X19190955Y-17015955D02*
X19190955Y-16958812D01*
X19190955Y-16958812D02*
X19200478Y-16939765D01*
X19200478Y-16939765D02*
X19210002Y-16930241D01*
X19210002Y-16930241D02*
X19229050Y-16920717D01*
X19229050Y-16920717D02*
X19257621Y-16920717D01*
X19257621Y-16920717D02*
X19276669Y-16930241D01*
X19276669Y-16930241D02*
X19286193Y-16939765D01*
X19286193Y-16939765D02*
X19295717Y-16958812D01*
X19295717Y-16958812D02*
X19295717Y-17015955D01*
X19295717Y-17015955D02*
X19286193Y-17035003D01*
X19286193Y-17035003D02*
X19276669Y-17044527D01*
X19276669Y-17044527D02*
X19257621Y-17054051D01*
X19257621Y-17054051D02*
X19229050Y-17054051D01*
X19410002Y-17054051D02*
X19390955Y-17044527D01*
X19390955Y-17044527D02*
X19381431Y-17025479D01*
X19381431Y-17025479D02*
X19381431Y-16854051D01*
X19562383Y-17044527D02*
X19543336Y-17054051D01*
X19543336Y-17054051D02*
X19505240Y-17054051D01*
X19505240Y-17054051D02*
X19486193Y-17044527D01*
X19486193Y-17044527D02*
X19476669Y-17025479D01*
X19476669Y-17025479D02*
X19476669Y-16949289D01*
X19476669Y-16949289D02*
X19486193Y-16930241D01*
X19486193Y-16930241D02*
X19505240Y-16920717D01*
X19505240Y-16920717D02*
X19543336Y-16920717D01*
X19543336Y-16920717D02*
X19562383Y-16930241D01*
X19562383Y-16930241D02*
X19571907Y-16949289D01*
X19571907Y-16949289D02*
X19571907Y-16968336D01*
X19571907Y-16968336D02*
X19476669Y-16987384D01*
X19648098Y-17044527D02*
X19667145Y-17054051D01*
X19667145Y-17054051D02*
X19705240Y-17054051D01*
X19705240Y-17054051D02*
X19724288Y-17044527D01*
X19724288Y-17044527D02*
X19733812Y-17025479D01*
X19733812Y-17025479D02*
X19733812Y-17015955D01*
X19733812Y-17015955D02*
X19724288Y-16996908D01*
X19724288Y-16996908D02*
X19705240Y-16987384D01*
X19705240Y-16987384D02*
X19676669Y-16987384D01*
X19676669Y-16987384D02*
X19657621Y-16977860D01*
X19657621Y-16977860D02*
X19648098Y-16958812D01*
X19648098Y-16958812D02*
X19648098Y-16949289D01*
X19648098Y-16949289D02*
X19657621Y-16930241D01*
X19657621Y-16930241D02*
X19676669Y-16920717D01*
X19676669Y-16920717D02*
X19705240Y-16920717D01*
X19705240Y-16920717D02*
X19724288Y-16930241D01*
X19800479Y-17130241D02*
X19810002Y-17120717D01*
X19810002Y-17120717D02*
X19829050Y-17092146D01*
X19829050Y-17092146D02*
X19838574Y-17073098D01*
X19838574Y-17073098D02*
X19848098Y-17044527D01*
X19848098Y-17044527D02*
X19857621Y-16996908D01*
X19857621Y-16996908D02*
X19857621Y-16958812D01*
X19857621Y-16958812D02*
X19848098Y-16911193D01*
X19848098Y-16911193D02*
X19838574Y-16882622D01*
X19838574Y-16882622D02*
X19829050Y-16863574D01*
X19829050Y-16863574D02*
X19810002Y-16835003D01*
X19810002Y-16835003D02*
X19800479Y-16825479D01*
X20162383Y-17130241D02*
X20152859Y-17120717D01*
X20152859Y-17120717D02*
X20133812Y-17092146D01*
X20133812Y-17092146D02*
X20124288Y-17073098D01*
X20124288Y-17073098D02*
X20114764Y-17044527D01*
X20114764Y-17044527D02*
X20105240Y-16996908D01*
X20105240Y-16996908D02*
X20105240Y-16958812D01*
X20105240Y-16958812D02*
X20114764Y-16911193D01*
X20114764Y-16911193D02*
X20124288Y-16882622D01*
X20124288Y-16882622D02*
X20133812Y-16863574D01*
X20133812Y-16863574D02*
X20152859Y-16835003D01*
X20152859Y-16835003D02*
X20162383Y-16825479D01*
X20238574Y-16920717D02*
X20238574Y-17054051D01*
X20238574Y-16939765D02*
X20248098Y-16930241D01*
X20248098Y-16930241D02*
X20267145Y-16920717D01*
X20267145Y-16920717D02*
X20295717Y-16920717D01*
X20295717Y-16920717D02*
X20314764Y-16930241D01*
X20314764Y-16930241D02*
X20324288Y-16949289D01*
X20324288Y-16949289D02*
X20324288Y-17054051D01*
X20448098Y-17054051D02*
X20429050Y-17044527D01*
X20429050Y-17044527D02*
X20419526Y-17035003D01*
X20419526Y-17035003D02*
X20410002Y-17015955D01*
X20410002Y-17015955D02*
X20410002Y-16958812D01*
X20410002Y-16958812D02*
X20419526Y-16939765D01*
X20419526Y-16939765D02*
X20429050Y-16930241D01*
X20429050Y-16930241D02*
X20448098Y-16920717D01*
X20448098Y-16920717D02*
X20476669Y-16920717D01*
X20476669Y-16920717D02*
X20495717Y-16930241D01*
X20495717Y-16930241D02*
X20505240Y-16939765D01*
X20505240Y-16939765D02*
X20514764Y-16958812D01*
X20514764Y-16958812D02*
X20514764Y-17015955D01*
X20514764Y-17015955D02*
X20505240Y-17035003D01*
X20505240Y-17035003D02*
X20495717Y-17044527D01*
X20495717Y-17044527D02*
X20476669Y-17054051D01*
X20476669Y-17054051D02*
X20448098Y-17054051D01*
X20571907Y-16920717D02*
X20648098Y-16920717D01*
X20600479Y-16854051D02*
X20600479Y-17025479D01*
X20600479Y-17025479D02*
X20610002Y-17044527D01*
X20610002Y-17044527D02*
X20629050Y-17054051D01*
X20629050Y-17054051D02*
X20648098Y-17054051D01*
X20867145Y-16920717D02*
X20867145Y-17120717D01*
X20867145Y-16930241D02*
X20886193Y-16920717D01*
X20886193Y-16920717D02*
X20924288Y-16920717D01*
X20924288Y-16920717D02*
X20943336Y-16930241D01*
X20943336Y-16930241D02*
X20952860Y-16939765D01*
X20952860Y-16939765D02*
X20962383Y-16958812D01*
X20962383Y-16958812D02*
X20962383Y-17015955D01*
X20962383Y-17015955D02*
X20952860Y-17035003D01*
X20952860Y-17035003D02*
X20943336Y-17044527D01*
X20943336Y-17044527D02*
X20924288Y-17054051D01*
X20924288Y-17054051D02*
X20886193Y-17054051D01*
X20886193Y-17054051D02*
X20867145Y-17044527D01*
X21076669Y-17054051D02*
X21057621Y-17044527D01*
X21057621Y-17044527D02*
X21048098Y-17025479D01*
X21048098Y-17025479D02*
X21048098Y-16854051D01*
X21238574Y-17054051D02*
X21238574Y-16949289D01*
X21238574Y-16949289D02*
X21229050Y-16930241D01*
X21229050Y-16930241D02*
X21210002Y-16920717D01*
X21210002Y-16920717D02*
X21171907Y-16920717D01*
X21171907Y-16920717D02*
X21152860Y-16930241D01*
X21238574Y-17044527D02*
X21219526Y-17054051D01*
X21219526Y-17054051D02*
X21171907Y-17054051D01*
X21171907Y-17054051D02*
X21152860Y-17044527D01*
X21152860Y-17044527D02*
X21143336Y-17025479D01*
X21143336Y-17025479D02*
X21143336Y-17006431D01*
X21143336Y-17006431D02*
X21152860Y-16987384D01*
X21152860Y-16987384D02*
X21171907Y-16977860D01*
X21171907Y-16977860D02*
X21219526Y-16977860D01*
X21219526Y-16977860D02*
X21238574Y-16968336D01*
X21305241Y-16920717D02*
X21381431Y-16920717D01*
X21333812Y-16854051D02*
X21333812Y-17025479D01*
X21333812Y-17025479D02*
X21343336Y-17044527D01*
X21343336Y-17044527D02*
X21362383Y-17054051D01*
X21362383Y-17054051D02*
X21381431Y-17054051D01*
X21524288Y-17044527D02*
X21505241Y-17054051D01*
X21505241Y-17054051D02*
X21467145Y-17054051D01*
X21467145Y-17054051D02*
X21448098Y-17044527D01*
X21448098Y-17044527D02*
X21438574Y-17025479D01*
X21438574Y-17025479D02*
X21438574Y-16949289D01*
X21438574Y-16949289D02*
X21448098Y-16930241D01*
X21448098Y-16930241D02*
X21467145Y-16920717D01*
X21467145Y-16920717D02*
X21505241Y-16920717D01*
X21505241Y-16920717D02*
X21524288Y-16930241D01*
X21524288Y-16930241D02*
X21533812Y-16949289D01*
X21533812Y-16949289D02*
X21533812Y-16968336D01*
X21533812Y-16968336D02*
X21438574Y-16987384D01*
X21705241Y-17054051D02*
X21705241Y-16854051D01*
X21705241Y-17044527D02*
X21686193Y-17054051D01*
X21686193Y-17054051D02*
X21648098Y-17054051D01*
X21648098Y-17054051D02*
X21629050Y-17044527D01*
X21629050Y-17044527D02*
X21619526Y-17035003D01*
X21619526Y-17035003D02*
X21610002Y-17015955D01*
X21610002Y-17015955D02*
X21610002Y-16958812D01*
X21610002Y-16958812D02*
X21619526Y-16939765D01*
X21619526Y-16939765D02*
X21629050Y-16930241D01*
X21629050Y-16930241D02*
X21648098Y-16920717D01*
X21648098Y-16920717D02*
X21686193Y-16920717D01*
X21686193Y-16920717D02*
X21705241Y-16930241D01*
X21781431Y-17130241D02*
X21790955Y-17120717D01*
X21790955Y-17120717D02*
X21810002Y-17092146D01*
X21810002Y-17092146D02*
X21819526Y-17073098D01*
X21819526Y-17073098D02*
X21829050Y-17044527D01*
X21829050Y-17044527D02*
X21838574Y-16996908D01*
X21838574Y-16996908D02*
X21838574Y-16958812D01*
X21838574Y-16958812D02*
X21829050Y-16911193D01*
X21829050Y-16911193D02*
X21819526Y-16882622D01*
X21819526Y-16882622D02*
X21810002Y-16863574D01*
X21810002Y-16863574D02*
X21790955Y-16835003D01*
X21790955Y-16835003D02*
X21781431Y-16825479D01*
M02*
