G04 #@! TF.GenerationSoftware,KiCad,Pcbnew,9.0.0*
G04 #@! TF.CreationDate,2026-06-26T14:59:30-04:00*
G04 #@! TF.ProjectId,einkbadge,65696e6b-6261-4646-9765-2e6b69636164,rev?*
G04 #@! TF.SameCoordinates,Original*
G04 #@! TF.FileFunction,Profile,NP*
%FSLAX46Y46*%
G04 Gerber Fmt 4.6, Leading zero omitted, Abs format (unit mm)*
G04 Created by KiCad (PCBNEW 9.0.0) date 2026-06-26 14:59:30*
%MOMM*%
%LPD*%
G01*
G04 APERTURE LIST*
G04 #@! TA.AperFunction,Profile*
%ADD10C,0.100000*%
G04 #@! TD*
G04 APERTURE END LIST*
D10*
X247042428Y-64107413D02*
X247670320Y-64220553D01*
X248279899Y-64389959D01*
X248871256Y-64612785D01*
X249444485Y-64886184D01*
X249999674Y-65207310D01*
X250536917Y-65573317D01*
X251056303Y-65981357D01*
X251557925Y-66428586D01*
X252041873Y-66912156D01*
X252508239Y-67429221D01*
X252957114Y-67976935D01*
X253388589Y-68552451D01*
X253802756Y-69152923D01*
X254199705Y-69775506D01*
X254942318Y-71075613D01*
X255617157Y-72430000D01*
X256224953Y-73815899D01*
X256766435Y-75210538D01*
X257242334Y-76591146D01*
X257653380Y-77934952D01*
X258000302Y-79219184D01*
X258283832Y-80421072D01*
X258504699Y-81517845D01*
X258511271Y-81556382D01*
X258516895Y-81594797D01*
X258521594Y-81633155D01*
X258525386Y-81671525D01*
X258528298Y-81709973D01*
X258530350Y-81748567D01*
X258531565Y-81787371D01*
X258531965Y-81826455D01*
X258531965Y-142339732D01*
X258531965Y-157817855D01*
X258524993Y-158093569D01*
X258504303Y-158365663D01*
X258470231Y-158633801D01*
X258423114Y-158897646D01*
X258363288Y-159156863D01*
X258291090Y-159411111D01*
X258206858Y-159660058D01*
X258110925Y-159903366D01*
X258003632Y-160140696D01*
X257885311Y-160371715D01*
X257756303Y-160596084D01*
X257616942Y-160813467D01*
X257467565Y-161023528D01*
X257308510Y-161225929D01*
X257140111Y-161420335D01*
X256962708Y-161606407D01*
X256776635Y-161783811D01*
X256582230Y-161952210D01*
X256379828Y-162111265D01*
X256169767Y-162260642D01*
X255952384Y-162400003D01*
X255728016Y-162529012D01*
X255496997Y-162647332D01*
X255259666Y-162754626D01*
X255016358Y-162850559D01*
X254767411Y-162934793D01*
X254513162Y-163006990D01*
X254253946Y-163066816D01*
X253990100Y-163113934D01*
X253721962Y-163148007D01*
X253449867Y-163168696D01*
X253174152Y-163175667D01*
X155661968Y-163175667D01*
X155386255Y-163168696D01*
X155114163Y-163148006D01*
X154846026Y-163113934D01*
X154582182Y-163066816D01*
X154322967Y-163006990D01*
X154068719Y-162934793D01*
X153819774Y-162850559D01*
X153576467Y-162754626D01*
X153339135Y-162647332D01*
X153108117Y-162529012D01*
X152883748Y-162400004D01*
X152666364Y-162260642D01*
X152456304Y-162111266D01*
X152253902Y-161952210D01*
X152059496Y-161783811D01*
X151873423Y-161606407D01*
X151696018Y-161420334D01*
X151527620Y-161225929D01*
X151368564Y-161023528D01*
X151219186Y-160813467D01*
X151079825Y-160596084D01*
X150950816Y-160371715D01*
X150832494Y-160140696D01*
X150725199Y-159903366D01*
X150629267Y-159660058D01*
X150545032Y-159411111D01*
X150472833Y-159156863D01*
X150413007Y-158897646D01*
X150365889Y-158633802D01*
X150331817Y-158365663D01*
X150311127Y-158093569D01*
X150304155Y-157817855D01*
X150304155Y-110014621D01*
X150307663Y-109902623D01*
X150318082Y-109791843D01*
X150335267Y-109682557D01*
X150359066Y-109575045D01*
X150389333Y-109469582D01*
X150425914Y-109366445D01*
X150468664Y-109265913D01*
X150517433Y-109168263D01*
X150572069Y-109073772D01*
X150632426Y-108982716D01*
X150698353Y-108895375D01*
X150769702Y-108812024D01*
X150846322Y-108732941D01*
X150928066Y-108658405D01*
X151014782Y-108588689D01*
X151106323Y-108524076D01*
X152478546Y-107618369D01*
X152570088Y-107553754D01*
X152656806Y-107484039D01*
X152738550Y-107409502D01*
X152815171Y-107330419D01*
X152886519Y-107247068D01*
X152952447Y-107159726D01*
X153012804Y-107068671D01*
X153067441Y-106974180D01*
X153116209Y-106876530D01*
X153158959Y-106775998D01*
X153195542Y-106672862D01*
X153225807Y-106567399D01*
X153249606Y-106459887D01*
X153266791Y-106350601D01*
X153277211Y-106239822D01*
X153280718Y-106127823D01*
X153280718Y-93497913D01*
X153277001Y-93382592D01*
X153265960Y-93268601D01*
X153247764Y-93156239D01*
X153222578Y-93045805D01*
X153190569Y-92937599D01*
X153151905Y-92831918D01*
X153106751Y-92729064D01*
X153055274Y-92629337D01*
X152997642Y-92533035D01*
X152934021Y-92440459D01*
X152864578Y-92351905D01*
X152789478Y-92267677D01*
X152708890Y-92188070D01*
X152622981Y-92113387D01*
X152531916Y-92043926D01*
X152435862Y-91979987D01*
X151149011Y-91182147D01*
X151100371Y-91150898D01*
X151052957Y-91118229D01*
X151006790Y-91084179D01*
X150961892Y-91048786D01*
X150918282Y-91012087D01*
X150875982Y-90974119D01*
X150795394Y-90894526D01*
X150720295Y-90810308D01*
X150650853Y-90721765D01*
X150587230Y-90629196D01*
X150529599Y-90532900D01*
X150478123Y-90433177D01*
X150432968Y-90330327D01*
X150394303Y-90224651D01*
X150362295Y-90116445D01*
X150337109Y-90006012D01*
X150327126Y-89950054D01*
X150318912Y-89893650D01*
X150312487Y-89836840D01*
X150307873Y-89779661D01*
X150305088Y-89722147D01*
X150304155Y-89664341D01*
X150304155Y-81681913D01*
X150304821Y-81634066D01*
X150306804Y-81586056D01*
X150310096Y-81537984D01*
X150314682Y-81489955D01*
X150320552Y-81442070D01*
X150327689Y-81394434D01*
X150336083Y-81347149D01*
X150345721Y-81300319D01*
X150931153Y-78890169D01*
X151570260Y-76702494D01*
X152254513Y-74727887D01*
X152975383Y-72956940D01*
X153724338Y-71380249D01*
X154492850Y-69988401D01*
X155272387Y-68771995D01*
X156054422Y-67721621D01*
X156830422Y-66827872D01*
X157591859Y-66081342D01*
X158330203Y-65472623D01*
X159036922Y-64992308D01*
X159703488Y-64630990D01*
X160321371Y-64379262D01*
X160882041Y-64227718D01*
X161376967Y-64166949D01*
X161929278Y-64137930D01*
X162485535Y-64150410D01*
X163044937Y-64202532D01*
X163606680Y-64292441D01*
X164169961Y-64418277D01*
X164733977Y-64578185D01*
X165297921Y-64770308D01*
X165860995Y-64992790D01*
X166422392Y-65243771D01*
X166981311Y-65521397D01*
X168088498Y-66149154D01*
X169176128Y-66861205D01*
X170237776Y-67642693D01*
X171267015Y-68478763D01*
X172257418Y-69354562D01*
X173202559Y-70255233D01*
X174096011Y-71165922D01*
X174931349Y-72071772D01*
X175702142Y-72957930D01*
X176401968Y-73809539D01*
X177024398Y-74611744D01*
X177092088Y-74696581D01*
X177164056Y-74777032D01*
X177240079Y-74852948D01*
X177319930Y-74924179D01*
X177403389Y-74990572D01*
X177490232Y-75051980D01*
X177580232Y-75108252D01*
X177673170Y-75159239D01*
X177768820Y-75204788D01*
X177866959Y-75244751D01*
X177967363Y-75278979D01*
X178069808Y-75307319D01*
X178174072Y-75329623D01*
X178279931Y-75345740D01*
X178387158Y-75355520D01*
X178495534Y-75358814D01*
X230456190Y-75358815D01*
X230564945Y-75355474D01*
X230672579Y-75345559D01*
X230778855Y-75329219D01*
X230883535Y-75306607D01*
X230986375Y-75277876D01*
X231087138Y-75243178D01*
X231185585Y-75202663D01*
X231281475Y-75156488D01*
X231374568Y-75104802D01*
X231464626Y-75047760D01*
X231551409Y-74985511D01*
X231634676Y-74918211D01*
X231714189Y-74846010D01*
X231789707Y-74769061D01*
X231860992Y-74687516D01*
X231927802Y-74601529D01*
X233124117Y-73042545D01*
X234313003Y-71636464D01*
X235488864Y-70376323D01*
X236646097Y-69255162D01*
X237779108Y-68266017D01*
X238882298Y-67401927D01*
X239950068Y-66655932D01*
X240976821Y-66021066D01*
X241956958Y-65490368D01*
X242884880Y-65056878D01*
X243754991Y-64713632D01*
X244561693Y-64453670D01*
X245299384Y-64270030D01*
X245962469Y-64155748D01*
X246545350Y-64103864D01*
X247042428Y-64107413D01*
X163228871Y-67939528D02*
X163482496Y-67972896D01*
X163740708Y-68026747D01*
X164003098Y-68100231D01*
X164269257Y-68192497D01*
X164538777Y-68302693D01*
X164811250Y-68429970D01*
X165086268Y-68573477D01*
X165363421Y-68732362D01*
X165922501Y-69092868D01*
X166485223Y-69504681D01*
X167048321Y-69960994D01*
X167608524Y-70455003D01*
X168162569Y-70979900D01*
X168707185Y-71528881D01*
X169239108Y-72095139D01*
X169755067Y-72671868D01*
X170251796Y-73252263D01*
X170726028Y-73829517D01*
X171174496Y-74396824D01*
X171221110Y-74462063D01*
X171260989Y-74528629D01*
X171294311Y-74596276D01*
X171321252Y-74664755D01*
X171341987Y-74733819D01*
X171356694Y-74803220D01*
X171365548Y-74872712D01*
X171368728Y-74942047D01*
X171366408Y-75010977D01*
X171358766Y-75079254D01*
X171345977Y-75146631D01*
X171328219Y-75212861D01*
X171305668Y-75277697D01*
X171278499Y-75340890D01*
X171246891Y-75402194D01*
X171211019Y-75461360D01*
X171171059Y-75518142D01*
X171127187Y-75572292D01*
X171079582Y-75623562D01*
X171028419Y-75671705D01*
X170973874Y-75716473D01*
X170916123Y-75757619D01*
X170855345Y-75794895D01*
X170791714Y-75828056D01*
X170725407Y-75856850D01*
X170656602Y-75881033D01*
X170585472Y-75900356D01*
X170512197Y-75914574D01*
X170436951Y-75923435D01*
X170359913Y-75926695D01*
X170281257Y-75924105D01*
X170201161Y-75915419D01*
X169241504Y-75793553D01*
X168296237Y-75709164D01*
X167367009Y-75659921D01*
X166455478Y-75643494D01*
X165563294Y-75657550D01*
X164692112Y-75699761D01*
X163843586Y-75767797D01*
X163019368Y-75859322D01*
X162221110Y-75972011D01*
X161450469Y-76103530D01*
X160709096Y-76251550D01*
X159998643Y-76413738D01*
X158677120Y-76771302D01*
X157499121Y-77157574D01*
X157421278Y-77182131D01*
X157343279Y-77200329D01*
X157265367Y-77212373D01*
X157187784Y-77218476D01*
X157110774Y-77218845D01*
X157034579Y-77213691D01*
X156959442Y-77203223D01*
X156885606Y-77187650D01*
X156813314Y-77167182D01*
X156742808Y-77142028D01*
X156674331Y-77112397D01*
X156608127Y-77078500D01*
X156544438Y-77040544D01*
X156483506Y-76998740D01*
X156425576Y-76953297D01*
X156370888Y-76904425D01*
X156319687Y-76852333D01*
X156272215Y-76797230D01*
X156228716Y-76739325D01*
X156189430Y-76678829D01*
X156154602Y-76615950D01*
X156124475Y-76550898D01*
X156099291Y-76483883D01*
X156079294Y-76415113D01*
X156064725Y-76344799D01*
X156055828Y-76273150D01*
X156052845Y-76200373D01*
X156056020Y-76126680D01*
X156065595Y-76052280D01*
X156081814Y-75977382D01*
X156104918Y-75902196D01*
X156135151Y-75826931D01*
X156753275Y-74523111D01*
X157094029Y-73858418D01*
X157453961Y-73194807D01*
X157831609Y-72539482D01*
X158225511Y-71899644D01*
X158634208Y-71282496D01*
X159056236Y-70695240D01*
X159490135Y-70145080D01*
X159934442Y-69639218D01*
X160387696Y-69184856D01*
X160848436Y-68789197D01*
X161315198Y-68459444D01*
X161550382Y-68321534D01*
X161786523Y-68202801D01*
X162023440Y-68104144D01*
X162260949Y-68026466D01*
X162498868Y-67970667D01*
X162737013Y-67937646D01*
X162980241Y-67927496D01*
X163228871Y-67939528D01*
X211146847Y-77166761D02*
X211216381Y-77172049D01*
X211284905Y-77180757D01*
X211352332Y-77192797D01*
X211418577Y-77208086D01*
X211483551Y-77226537D01*
X211547170Y-77248064D01*
X211609349Y-77272581D01*
X211670000Y-77300000D01*
X211729038Y-77330237D01*
X211786378Y-77363206D01*
X211841930Y-77398821D01*
X211895614Y-77436995D01*
X211947338Y-77477643D01*
X211997020Y-77520678D01*
X212044571Y-77566015D01*
X212089908Y-77613567D01*
X212132943Y-77663249D01*
X212173591Y-77714973D01*
X212211765Y-77768655D01*
X212247380Y-77824209D01*
X212280349Y-77881547D01*
X212310586Y-77940585D01*
X212338006Y-78001237D01*
X212362522Y-78063415D01*
X212384049Y-78127035D01*
X212402500Y-78192009D01*
X212417788Y-78258253D01*
X212429829Y-78325680D01*
X212438537Y-78394204D01*
X212443824Y-78463739D01*
X212445606Y-78534198D01*
X212443824Y-78604658D01*
X212438537Y-78674193D01*
X212429829Y-78742717D01*
X212417789Y-78810143D01*
X212402499Y-78876387D01*
X212384049Y-78941362D01*
X212362523Y-79004981D01*
X212338006Y-79067160D01*
X212310586Y-79127812D01*
X212280349Y-79186850D01*
X212247380Y-79244188D01*
X212211765Y-79299741D01*
X212173591Y-79353424D01*
X212132943Y-79405150D01*
X212089908Y-79454830D01*
X212044571Y-79502382D01*
X211997019Y-79547719D01*
X211947337Y-79590755D01*
X211895614Y-79631402D01*
X211841930Y-79669576D01*
X211786377Y-79705191D01*
X211729038Y-79738160D01*
X211670001Y-79768398D01*
X211609349Y-79795818D01*
X211547170Y-79820333D01*
X211483551Y-79841860D01*
X211418576Y-79860312D01*
X211352332Y-79875600D01*
X211284905Y-79887641D01*
X211216381Y-79896348D01*
X211146848Y-79901636D01*
X211076387Y-79903417D01*
X197860449Y-79903417D01*
X197789989Y-79901636D01*
X197720454Y-79896348D01*
X197651930Y-79887641D01*
X197584503Y-79875600D01*
X197518260Y-79860312D01*
X197453284Y-79841860D01*
X197389665Y-79820333D01*
X197327486Y-79795817D01*
X197266835Y-79768398D01*
X197207797Y-79738160D01*
X197150459Y-79705191D01*
X197094905Y-79669577D01*
X197041223Y-79631402D01*
X196989498Y-79590754D01*
X196939817Y-79547719D01*
X196892264Y-79502382D01*
X196846927Y-79454830D01*
X196803892Y-79405150D01*
X196763246Y-79353424D01*
X196725070Y-79299741D01*
X196689456Y-79244189D01*
X196656487Y-79186849D01*
X196626249Y-79127811D01*
X196598829Y-79067160D01*
X196574313Y-79004981D01*
X196552787Y-78941363D01*
X196534337Y-78876387D01*
X196519047Y-78810143D01*
X196507006Y-78742717D01*
X196498298Y-78674193D01*
X196493011Y-78604658D01*
X196491229Y-78534198D01*
X196493011Y-78463738D01*
X196498298Y-78394204D01*
X196507006Y-78325680D01*
X196519047Y-78258254D01*
X196534336Y-78192009D01*
X196552787Y-78127036D01*
X196574314Y-78063415D01*
X196598830Y-78001237D01*
X196626249Y-77940585D01*
X196656487Y-77881547D01*
X196689456Y-77824210D01*
X196725070Y-77768655D01*
X196763245Y-77714974D01*
X196803892Y-77663249D01*
X196846927Y-77613567D01*
X196892264Y-77566015D01*
X196939816Y-77520678D01*
X196989498Y-77477643D01*
X197041223Y-77436995D01*
X197094906Y-77398821D01*
X197150458Y-77363206D01*
X197207797Y-77330237D01*
X197266836Y-77300000D01*
X197327486Y-77272581D01*
X197389665Y-77248064D01*
X197453284Y-77226537D01*
X197518259Y-77208086D01*
X197584503Y-77192797D01*
X197651930Y-77180757D01*
X197720455Y-77172049D01*
X197789989Y-77166761D01*
X197860450Y-77164980D01*
X211076387Y-77164980D01*
X211146847Y-77166761D01*
X246199819Y-67937646D02*
X246437966Y-67970667D01*
X246675886Y-68026467D01*
X246913396Y-68104144D01*
X247150313Y-68202800D01*
X247386455Y-68321533D01*
X247621638Y-68459444D01*
X248088401Y-68789197D01*
X248549141Y-69184856D01*
X249002393Y-69639219D01*
X249446699Y-70145080D01*
X249880596Y-70695240D01*
X250302625Y-71282496D01*
X250711321Y-71899645D01*
X251105226Y-72539482D01*
X251482877Y-73194808D01*
X251842814Y-73858418D01*
X252183572Y-74523111D01*
X252801717Y-75826931D01*
X252831947Y-75902196D01*
X252855050Y-75977382D01*
X252871266Y-76052281D01*
X252880839Y-76126680D01*
X252884012Y-76200373D01*
X252881027Y-76273150D01*
X252872128Y-76344799D01*
X252857558Y-76415113D01*
X252837556Y-76483883D01*
X252812370Y-76550898D01*
X252782241Y-76615950D01*
X252747411Y-76678829D01*
X252708123Y-76739325D01*
X252664622Y-76797230D01*
X252617147Y-76852333D01*
X252565944Y-76904426D01*
X252511256Y-76953297D01*
X252453323Y-76998741D01*
X252392390Y-77040544D01*
X252328701Y-77078499D01*
X252262496Y-77112397D01*
X252194019Y-77142028D01*
X252123514Y-77167182D01*
X252051223Y-77187650D01*
X251977388Y-77203223D01*
X251902254Y-77213691D01*
X251826060Y-77218845D01*
X251749053Y-77218476D01*
X251671474Y-77212373D01*
X251593567Y-77200328D01*
X251515573Y-77182131D01*
X251437736Y-77157575D01*
X250259732Y-76771302D01*
X248938202Y-76413739D01*
X248227750Y-76251550D01*
X247486377Y-76103530D01*
X246715734Y-75972011D01*
X245917478Y-75859322D01*
X245093259Y-75767797D01*
X244244733Y-75699761D01*
X243373552Y-75657550D01*
X242481368Y-75643493D01*
X241569836Y-75659921D01*
X240640609Y-75709164D01*
X239695338Y-75793553D01*
X238735681Y-75915419D01*
X238655583Y-75924105D01*
X238576926Y-75926696D01*
X238499887Y-75923435D01*
X238424641Y-75914574D01*
X238351365Y-75900357D01*
X238280236Y-75881033D01*
X238211430Y-75856850D01*
X238145122Y-75828055D01*
X238081492Y-75794895D01*
X238020712Y-75757619D01*
X237962962Y-75716473D01*
X237908417Y-75671705D01*
X237857252Y-75623562D01*
X237809647Y-75572292D01*
X237765776Y-75518143D01*
X237725816Y-75461361D01*
X237689943Y-75402194D01*
X237658334Y-75340891D01*
X237631167Y-75277697D01*
X237608614Y-75212861D01*
X237590855Y-75146632D01*
X237578068Y-75079254D01*
X237570424Y-75010976D01*
X237568105Y-74942047D01*
X237571283Y-74872712D01*
X237580138Y-74803220D01*
X237594844Y-74733819D01*
X237615579Y-74664755D01*
X237642519Y-74596276D01*
X237675840Y-74528629D01*
X237715719Y-74462063D01*
X237762333Y-74396824D01*
X238210802Y-73829517D01*
X238685035Y-73252263D01*
X239181768Y-72671868D01*
X239697728Y-72095139D01*
X240229652Y-71528881D01*
X240774270Y-70979900D01*
X241328317Y-70455004D01*
X241888522Y-69960994D01*
X242451621Y-69504681D01*
X243014343Y-69092868D01*
X243573425Y-68732362D01*
X243850576Y-68573477D01*
X244125594Y-68429970D01*
X244398066Y-68302694D01*
X244667585Y-68192497D01*
X244933743Y-68100231D01*
X245196132Y-68026747D01*
X245454342Y-67972896D01*
X245707965Y-67939528D01*
X245956594Y-67927496D01*
X246199819Y-67937646D01*
M02*
