G04 #@! TF.GenerationSoftware,KiCad,Pcbnew,9.0.0*
G04 #@! TF.CreationDate,2026-06-26T14:59:30-04:00*
G04 #@! TF.ProjectId,einkbadge,65696e6b-6261-4646-9765-2e6b69636164,rev?*
G04 #@! TF.SameCoordinates,Original*
G04 #@! TF.FileFunction,Soldermask,Bot*
G04 #@! TF.FilePolarity,Negative*
%FSLAX46Y46*%
G04 Gerber Fmt 4.6, Leading zero omitted, Abs format (unit mm)*
G04 Created by KiCad (PCBNEW 9.0.0) date 2026-06-26 14:59:30*
%MOMM*%
%LPD*%
G01*
G04 APERTURE LIST*
G04 Aperture macros list*
%AMRoundRect*
0 Rectangle with rounded corners*
0 $1 Rounding radius*
0 $2 $3 $4 $5 $6 $7 $8 $9 X,Y pos of 4 corners*
0 Add a 4 corners polygon primitive as box body*
4,1,4,$2,$3,$4,$5,$6,$7,$8,$9,$2,$3,0*
0 Add four circle primitives for the rounded corners*
1,1,$1+$1,$2,$3*
1,1,$1+$1,$4,$5*
1,1,$1+$1,$6,$7*
1,1,$1+$1,$8,$9*
0 Add four rect primitives between the rounded corners*
20,1,$1+$1,$2,$3,$4,$5,0*
20,1,$1+$1,$4,$5,$6,$7,0*
20,1,$1+$1,$6,$7,$8,$9,0*
20,1,$1+$1,$8,$9,$2,$3,0*%
%AMRotRect*
0 Rectangle, with rotation*
0 The origin of the aperture is its center*
0 $1 length*
0 $2 width*
0 $3 Rotation angle, in degrees counterclockwise*
0 Add horizontal line*
21,1,$1,$2,0,0,$3*%
G04 Aperture macros list end*
%ADD10C,1.700000*%
%ADD11RoundRect,0.250000X-0.600000X-0.600000X0.600000X-0.600000X0.600000X0.600000X-0.600000X0.600000X0*%
%ADD12O,1.700000X1.700000*%
%ADD13RoundRect,0.140000X-0.170000X0.140000X-0.170000X-0.140000X0.170000X-0.140000X0.170000X0.140000X0*%
%ADD14R,1.400000X2.550000*%
%ADD15RoundRect,0.062500X0.300000X0.062500X-0.300000X0.062500X-0.300000X-0.062500X0.300000X-0.062500X0*%
%ADD16RoundRect,0.140000X0.140000X0.170000X-0.140000X0.170000X-0.140000X-0.170000X0.140000X-0.170000X0*%
%ADD17O,1.700000X2.200000*%
%ADD18RoundRect,0.250000X0.600000X-0.600000X0.600000X0.600000X-0.600000X0.600000X-0.600000X-0.600000X0*%
%ADD19O,3.000000X2.500000*%
%ADD20C,0.700000*%
%ADD21C,4.400000*%
%ADD22RoundRect,0.225000X-0.375000X0.225000X-0.375000X-0.225000X0.375000X-0.225000X0.375000X0.225000X0*%
%ADD23RoundRect,0.135000X0.185000X-0.135000X0.185000X0.135000X-0.185000X0.135000X-0.185000X-0.135000X0*%
%ADD24RoundRect,0.140000X-0.021213X0.219203X-0.219203X0.021213X0.021213X-0.219203X0.219203X-0.021213X0*%
%ADD25RoundRect,0.135000X-0.135000X-0.185000X0.135000X-0.185000X0.135000X0.185000X-0.135000X0.185000X0*%
%ADD26RoundRect,0.140000X0.021213X-0.219203X0.219203X-0.021213X-0.021213X0.219203X-0.219203X0.021213X0*%
%ADD27RoundRect,0.140000X-0.219203X-0.021213X-0.021213X-0.219203X0.219203X0.021213X0.021213X0.219203X0*%
%ADD28RoundRect,0.140000X0.219203X0.021213X0.021213X0.219203X-0.219203X-0.021213X-0.021213X-0.219203X0*%
%ADD29RoundRect,0.140000X0.170000X-0.140000X0.170000X0.140000X-0.170000X0.140000X-0.170000X-0.140000X0*%
%ADD30RoundRect,0.112500X0.060104X-0.219203X0.219203X-0.060104X-0.060104X0.219203X-0.219203X0.060104X0*%
%ADD31RoundRect,0.112500X-0.237500X0.112500X-0.237500X-0.112500X0.237500X-0.112500X0.237500X0.112500X0*%
%ADD32RoundRect,0.225000X-0.250000X0.225000X-0.250000X-0.225000X0.250000X-0.225000X0.250000X0.225000X0*%
%ADD33C,0.650000*%
%ADD34RoundRect,0.150000X0.150000X0.425000X-0.150000X0.425000X-0.150000X-0.425000X0.150000X-0.425000X0*%
%ADD35RoundRect,0.075000X0.075000X0.500000X-0.075000X0.500000X-0.075000X-0.500000X0.075000X-0.500000X0*%
%ADD36O,1.000000X1.800000*%
%ADD37O,1.000000X2.100000*%
%ADD38RoundRect,0.250000X1.600000X-0.300000X1.600000X0.300000X-1.600000X0.300000X-1.600000X-0.300000X0*%
%ADD39RoundRect,0.225000X0.225000X0.375000X-0.225000X0.375000X-0.225000X-0.375000X0.225000X-0.375000X0*%
%ADD40R,1.000000X0.750000*%
%ADD41RoundRect,0.375000X0.375000X-0.625000X0.375000X0.625000X-0.375000X0.625000X-0.375000X-0.625000X0*%
%ADD42RoundRect,0.500000X1.400000X-0.500000X1.400000X0.500000X-1.400000X0.500000X-1.400000X-0.500000X0*%
%ADD43RoundRect,0.250000X-0.250000X-0.475000X0.250000X-0.475000X0.250000X0.475000X-0.250000X0.475000X0*%
%ADD44RoundRect,0.225000X0.375000X-0.225000X0.375000X0.225000X-0.375000X0.225000X-0.375000X-0.225000X0*%
%ADD45RoundRect,0.050000X-0.212132X-0.282843X0.282843X0.212132X0.212132X0.282843X-0.282843X-0.212132X0*%
%ADD46RoundRect,0.050000X0.212132X-0.282843X0.282843X-0.212132X-0.212132X0.282843X-0.282843X0.212132X0*%
%ADD47RotRect,3.400000X3.400000X45.000000*%
%ADD48RoundRect,0.243750X0.243750X0.456250X-0.243750X0.456250X-0.243750X-0.456250X0.243750X-0.456250X0*%
%ADD49R,1.300000X0.300000*%
%ADD50R,3.000000X2.000000*%
%ADD51RoundRect,0.135000X-0.185000X0.135000X-0.185000X-0.135000X0.185000X-0.135000X0.185000X0.135000X0*%
%ADD52RoundRect,0.135000X-0.226274X-0.035355X-0.035355X-0.226274X0.226274X0.035355X0.035355X0.226274X0*%
%ADD53RotRect,1.400000X1.200000X45.000000*%
%ADD54RoundRect,0.135000X0.226274X0.035355X0.035355X0.226274X-0.226274X-0.035355X-0.035355X-0.226274X0*%
%ADD55RoundRect,0.225000X-0.225000X-0.250000X0.225000X-0.250000X0.225000X0.250000X-0.225000X0.250000X0*%
%ADD56RotRect,1.000000X1.600000X45.000000*%
%ADD57RoundRect,0.150000X-0.150000X0.512500X-0.150000X-0.512500X0.150000X-0.512500X0.150000X0.512500X0*%
G04 APERTURE END LIST*
D10*
G04 #@! TO.C,J2*
X152740000Y-116540000D03*
D11*
X152740000Y-114000000D03*
D12*
X152740000Y-111460001D03*
G04 #@! TD*
D13*
G04 #@! TO.C,C23*
X235980000Y-89590000D03*
X235980000Y-88630000D03*
G04 #@! TD*
D14*
G04 #@! TO.C,U4*
X233310000Y-88510000D03*
D15*
X231797500Y-87260001D03*
X231797500Y-87760000D03*
X231797500Y-88260000D03*
X231797500Y-88760000D03*
X231797500Y-89260000D03*
X231797500Y-89759999D03*
X234822500Y-89759999D03*
X234822500Y-89260000D03*
X234822500Y-88760000D03*
X234822500Y-88260000D03*
X234822500Y-87760000D03*
X234822500Y-87260001D03*
G04 #@! TD*
D16*
G04 #@! TO.C,C22*
X231660000Y-86180000D03*
X232620000Y-86180000D03*
G04 #@! TD*
D11*
G04 #@! TO.C,J5*
X231000000Y-125480000D03*
X231000000Y-128020000D03*
X231000000Y-130560000D03*
G04 #@! TD*
G04 #@! TO.C,J6*
X231010000Y-135620000D03*
X231010000Y-138160000D03*
X231010000Y-140700000D03*
G04 #@! TD*
D17*
G04 #@! TO.C,J4*
X190360000Y-122970000D03*
X192900000Y-122970000D03*
X195440000Y-122970000D03*
X197980000Y-122970000D03*
X200520000Y-122970000D03*
X203060000Y-122970000D03*
X205600000Y-122970000D03*
X208140000Y-122970000D03*
D18*
X210680000Y-122970000D03*
D17*
X213220000Y-122970000D03*
X215760000Y-122970000D03*
X218300000Y-122970000D03*
X220840000Y-122970000D03*
X223380000Y-122970000D03*
X225920000Y-122970000D03*
X228460000Y-122970000D03*
G04 #@! TD*
D11*
G04 #@! TO.C,J3*
X210690000Y-125480000D03*
X210690000Y-128020000D03*
X210690000Y-130560000D03*
X210690000Y-133100000D03*
X210690000Y-135640000D03*
X210690000Y-138180000D03*
X210690000Y-140720000D03*
X210690000Y-143260000D03*
X210690000Y-145800000D03*
X210690000Y-148340000D03*
X210690000Y-150880000D03*
X210690000Y-153420000D03*
X210690000Y-155960000D03*
X210690000Y-158500000D03*
G04 #@! TD*
D10*
G04 #@! TO.C,REF\u002A\u002A10*
X175127095Y-122934282D03*
G04 #@! TD*
G04 #@! TO.C,REF\u002A\u002A502*
X205607095Y-153414281D03*
G04 #@! TD*
G04 #@! TO.C,REF\u002A\u002A206*
X164967096Y-135634281D03*
G04 #@! TD*
G04 #@! TO.C,REF\u002A\u002A193*
X233547095Y-133094281D03*
G04 #@! TD*
G04 #@! TO.C,REF\u002A\u002A194*
X236087095Y-133094281D03*
G04 #@! TD*
G04 #@! TO.C,REF\u002A\u002A107*
X218307095Y-128014281D03*
G04 #@! TD*
G04 #@! TO.C,REF\u002A\u002A420*
X200527095Y-148334281D03*
G04 #@! TD*
G04 #@! TO.C,REF\u002A\u002A291*
X177667095Y-140714282D03*
G04 #@! TD*
G04 #@! TO.C,REF\u002A\u002A460*
X200527095Y-150874282D03*
G04 #@! TD*
G04 #@! TO.C,REF\u002A\u002A222*
X205607095Y-135634282D03*
G04 #@! TD*
G04 #@! TO.C,REF\u002A\u002A535*
X187827096Y-155954281D03*
G04 #@! TD*
G04 #@! TO.C,REF\u002A\u002A369*
X172587095Y-145794282D03*
G04 #@! TD*
G04 #@! TO.C,REF\u002A\u002A86*
X164967095Y-128014281D03*
G04 #@! TD*
G04 #@! TO.C,REF\u002A\u002A97*
X192907096Y-128014281D03*
G04 #@! TD*
G04 #@! TO.C,REF\u002A\u002A61*
X203067096Y-125474281D03*
G04 #@! TD*
G04 #@! TO.C,REF\u002A\u002A189*
X223387095Y-133094281D03*
G04 #@! TD*
G04 #@! TO.C,REF\u002A\u002A58*
X195447095Y-125474281D03*
G04 #@! TD*
G04 #@! TO.C,REF\u002A\u002A229*
X223387095Y-135634281D03*
G04 #@! TD*
G04 #@! TO.C,REF\u002A\u002A82*
X154807095Y-128014281D03*
G04 #@! TD*
G04 #@! TO.C,REF\u002A\u002A165*
X162427095Y-133094282D03*
G04 #@! TD*
D19*
G04 #@! TO.C,SW2*
X159911832Y-138174282D03*
X172411832Y-138174282D03*
X159911832Y-143174282D03*
X172411832Y-143174282D03*
G04 #@! TD*
D10*
G04 #@! TO.C,REF\u002A\u002A445*
X162427095Y-150874281D03*
G04 #@! TD*
G04 #@! TO.C,REF\u002A\u002A322*
X154807095Y-143254281D03*
G04 #@! TD*
G04 #@! TO.C,REF\u002A\u002A187*
X218307095Y-133094282D03*
G04 #@! TD*
G04 #@! TO.C,REF\u002A\u002A340*
X200527095Y-143254281D03*
G04 #@! TD*
G04 #@! TO.C,REF\u002A\u002A537*
X192907095Y-155954281D03*
G04 #@! TD*
G04 #@! TO.C,REF\u002A\u002A572*
X180207095Y-158494281D03*
G04 #@! TD*
G04 #@! TO.C,REF\u002A\u002A525*
X162427095Y-155954282D03*
G04 #@! TD*
G04 #@! TO.C,REF\u002A\u002A180*
X200527095Y-133094281D03*
G04 #@! TD*
G04 #@! TO.C,REF\u002A\u002A205*
X162427095Y-135634282D03*
G04 #@! TD*
G04 #@! TO.C,REF\u002A\u002A164*
X159887095Y-133094281D03*
G04 #@! TD*
G04 #@! TO.C,REF\u002A\u002A89*
X172587095Y-128014281D03*
G04 #@! TD*
G04 #@! TO.C,REF\u002A\u002A274*
X236087096Y-138174281D03*
G04 #@! TD*
G04 #@! TO.C,REF\u002A\u002A466*
X215767096Y-150874281D03*
G04 #@! TD*
G04 #@! TO.C,REF\u002A\u002A383*
X208147095Y-145794282D03*
G04 #@! TD*
G04 #@! TO.C,REF\u002A\u002A425*
X213227095Y-148334281D03*
G04 #@! TD*
G04 #@! TO.C,REF\u002A\u002A208*
X170047095Y-135634281D03*
G04 #@! TD*
G04 #@! TO.C,REF\u002A\u002A57*
X192907096Y-125474281D03*
G04 #@! TD*
G04 #@! TO.C,REF\u002A\u002A416*
X190367095Y-148334281D03*
G04 #@! TD*
G04 #@! TO.C,REF\u002A\u002A233*
X233547095Y-135634281D03*
G04 #@! TD*
G04 #@! TO.C,REF\u002A\u002A447*
X167507095Y-150874282D03*
G04 #@! TD*
G04 #@! TO.C,REF\u002A\u002A209*
X172587095Y-135634282D03*
G04 #@! TD*
G04 #@! TO.C,REF\u002A\u002A500*
X200527095Y-153414281D03*
G04 #@! TD*
G04 #@! TO.C,REF\u002A\u002A218*
X195447095Y-135634282D03*
G04 #@! TD*
G04 #@! TO.C,REF\u002A\u002A177*
X192907095Y-133094281D03*
G04 #@! TD*
G04 #@! TO.C,REF\u002A\u002A428*
X220847095Y-148334281D03*
G04 #@! TD*
G04 #@! TO.C,REF\u002A\u002A501*
X203067095Y-153414281D03*
G04 #@! TD*
G04 #@! TO.C,REF\u002A\u002A95*
X187827095Y-128014281D03*
G04 #@! TD*
G04 #@! TO.C,REF\u002A\u002A87*
X167507095Y-128014282D03*
G04 #@! TD*
G04 #@! TO.C,REF\u002A\u002A377*
X192907095Y-145794281D03*
G04 #@! TD*
G04 #@! TO.C,REF\u002A\u002A528*
X170047095Y-155954281D03*
G04 #@! TD*
G04 #@! TO.C,REF\u002A\u002A506*
X215767095Y-153414281D03*
G04 #@! TD*
G04 #@! TO.C,REF\u002A\u002A419*
X197987095Y-148334281D03*
G04 #@! TD*
G04 #@! TO.C,REF\u002A\u002A414*
X185287095Y-148334281D03*
G04 #@! TD*
G04 #@! TO.C,REF\u002A\u002A443*
X157347095Y-150874282D03*
G04 #@! TD*
G04 #@! TO.C,REF\u002A\u002A168*
X170047095Y-133094281D03*
G04 #@! TD*
G04 #@! TO.C,REF\u002A\u002A142*
X205607095Y-130554281D03*
G04 #@! TD*
G04 #@! TO.C,REF\u002A\u002A373*
X182747095Y-145794282D03*
G04 #@! TD*
G04 #@! TO.C,REF\u002A\u002A145*
X213227095Y-130554282D03*
G04 #@! TD*
G04 #@! TO.C,REF\u002A\u002A406*
X164967095Y-148334281D03*
G04 #@! TD*
G04 #@! TO.C,REF\u002A\u002A427*
X218307095Y-148334281D03*
G04 #@! TD*
G04 #@! TO.C,REF\u002A\u002A100*
X200527095Y-128014282D03*
G04 #@! TD*
G04 #@! TO.C,REF\u002A\u002A48*
X170047096Y-125474281D03*
G04 #@! TD*
G04 #@! TO.C,REF\u002A\u002A536*
X190367095Y-155954281D03*
G04 #@! TD*
G04 #@! TO.C,REF\u002A\u002A347*
X218307095Y-143254281D03*
G04 #@! TD*
G04 #@! TO.C,REF\u002A\u002A566*
X164967096Y-158494281D03*
G04 #@! TD*
G04 #@! TO.C,REF\u002A\u002A309*
X223387095Y-140714282D03*
G04 #@! TD*
G04 #@! TO.C,REF\u002A\u002A375*
X187827096Y-145794281D03*
G04 #@! TD*
G04 #@! TO.C,REF\u002A\u002A386*
X215767095Y-145794281D03*
G04 #@! TD*
G04 #@! TO.C,REF\u002A\u002A4*
X159887095Y-122934281D03*
G04 #@! TD*
G04 #@! TO.C,REF\u002A\u002A228*
X220847095Y-135634282D03*
G04 #@! TD*
G04 #@! TO.C,REF\u002A\u002A268*
X220847095Y-138174281D03*
G04 #@! TD*
G04 #@! TO.C,REF\u002A\u002A348*
X220847096Y-143254281D03*
G04 #@! TD*
G04 #@! TO.C,REF\u002A\u002A341*
X203067095Y-143254281D03*
G04 #@! TD*
G04 #@! TO.C,REF\u002A\u002A423*
X208147095Y-148334281D03*
G04 #@! TD*
G04 #@! TO.C,REF\u002A\u002A362*
X154807095Y-145794281D03*
G04 #@! TD*
G04 #@! TO.C,REF\u002A\u002A583*
X208147095Y-158494282D03*
G04 #@! TD*
G04 #@! TO.C,REF\u002A\u002A465*
X213227095Y-150874282D03*
G04 #@! TD*
G04 #@! TO.C,REF\u002A\u002A564*
X159887095Y-158494282D03*
G04 #@! TD*
G04 #@! TO.C,REF\u002A\u002A267*
X218307095Y-138174281D03*
G04 #@! TD*
G04 #@! TO.C,REF\u002A\u002A214*
X185287095Y-135634282D03*
G04 #@! TD*
G04 #@! TO.C,REF\u002A\u002A307*
X218307095Y-140714281D03*
G04 #@! TD*
G04 #@! TO.C,REF\u002A\u002A538*
X195447095Y-155954282D03*
G04 #@! TD*
G04 #@! TO.C,REF\u002A\u002A578*
X195447095Y-158494282D03*
G04 #@! TD*
G04 #@! TO.C,REF\u002A\u002A372*
X180207095Y-145794281D03*
G04 #@! TD*
G04 #@! TO.C,REF\u002A\u002A191*
X228467095Y-133094281D03*
G04 #@! TD*
G04 #@! TO.C,REF\u002A\u002A163*
X157347095Y-133094281D03*
G04 #@! TD*
G04 #@! TO.C,REF\u002A\u002A565*
X162427095Y-158494282D03*
G04 #@! TD*
G04 #@! TO.C,REF\u002A\u002A217*
X192907095Y-135634281D03*
G04 #@! TD*
G04 #@! TO.C,REF\u002A\u002A166*
X164967096Y-133094281D03*
G04 #@! TD*
G04 #@! TO.C,REF\u002A\u002A332*
X180207095Y-143254281D03*
G04 #@! TD*
G04 #@! TO.C,REF\u002A\u002A388*
X220847096Y-145794282D03*
G04 #@! TD*
G04 #@! TO.C,REF\u002A\u002A487*
X167507095Y-153414281D03*
G04 #@! TD*
G04 #@! TO.C,REF\u002A\u002A207*
X167507095Y-135634281D03*
G04 #@! TD*
G04 #@! TO.C,REF\u002A\u002A102*
X205607095Y-128014281D03*
G04 #@! TD*
G04 #@! TO.C,REF\u002A\u002A250*
X175127095Y-138174281D03*
G04 #@! TD*
G04 #@! TO.C,REF\u002A\u002A417*
X192907096Y-148334281D03*
G04 #@! TD*
G04 #@! TO.C,REF\u002A\u002A284*
X159887095Y-140714281D03*
G04 #@! TD*
G04 #@! TO.C,REF\u002A\u002A489*
X172587095Y-153414281D03*
G04 #@! TD*
G04 #@! TO.C,REF\u002A\u002A546*
X215767095Y-155954281D03*
G04 #@! TD*
G04 #@! TO.C,REF\u002A\u002A162*
X154807095Y-133094281D03*
G04 #@! TD*
G04 #@! TO.C,REF\u002A\u002A203*
X157347095Y-135634281D03*
G04 #@! TD*
G04 #@! TO.C,REF\u002A\u002A379*
X197987096Y-145794282D03*
G04 #@! TD*
G04 #@! TO.C,REF\u002A\u002A45*
X162427095Y-125474281D03*
G04 #@! TD*
G04 #@! TO.C,REF\u002A\u002A124*
X159887095Y-130554281D03*
G04 #@! TD*
G04 #@! TO.C,REF\u002A\u002A549*
X223387095Y-155954281D03*
G04 #@! TD*
G04 #@! TO.C,REF\u002A\u002A374*
X185287095Y-145794282D03*
G04 #@! TD*
G04 #@! TO.C,REF\u002A\u002A462*
X205607095Y-150874281D03*
G04 #@! TD*
G04 #@! TO.C,REF\u002A\u002A14*
X185287095Y-122934282D03*
G04 #@! TD*
G04 #@! TO.C,REF\u002A\u002A182*
X205607095Y-133094281D03*
G04 #@! TD*
G04 #@! TO.C,REF\u002A\u002A364*
X159887095Y-145794281D03*
G04 #@! TD*
G04 #@! TO.C,REF\u002A\u002A484*
X159887095Y-153414281D03*
G04 #@! TD*
G04 #@! TO.C,REF\u002A\u002A174*
X185287095Y-133094282D03*
G04 #@! TD*
G04 #@! TO.C,REF\u002A\u002A407*
X167507095Y-148334281D03*
G04 #@! TD*
G04 #@! TO.C,REF\u002A\u002A147*
X218307095Y-130554281D03*
G04 #@! TD*
G04 #@! TO.C,REF\u002A\u002A127*
X167507095Y-130554282D03*
G04 #@! TD*
G04 #@! TO.C,REF\u002A\u002A216*
X190367095Y-135634281D03*
G04 #@! TD*
G04 #@! TO.C,REF\u002A\u002A60*
X200527095Y-125474281D03*
G04 #@! TD*
G04 #@! TO.C,REF\u002A\u002A470*
X225927096Y-150874281D03*
G04 #@! TD*
G04 #@! TO.C,REF\u002A\u002A84*
X159887095Y-128014281D03*
G04 #@! TD*
G04 #@! TO.C,REF\u002A\u002A378*
X195447095Y-145794282D03*
G04 #@! TD*
D20*
G04 #@! TO.C,H1*
X154401832Y-124224281D03*
X154885106Y-123057555D03*
X154885106Y-125391007D03*
X156051832Y-122574281D03*
D21*
X156051832Y-124224281D03*
D20*
X156051832Y-125874281D03*
X157218558Y-123057555D03*
X157218558Y-125391007D03*
X157701832Y-124224281D03*
G04 #@! TD*
D10*
G04 #@! TO.C,REF\u002A\u002A499*
X197987096Y-153414281D03*
G04 #@! TD*
G04 #@! TO.C,REF\u002A\u002A456*
X190367095Y-150874282D03*
G04 #@! TD*
G04 #@! TO.C,REF\u002A\u002A260*
X200527095Y-138174281D03*
G04 #@! TD*
G04 #@! TO.C,REF\u002A\u002A442*
X154807095Y-150874281D03*
G04 #@! TD*
G04 #@! TO.C,REF\u002A\u002A539*
X197987096Y-155954281D03*
G04 #@! TD*
G04 #@! TO.C,REF\u002A\u002A273*
X233547095Y-138174281D03*
G04 #@! TD*
G04 #@! TO.C,REF\u002A\u002A380*
X200527095Y-145794281D03*
G04 #@! TD*
G04 #@! TO.C,REF\u002A\u002A579*
X197987095Y-158494282D03*
G04 #@! TD*
G04 #@! TO.C,REF\u002A\u002A576*
X190367095Y-158494281D03*
G04 #@! TD*
G04 #@! TO.C,REF\u002A\u002A55*
X187827095Y-125474281D03*
G04 #@! TD*
G04 #@! TO.C,REF\u002A\u002A271*
X228467095Y-138174281D03*
G04 #@! TD*
G04 #@! TO.C,REF\u002A\u002A226*
X215767095Y-135634281D03*
G04 #@! TD*
G04 #@! TO.C,REF\u002A\u002A495*
X187827096Y-153414281D03*
G04 #@! TD*
G04 #@! TO.C,REF\u002A\u002A446*
X164967095Y-150874281D03*
G04 #@! TD*
G04 #@! TO.C,REF\u002A\u002A408*
X170047096Y-148334281D03*
G04 #@! TD*
G04 #@! TO.C,REF\u002A\u002A508*
X220847096Y-153414281D03*
G04 #@! TD*
G04 #@! TO.C,REF\u002A\u002A313*
X233547095Y-140714282D03*
G04 #@! TD*
G04 #@! TO.C,REF\u002A\u002A98*
X195447095Y-128014281D03*
G04 #@! TD*
G04 #@! TO.C,REF\u002A\u002A105*
X213227095Y-128014282D03*
G04 #@! TD*
G04 #@! TO.C,REF\u002A\u002A261*
X203067096Y-138174281D03*
G04 #@! TD*
G04 #@! TO.C,REF\u002A\u002A151*
X228467095Y-130554281D03*
G04 #@! TD*
G04 #@! TO.C,REF\u002A\u002A455*
X187827095Y-150874281D03*
G04 #@! TD*
D20*
G04 #@! TO.C,H2*
X250971832Y-124164281D03*
X251455106Y-122997555D03*
X251455106Y-125331007D03*
X252621832Y-122514281D03*
D21*
X252621832Y-124164281D03*
D20*
X252621832Y-125814281D03*
X253788558Y-122997555D03*
X253788558Y-125331007D03*
X254271832Y-124164281D03*
G04 #@! TD*
D10*
G04 #@! TO.C,REF\u002A\u002A457*
X192907096Y-150874281D03*
G04 #@! TD*
G04 #@! TO.C,REF\u002A\u002A215*
X187827096Y-135634281D03*
G04 #@! TD*
G04 #@! TO.C,REF\u002A\u002A293*
X182747095Y-140714281D03*
G04 #@! TD*
G04 #@! TO.C,REF\u002A\u002A306*
X215767096Y-140714281D03*
G04 #@! TD*
G04 #@! TO.C,REF\u002A\u002A292*
X180207095Y-140714282D03*
G04 #@! TD*
G04 #@! TO.C,REF\u002A\u002A494*
X185287095Y-153414281D03*
G04 #@! TD*
G04 #@! TO.C,REF\u002A\u002A6*
X164967096Y-122934281D03*
G04 #@! TD*
G04 #@! TO.C,REF\u002A\u002A7*
X167507095Y-122934281D03*
G04 #@! TD*
G04 #@! TO.C,REF\u002A\u002A509*
X223387095Y-153414281D03*
G04 #@! TD*
G04 #@! TO.C,REF\u002A\u002A366*
X164967096Y-145794281D03*
G04 #@! TD*
G04 #@! TO.C,REF\u002A\u002A171*
X177667095Y-133094281D03*
G04 #@! TD*
G04 #@! TO.C,REF\u002A\u002A103*
X208147095Y-128014281D03*
G04 #@! TD*
G04 #@! TO.C,REF\u002A\u002A542*
X205607095Y-155954281D03*
G04 #@! TD*
G04 #@! TO.C,REF\u002A\u002A488*
X170047095Y-153414281D03*
G04 #@! TD*
G04 #@! TO.C,REF\u002A\u002A123*
X157347095Y-130554282D03*
G04 #@! TD*
G04 #@! TO.C,REF\u002A\u002A330*
X175127096Y-143254281D03*
G04 #@! TD*
G04 #@! TO.C,REF\u002A\u002A404*
X159887095Y-148334281D03*
G04 #@! TD*
G04 #@! TO.C,REF\u002A\u002A46*
X164967095Y-125474281D03*
G04 #@! TD*
G04 #@! TO.C,REF\u002A\u002A300*
X200527095Y-140714282D03*
G04 #@! TD*
G04 #@! TO.C,REF\u002A\u002A141*
X203067095Y-130554282D03*
G04 #@! TD*
G04 #@! TO.C,REF\u002A\u002A510*
X225927095Y-153414281D03*
G04 #@! TD*
G04 #@! TO.C,REF\u002A\u002A101*
X203067096Y-128014281D03*
G04 #@! TD*
G04 #@! TO.C,REF\u002A\u002A139*
X197987096Y-130554281D03*
G04 #@! TD*
G04 #@! TO.C,REF\u002A\u002A471*
X228467095Y-150874281D03*
G04 #@! TD*
G04 #@! TO.C,REF\u002A\u002A167*
X167507095Y-133094281D03*
G04 #@! TD*
G04 #@! TO.C,REF\u002A\u002A178*
X195447095Y-133094282D03*
G04 #@! TD*
G04 #@! TO.C,REF\u002A\u002A345*
X213227095Y-143254281D03*
G04 #@! TD*
G04 #@! TO.C,REF\u002A\u002A175*
X187827096Y-133094281D03*
G04 #@! TD*
G04 #@! TO.C,REF\u002A\u002A568*
X170047095Y-158494281D03*
G04 #@! TD*
G04 #@! TO.C,REF\u002A\u002A230*
X225927095Y-135634281D03*
G04 #@! TD*
G04 #@! TO.C,REF\u002A\u002A448*
X170047096Y-150874281D03*
G04 #@! TD*
G04 #@! TO.C,REF\u002A\u002A301*
X203067096Y-140714282D03*
G04 #@! TD*
G04 #@! TO.C,REF\u002A\u002A110*
X225927096Y-128014281D03*
G04 #@! TD*
G04 #@! TO.C,REF\u002A\u002A243*
X157347096Y-138174281D03*
G04 #@! TD*
G04 #@! TO.C,REF\u002A\u002A108*
X220847095Y-128014281D03*
G04 #@! TD*
G04 #@! TO.C,REF\u002A\u002A263*
X208147095Y-138174281D03*
G04 #@! TD*
G04 #@! TO.C,REF\u002A\u002A410*
X175127095Y-148334281D03*
G04 #@! TD*
G04 #@! TO.C,REF\u002A\u002A402*
X154807095Y-148334281D03*
G04 #@! TD*
G04 #@! TO.C,REF\u002A\u002A343*
X208147096Y-143254281D03*
G04 #@! TD*
G04 #@! TO.C,REF\u002A\u002A310*
X225927096Y-140714282D03*
G04 #@! TD*
G04 #@! TO.C,REF\u002A\u002A503*
X208147095Y-153414281D03*
G04 #@! TD*
G04 #@! TO.C,REF\u002A\u002A314*
X236087095Y-140714282D03*
G04 #@! TD*
D20*
G04 #@! TO.C,H4*
X250971833Y-157304282D03*
X251455107Y-156137556D03*
X251455107Y-158471008D03*
X252621833Y-155654282D03*
D21*
X252621833Y-157304282D03*
D20*
X252621833Y-158954282D03*
X253788559Y-156137556D03*
X253788559Y-158471008D03*
X254271833Y-157304282D03*
G04 #@! TD*
D10*
G04 #@! TO.C,REF\u002A\u002A136*
X190367095Y-130554282D03*
G04 #@! TD*
G04 #@! TO.C,REF\u002A\u002A223*
X208147095Y-135634282D03*
G04 #@! TD*
G04 #@! TO.C,REF\u002A\u002A580*
X200527095Y-158494281D03*
G04 #@! TD*
G04 #@! TO.C,REF\u002A\u002A150*
X225927095Y-130554282D03*
G04 #@! TD*
G04 #@! TO.C,REF\u002A\u002A62*
X205607095Y-125474281D03*
G04 #@! TD*
G04 #@! TO.C,REF\u002A\u002A311*
X228467095Y-140714281D03*
G04 #@! TD*
G04 #@! TO.C,REF\u002A\u002A422*
X205607095Y-148334281D03*
G04 #@! TD*
G04 #@! TO.C,REF\u002A\u002A289*
X172587095Y-140714281D03*
G04 #@! TD*
G04 #@! TO.C,REF\u002A\u002A526*
X164967096Y-155954281D03*
G04 #@! TD*
G04 #@! TO.C,REF\u002A\u002A505*
X213227095Y-153414281D03*
G04 #@! TD*
G04 #@! TO.C,REF\u002A\u002A94*
X185287095Y-128014281D03*
G04 #@! TD*
G04 #@! TO.C,REF\u002A\u002A106*
X215767096Y-128014281D03*
G04 #@! TD*
G04 #@! TO.C,REF\u002A\u002A149*
X223387095Y-130554282D03*
G04 #@! TD*
G04 #@! TO.C,REF\u002A\u002A459*
X197987095Y-150874281D03*
G04 #@! TD*
G04 #@! TO.C,REF\u002A\u002A113*
X233547095Y-128014281D03*
G04 #@! TD*
G04 #@! TO.C,REF\u002A\u002A444*
X159887095Y-150874281D03*
G04 #@! TD*
G04 #@! TO.C,REF\u002A\u002A63*
X208147095Y-125474281D03*
G04 #@! TD*
G04 #@! TO.C,REF\u002A\u002A569*
X172587095Y-158494282D03*
G04 #@! TD*
G04 #@! TO.C,REF\u002A\u002A85*
X162427095Y-128014281D03*
G04 #@! TD*
G04 #@! TO.C,REF\u002A\u002A210*
X175127095Y-135634282D03*
G04 #@! TD*
G04 #@! TO.C,REF\u002A\u002A486*
X164967096Y-153414281D03*
G04 #@! TD*
G04 #@! TO.C,REF\u002A\u002A302*
X205607095Y-140714281D03*
G04 #@! TD*
G04 #@! TO.C,REF\u002A\u002A213*
X182747095Y-135634282D03*
G04 #@! TD*
G04 #@! TO.C,REF\u002A\u002A8*
X170047095Y-122934281D03*
G04 #@! TD*
G04 #@! TO.C,REF\u002A\u002A111*
X228467095Y-128014281D03*
G04 #@! TD*
D19*
G04 #@! TO.C,SW1*
X172731832Y-125444281D03*
X185231832Y-125444281D03*
X172731832Y-130444281D03*
X185231832Y-130444281D03*
G04 #@! TD*
D10*
G04 #@! TO.C,REF\u002A\u002A172*
X180207095Y-133094281D03*
G04 #@! TD*
G04 #@! TO.C,REF\u002A\u002A367*
X167507095Y-145794281D03*
G04 #@! TD*
G04 #@! TO.C,REF\u002A\u002A381*
X203067095Y-145794281D03*
G04 #@! TD*
G04 #@! TO.C,REF\u002A\u002A126*
X164967096Y-130554282D03*
G04 #@! TD*
G04 #@! TO.C,REF\u002A\u002A137*
X192907095Y-130554282D03*
G04 #@! TD*
G04 #@! TO.C,REF\u002A\u002A323*
X157347095Y-143254281D03*
G04 #@! TD*
G04 #@! TO.C,REF\u002A\u002A574*
X185287095Y-158494282D03*
G04 #@! TD*
G04 #@! TO.C,REF\u002A\u002A409*
X172587095Y-148334281D03*
G04 #@! TD*
G04 #@! TO.C,REF\u002A\u002A15*
X187827096Y-122934281D03*
G04 #@! TD*
G04 #@! TO.C,REF\u002A\u002A413*
X182747095Y-148334281D03*
G04 #@! TD*
G04 #@! TO.C,REF\u002A\u002A265*
X213227096Y-138174281D03*
G04 #@! TD*
G04 #@! TO.C,REF\u002A\u002A570*
X175127095Y-158494282D03*
G04 #@! TD*
D19*
G04 #@! TO.C,SW6*
X223521832Y-143314281D03*
X236021832Y-143314281D03*
X223521832Y-148314281D03*
X236021832Y-148314281D03*
G04 #@! TD*
D10*
G04 #@! TO.C,REF\u002A\u002A88*
X170047096Y-128014281D03*
G04 #@! TD*
G04 #@! TO.C,REF\u002A\u002A483*
X157347095Y-153414281D03*
G04 #@! TD*
G04 #@! TO.C,REF\u002A\u002A227*
X218307095Y-135634282D03*
G04 #@! TD*
G04 #@! TO.C,REF\u002A\u002A527*
X167507095Y-155954281D03*
G04 #@! TD*
G04 #@! TO.C,REF\u002A\u002A146*
X215767095Y-130554282D03*
G04 #@! TD*
G04 #@! TO.C,REF\u002A\u002A426*
X215767096Y-148334281D03*
G04 #@! TD*
G04 #@! TO.C,REF\u002A\u002A143*
X208147095Y-130554281D03*
G04 #@! TD*
G04 #@! TO.C,REF\u002A\u002A463*
X208147095Y-150874281D03*
G04 #@! TD*
G04 #@! TO.C,REF\u002A\u002A66*
X215767096Y-125474281D03*
G04 #@! TD*
G04 #@! TO.C,REF\u002A\u002A371*
X177667095Y-145794281D03*
G04 #@! TD*
G04 #@! TO.C,REF\u002A\u002A548*
X220847096Y-155954281D03*
G04 #@! TD*
G04 #@! TO.C,REF\u002A\u002A365*
X162427095Y-145794282D03*
G04 #@! TD*
G04 #@! TO.C,REF\u002A\u002A65*
X213227095Y-125474281D03*
G04 #@! TD*
G04 #@! TO.C,REF\u002A\u002A202*
X154807095Y-135634281D03*
G04 #@! TD*
G04 #@! TO.C,REF\u002A\u002A458*
X195447095Y-150874281D03*
G04 #@! TD*
G04 #@! TO.C,REF\u002A\u002A204*
X159887095Y-135634282D03*
G04 #@! TD*
G04 #@! TO.C,REF\u002A\u002A59*
X197987095Y-125474281D03*
G04 #@! TD*
G04 #@! TO.C,REF\u002A\u002A524*
X159887095Y-155954281D03*
G04 #@! TD*
G04 #@! TO.C,REF\u002A\u002A231*
X228467095Y-135634282D03*
G04 #@! TD*
G04 #@! TO.C,REF\u002A\u002A331*
X177667095Y-143254281D03*
G04 #@! TD*
G04 #@! TO.C,REF\u002A\u002A385*
X213227095Y-145794281D03*
G04 #@! TD*
G04 #@! TO.C,REF\u002A\u002A153*
X233547095Y-130554282D03*
G04 #@! TD*
G04 #@! TO.C,REF\u002A\u002A188*
X220847096Y-133094281D03*
G04 #@! TD*
G04 #@! TO.C,REF\u002A\u002A253*
X182747095Y-138174281D03*
G04 #@! TD*
G04 #@! TO.C,REF\u002A\u002A69*
X223387095Y-125474281D03*
G04 #@! TD*
G04 #@! TO.C,REF\u002A\u002A5*
X162427095Y-122934282D03*
G04 #@! TD*
G04 #@! TO.C,REF\u002A\u002A418*
X195447095Y-148334281D03*
G04 #@! TD*
G04 #@! TO.C,REF\u002A\u002A303*
X208147095Y-140714281D03*
G04 #@! TD*
G04 #@! TO.C,REF\u002A\u002A266*
X215767096Y-138174281D03*
G04 #@! TD*
G04 #@! TO.C,REF\u002A\u002A225*
X213227095Y-135634281D03*
G04 #@! TD*
G04 #@! TO.C,REF\u002A\u002A173*
X182747095Y-133094281D03*
G04 #@! TD*
G04 #@! TO.C,REF\u002A\u002A342*
X205607095Y-143254281D03*
G04 #@! TD*
G04 #@! TO.C,REF\u002A\u002A496*
X190367095Y-153414281D03*
G04 #@! TD*
G04 #@! TO.C,REF\u002A\u002A9*
X172587095Y-122934282D03*
G04 #@! TD*
G04 #@! TO.C,REF\u002A\u002A44*
X159887095Y-125474281D03*
G04 #@! TD*
G04 #@! TO.C,REF\u002A\u002A220*
X200527095Y-135634281D03*
G04 #@! TD*
G04 #@! TO.C,REF\u002A\u002A586*
X215767095Y-158494281D03*
G04 #@! TD*
G04 #@! TO.C,REF\u002A\u002A128*
X170047095Y-130554282D03*
G04 #@! TD*
G04 #@! TO.C,REF\u002A\u002A415*
X187827095Y-148334281D03*
G04 #@! TD*
G04 #@! TO.C,REF\u002A\u002A497*
X192907095Y-153414281D03*
G04 #@! TD*
D20*
G04 #@! TO.C,H3*
X154491832Y-157434282D03*
X154975106Y-156267556D03*
X154975106Y-158601008D03*
X156141832Y-155784282D03*
D21*
X156141832Y-157434282D03*
D20*
X156141832Y-159084282D03*
X157308558Y-156267556D03*
X157308558Y-158601008D03*
X157791832Y-157434282D03*
G04 #@! TD*
D10*
G04 #@! TO.C,REF\u002A\u002A541*
X203067095Y-155954281D03*
G04 #@! TD*
G04 #@! TO.C,REF\u002A\u002A181*
X203067095Y-133094281D03*
G04 #@! TD*
G04 #@! TO.C,REF\u002A\u002A125*
X162427095Y-130554281D03*
G04 #@! TD*
G04 #@! TO.C,REF\u002A\u002A545*
X213227095Y-155954281D03*
G04 #@! TD*
G04 #@! TO.C,REF\u002A\u002A13*
X182747095Y-122934281D03*
G04 #@! TD*
G04 #@! TO.C,REF\u002A\u002A403*
X157347095Y-148334281D03*
G04 #@! TD*
G04 #@! TO.C,REF\u002A\u002A138*
X195447095Y-130554281D03*
G04 #@! TD*
G04 #@! TO.C,REF\u002A\u002A543*
X208147095Y-155954282D03*
G04 #@! TD*
G04 #@! TO.C,REF\u002A\u002A211*
X177667095Y-135634281D03*
G04 #@! TD*
G04 #@! TO.C,REF\u002A\u002A252*
X180207096Y-138174281D03*
G04 #@! TD*
D19*
G04 #@! TO.C,SW4*
X185301832Y-138224281D03*
X197801832Y-138224281D03*
X185301832Y-143224281D03*
X197801832Y-143224281D03*
G04 #@! TD*
D10*
G04 #@! TO.C,REF\u002A\u002A148*
X220847096Y-130554281D03*
G04 #@! TD*
G04 #@! TO.C,REF\u002A\u002A183*
X208147096Y-133094281D03*
G04 #@! TD*
G04 #@! TO.C,REF\u002A\u002A140*
X200527095Y-130554282D03*
G04 #@! TD*
G04 #@! TO.C,REF\u002A\u002A376*
X190367095Y-145794281D03*
G04 #@! TD*
G04 #@! TO.C,REF\u002A\u002A169*
X172587095Y-133094281D03*
G04 #@! TD*
G04 #@! TO.C,REF\u002A\u002A242*
X154807095Y-138174281D03*
G04 #@! TD*
G04 #@! TO.C,REF\u002A\u002A498*
X195447095Y-153414281D03*
G04 #@! TD*
G04 #@! TO.C,REF\u002A\u002A283*
X157347095Y-140714282D03*
G04 #@! TD*
G04 #@! TO.C,REF\u002A\u002A212*
X180207095Y-135634281D03*
G04 #@! TD*
D19*
G04 #@! TO.C,SW3*
X172691833Y-150914281D03*
X185191833Y-150914281D03*
X172691833Y-155914281D03*
X185191833Y-155914281D03*
G04 #@! TD*
D10*
G04 #@! TO.C,REF\u002A\u002A176*
X190367095Y-133094281D03*
G04 #@! TD*
G04 #@! TO.C,REF\u002A\u002A68*
X220847095Y-125474281D03*
G04 #@! TD*
G04 #@! TO.C,REF\u002A\u002A421*
X203067096Y-148334281D03*
G04 #@! TD*
G04 #@! TO.C,REF\u002A\u002A270*
X225927096Y-138174281D03*
G04 #@! TD*
G04 #@! TO.C,REF\u002A\u002A221*
X203067095Y-135634281D03*
G04 #@! TD*
G04 #@! TO.C,REF\u002A\u002A262*
X205607095Y-138174281D03*
G04 #@! TD*
G04 #@! TO.C,REF\u002A\u002A56*
X190367095Y-125474281D03*
G04 #@! TD*
G04 #@! TO.C,REF\u002A\u002A389*
X223387095Y-145794281D03*
G04 #@! TD*
G04 #@! TO.C,REF\u002A\u002A588*
X220847095Y-158494282D03*
G04 #@! TD*
G04 #@! TO.C,REF\u002A\u002A122*
X154807095Y-130554282D03*
G04 #@! TD*
G04 #@! TO.C,REF\u002A\u002A299*
X197987095Y-140714281D03*
G04 #@! TD*
G04 #@! TO.C,REF\u002A\u002A461*
X203067095Y-150874282D03*
G04 #@! TD*
G04 #@! TO.C,REF\u002A\u002A412*
X180207096Y-148334281D03*
G04 #@! TD*
G04 #@! TO.C,REF\u002A\u002A363*
X157347095Y-145794281D03*
G04 #@! TD*
G04 #@! TO.C,REF\u002A\u002A179*
X197987096Y-133094281D03*
G04 #@! TD*
G04 #@! TO.C,REF\u002A\u002A185*
X213227095Y-133094281D03*
G04 #@! TD*
G04 #@! TO.C,REF\u002A\u002A469*
X223387095Y-150874282D03*
G04 #@! TD*
G04 #@! TO.C,REF\u002A\u002A581*
X203067095Y-158494281D03*
G04 #@! TD*
G04 #@! TO.C,REF\u002A\u002A290*
X175127095Y-140714281D03*
G04 #@! TD*
G04 #@! TO.C,REF\u002A\u002A190*
X225927095Y-133094281D03*
G04 #@! TD*
G04 #@! TO.C,REF\u002A\u002A282*
X154807095Y-140714282D03*
G04 #@! TD*
G04 #@! TO.C,REF\u002A\u002A83*
X157347095Y-128014282D03*
G04 #@! TD*
G04 #@! TO.C,REF\u002A\u002A547*
X218307095Y-155954282D03*
G04 #@! TD*
G04 #@! TO.C,REF\u002A\u002A585*
X213227095Y-158494281D03*
G04 #@! TD*
G04 #@! TO.C,REF\u002A\u002A135*
X187827096Y-130554282D03*
G04 #@! TD*
G04 #@! TO.C,REF\u002A\u002A186*
X215767095Y-133094281D03*
G04 #@! TD*
G04 #@! TO.C,REF\u002A\u002A71*
X228467095Y-125474281D03*
G04 #@! TD*
G04 #@! TO.C,REF\u002A\u002A12*
X180207095Y-122934281D03*
G04 #@! TD*
G04 #@! TO.C,REF\u002A\u002A305*
X213227095Y-140714282D03*
G04 #@! TD*
G04 #@! TO.C,REF\u002A\u002A582*
X205607095Y-158494282D03*
G04 #@! TD*
G04 #@! TO.C,REF\u002A\u002A387*
X218307095Y-145794282D03*
G04 #@! TD*
G04 #@! TO.C,REF\u002A\u002A411*
X177667095Y-148334281D03*
G04 #@! TD*
G04 #@! TO.C,REF\u002A\u002A485*
X162427095Y-153414281D03*
G04 #@! TD*
G04 #@! TO.C,REF\u002A\u002A368*
X170047095Y-145794281D03*
G04 #@! TD*
G04 #@! TO.C,REF\u002A\u002A540*
X200527095Y-155954281D03*
G04 #@! TD*
G04 #@! TO.C,REF\u002A\u002A11*
X177667095Y-122934281D03*
G04 #@! TD*
G04 #@! TO.C,REF\u002A\u002A109*
X223387095Y-128014282D03*
G04 #@! TD*
G04 #@! TO.C,REF\u002A\u002A571*
X177667095Y-158494281D03*
G04 #@! TD*
G04 #@! TO.C,REF\u002A\u002A96*
X190367095Y-128014282D03*
G04 #@! TD*
D19*
G04 #@! TO.C,SW5*
X236391832Y-130624282D03*
X248891832Y-130624282D03*
X236391832Y-135624282D03*
X248891832Y-135624282D03*
G04 #@! TD*
D10*
G04 #@! TO.C,REF\u002A\u002A99*
X197987095Y-128014281D03*
G04 #@! TD*
G04 #@! TO.C,REF\u002A\u002A567*
X167507095Y-158494281D03*
G04 #@! TD*
G04 #@! TO.C,REF\u002A\u002A467*
X218307095Y-150874281D03*
G04 #@! TD*
G04 #@! TO.C,REF\u002A\u002A346*
X215767095Y-143254281D03*
G04 #@! TD*
G04 #@! TO.C,REF\u002A\u002A507*
X218307095Y-153414281D03*
G04 #@! TD*
G04 #@! TO.C,REF\u002A\u002A251*
X177667095Y-138174281D03*
G04 #@! TD*
G04 #@! TO.C,REF\u002A\u002A575*
X187827096Y-158494281D03*
G04 #@! TD*
G04 #@! TO.C,REF\u002A\u002A482*
X154807095Y-153414281D03*
G04 #@! TD*
G04 #@! TO.C,REF\u002A\u002A577*
X192907095Y-158494281D03*
G04 #@! TD*
G04 #@! TO.C,REF\u002A\u002A70*
X225927096Y-125474281D03*
G04 #@! TD*
G04 #@! TO.C,REF\u002A\u002A405*
X162427095Y-148334281D03*
G04 #@! TD*
G04 #@! TO.C,REF\u002A\u002A587*
X218307095Y-158494282D03*
G04 #@! TD*
G04 #@! TO.C,REF\u002A\u002A382*
X205607095Y-145794282D03*
G04 #@! TD*
G04 #@! TO.C,REF\u002A\u002A294*
X185287095Y-140714281D03*
G04 #@! TD*
G04 #@! TO.C,REF\u002A\u002A333*
X182747095Y-143254281D03*
G04 #@! TD*
G04 #@! TO.C,REF\u002A\u002A219*
X197987095Y-135634282D03*
G04 #@! TD*
G04 #@! TO.C,REF\u002A\u002A170*
X175127096Y-133094281D03*
G04 #@! TD*
G04 #@! TO.C,REF\u002A\u002A468*
X220847095Y-150874281D03*
G04 #@! TD*
G04 #@! TO.C,REF\u002A\u002A308*
X220847095Y-140714281D03*
G04 #@! TD*
G04 #@! TO.C,REF\u002A\u002A269*
X223387095Y-138174281D03*
G04 #@! TD*
G04 #@! TO.C,REF\u002A\u002A67*
X218307095Y-125474281D03*
G04 #@! TD*
G04 #@! TO.C,REF\u002A\u002A573*
X182747095Y-158494282D03*
G04 #@! TD*
G04 #@! TO.C,REF\u002A\u002A47*
X167507095Y-125474281D03*
G04 #@! TD*
G04 #@! TO.C,REF\u002A\u002A370*
X175127095Y-145794282D03*
G04 #@! TD*
D16*
G04 #@! TO.C,C32*
X162570000Y-105430000D03*
X161610000Y-105430000D03*
G04 #@! TD*
D22*
G04 #@! TO.C,D2*
X166870000Y-97440000D03*
X166870000Y-100740000D03*
G04 #@! TD*
D23*
G04 #@! TO.C,R2*
X240607095Y-154044280D03*
X240607095Y-153024282D03*
G04 #@! TD*
D24*
G04 #@! TO.C,C17*
X192492775Y-106889298D03*
X191813953Y-107568120D03*
G04 #@! TD*
D25*
G04 #@! TO.C,R12*
X165460001Y-92950000D03*
X166479999Y-92950000D03*
G04 #@! TD*
D26*
G04 #@! TO.C,C6*
X204269824Y-98096238D03*
X204948646Y-97417416D03*
G04 #@! TD*
D23*
G04 #@! TO.C,R5*
X223051833Y-102544280D03*
X223051833Y-101524282D03*
G04 #@! TD*
D27*
G04 #@! TO.C,C19*
X200280589Y-109340589D03*
X200959411Y-110019411D03*
G04 #@! TD*
G04 #@! TO.C,C8*
X190430589Y-93970589D03*
X191109411Y-94649411D03*
G04 #@! TD*
D28*
G04 #@! TO.C,C7*
X187622500Y-99464416D03*
X186943678Y-98785594D03*
G04 #@! TD*
D16*
G04 #@! TO.C,C33*
X162570000Y-107740000D03*
X161610000Y-107740000D03*
G04 #@! TD*
D28*
G04 #@! TO.C,C3*
X208346568Y-102049412D03*
X207667746Y-101370590D03*
G04 #@! TD*
D23*
G04 #@! TO.C,R4*
X223081832Y-112929280D03*
X223081832Y-111909282D03*
G04 #@! TD*
D29*
G04 #@! TO.C,C25*
X162430000Y-101350000D03*
X162430000Y-100390000D03*
G04 #@! TD*
D26*
G04 #@! TO.C,C10*
X206839972Y-100617260D03*
X207518794Y-99938438D03*
G04 #@! TD*
D25*
G04 #@! TO.C,R9*
X229640001Y-89080000D03*
X230659999Y-89080000D03*
G04 #@! TD*
D30*
G04 #@! TO.C,C2*
X204110589Y-105759412D03*
X204789412Y-105080589D03*
G04 #@! TD*
D31*
G04 #@! TO.C,Q1*
X164050000Y-92690000D03*
X164050000Y-93990000D03*
X162050000Y-93340000D03*
G04 #@! TD*
D26*
G04 #@! TO.C,C15*
X206132865Y-99910154D03*
X206811687Y-99231332D03*
G04 #@! TD*
D32*
G04 #@! TO.C,C20*
X169040000Y-100515000D03*
X169040000Y-102065000D03*
G04 #@! TD*
D25*
G04 #@! TO.C,R10*
X165440001Y-91890000D03*
X166459999Y-91890000D03*
G04 #@! TD*
D16*
G04 #@! TO.C,C28*
X162580000Y-106740000D03*
X161620000Y-106740000D03*
G04 #@! TD*
D33*
G04 #@! TO.C,J1*
X246007096Y-156834282D03*
X240227096Y-156834282D03*
D34*
X246317096Y-155759282D03*
X245517096Y-155759282D03*
D35*
X244367096Y-155759283D03*
X243367096Y-155759282D03*
X242867096Y-155759282D03*
X241867096Y-155759283D03*
D34*
X240717096Y-155759282D03*
X239917096Y-155759282D03*
X239917096Y-155759282D03*
X240717096Y-155759282D03*
D35*
X241367096Y-155759282D03*
X242367096Y-155759282D03*
X243867096Y-155759282D03*
X244867096Y-155759282D03*
D34*
X245517096Y-155759282D03*
X246317096Y-155759282D03*
D36*
X247437096Y-160514282D03*
D37*
X247437096Y-156334282D03*
D36*
X238797096Y-160514282D03*
D37*
X238797096Y-156334282D03*
G04 #@! TD*
D38*
G04 #@! TO.C,L2*
X172150000Y-100540000D03*
X172150000Y-97540000D03*
G04 #@! TD*
D39*
G04 #@! TO.C,D1*
X170580000Y-95370000D03*
X167280000Y-95370000D03*
G04 #@! TD*
D16*
G04 #@! TO.C,C16*
X192520000Y-100180000D03*
X191560000Y-100180000D03*
G04 #@! TD*
D40*
G04 #@! TO.C,RESET1*
X230561833Y-98749281D03*
X224561833Y-98749281D03*
X230561833Y-102499281D03*
X224561833Y-102499281D03*
G04 #@! TD*
D41*
G04 #@! TO.C,U3*
X252307095Y-149284281D03*
X250007095Y-149284280D03*
D42*
X250007095Y-142984282D03*
D41*
X247707095Y-149284281D03*
G04 #@! TD*
D30*
G04 #@! TO.C,C1*
X203390589Y-105049412D03*
X204069412Y-104370589D03*
G04 #@! TD*
D16*
G04 #@! TO.C,C27*
X162580000Y-104380000D03*
X161620000Y-104380000D03*
G04 #@! TD*
D43*
G04 #@! TO.C,C12*
X248090001Y-140620000D03*
X249989999Y-140620000D03*
G04 #@! TD*
D24*
G04 #@! TO.C,C4*
X194225186Y-108579283D03*
X193546364Y-109258105D03*
G04 #@! TD*
D16*
G04 #@! TO.C,C31*
X162580000Y-103380000D03*
X161620000Y-103380000D03*
G04 #@! TD*
D44*
G04 #@! TO.C,D3*
X164470000Y-100760000D03*
X164470000Y-97460000D03*
G04 #@! TD*
D23*
G04 #@! TO.C,R1*
X245207095Y-154044281D03*
X245207095Y-153024283D03*
G04 #@! TD*
D45*
G04 #@! TO.C,U2*
X198276908Y-107059004D03*
X197994065Y-106776162D03*
X197711222Y-106493319D03*
X197428379Y-106210476D03*
X197145537Y-105927634D03*
X196862694Y-105644791D03*
X196579851Y-105361948D03*
X196297009Y-105079105D03*
X196014166Y-104796263D03*
X195731323Y-104513420D03*
X195448480Y-104230577D03*
X195165638Y-103947735D03*
X194882795Y-103664892D03*
X194599952Y-103382049D03*
X194317110Y-103099206D03*
D46*
X194317110Y-102179968D03*
X194599952Y-101897125D03*
X194882795Y-101614282D03*
X195165638Y-101331439D03*
X195448480Y-101048597D03*
X195731323Y-100765754D03*
X196014166Y-100482911D03*
X196297009Y-100200069D03*
X196579851Y-99917226D03*
X196862694Y-99634383D03*
X197145537Y-99351540D03*
X197428379Y-99068698D03*
X197711222Y-98785855D03*
X197994065Y-98503012D03*
X198276908Y-98220170D03*
D45*
X199196146Y-98220170D03*
X199478989Y-98503012D03*
X199761832Y-98785855D03*
X200044675Y-99068698D03*
X200327517Y-99351540D03*
X200610360Y-99634383D03*
X200893203Y-99917226D03*
X201176045Y-100200069D03*
X201458888Y-100482911D03*
X201741731Y-100765754D03*
X202024574Y-101048597D03*
X202307416Y-101331439D03*
X202590259Y-101614282D03*
X202873102Y-101897125D03*
X203155944Y-102179968D03*
D46*
X203155944Y-103099206D03*
X202873102Y-103382049D03*
X202590259Y-103664892D03*
X202307416Y-103947735D03*
X202024574Y-104230577D03*
X201741731Y-104513420D03*
X201458888Y-104796263D03*
X201176045Y-105079105D03*
X200893203Y-105361948D03*
X200610360Y-105644791D03*
X200327517Y-105927634D03*
X200044675Y-106210476D03*
X199761832Y-106493319D03*
X199478989Y-106776162D03*
X199196146Y-107059004D03*
D47*
X198736527Y-102639587D03*
G04 #@! TD*
D16*
G04 #@! TO.C,C30*
X162787095Y-96294281D03*
X161827095Y-96294281D03*
G04 #@! TD*
D48*
G04 #@! TO.C,D4*
X231017501Y-82374282D03*
X229142499Y-82374282D03*
G04 #@! TD*
D49*
G04 #@! TO.C,U5*
X159607095Y-105534282D03*
X159607095Y-105034282D03*
X159607095Y-104534282D03*
X159607095Y-104034282D03*
X159607095Y-103534282D03*
X159607095Y-103034282D03*
X159607095Y-102534282D03*
X159607095Y-102034282D03*
X159607095Y-101534282D03*
X159607095Y-101034282D03*
X159607095Y-100534282D03*
X159607095Y-100034282D03*
X159607095Y-99534282D03*
X159607095Y-99034282D03*
X159607095Y-98534282D03*
X159607095Y-98034282D03*
X159607095Y-97534282D03*
X159607095Y-97034282D03*
X159607095Y-96534282D03*
X159607095Y-96034282D03*
X159607095Y-95534282D03*
X159607095Y-95034282D03*
X159607095Y-94534282D03*
X159607095Y-94034282D03*
D50*
X157257095Y-107184282D03*
X157257095Y-92384282D03*
G04 #@! TD*
D51*
G04 #@! TO.C,R13*
X232420000Y-81850002D03*
X232420000Y-82870000D03*
G04 #@! TD*
D52*
G04 #@! TO.C,R6*
X191759376Y-95309376D03*
X192480624Y-96030624D03*
G04 #@! TD*
D28*
G04 #@! TO.C,C5*
X194159411Y-96979411D03*
X193480589Y-96300589D03*
G04 #@! TD*
D43*
G04 #@! TO.C,C9*
X247357158Y-153500001D03*
X249257156Y-153500001D03*
G04 #@! TD*
D16*
G04 #@! TO.C,C26*
X162580000Y-102380000D03*
X161620000Y-102380000D03*
G04 #@! TD*
D53*
G04 #@! TO.C,Y1*
X188324365Y-97955635D03*
X189880000Y-96400000D03*
X191082081Y-97602081D03*
X189526446Y-99157716D03*
G04 #@! TD*
D16*
G04 #@! TO.C,C29*
X162590000Y-109070000D03*
X161630000Y-109070000D03*
G04 #@! TD*
D54*
G04 #@! TO.C,R3*
X209777781Y-103480625D03*
X209056533Y-102759377D03*
G04 #@! TD*
D51*
G04 #@! TO.C,R14*
X230640000Y-86160001D03*
X230640000Y-87179999D03*
G04 #@! TD*
D26*
G04 #@! TO.C,C14*
X203562718Y-97389133D03*
X204241540Y-96710311D03*
G04 #@! TD*
D27*
G04 #@! TO.C,C18*
X197796076Y-108275227D03*
X198474898Y-108954049D03*
G04 #@! TD*
D52*
G04 #@! TO.C,R8*
X203059376Y-107079376D03*
X203780624Y-107800624D03*
G04 #@! TD*
D27*
G04 #@! TO.C,C11*
X201000589Y-108620589D03*
X201679411Y-109299411D03*
G04 #@! TD*
D16*
G04 #@! TO.C,C24*
X162791833Y-95304281D03*
X161831833Y-95304281D03*
G04 #@! TD*
D55*
G04 #@! TO.C,C21*
X164115000Y-95560000D03*
X165665000Y-95560000D03*
G04 #@! TD*
D56*
G04 #@! TO.C,L1*
X204752893Y-107027107D03*
X206167107Y-105612893D03*
G04 #@! TD*
D52*
G04 #@! TO.C,R7*
X202329376Y-107809376D03*
X203050624Y-108530624D03*
G04 #@! TD*
D57*
G04 #@! TO.C,U1*
X241944658Y-151052500D03*
X242894657Y-151052500D03*
X243844656Y-151052500D03*
X243844656Y-153327500D03*
X242894657Y-153327500D03*
X241944658Y-153327500D03*
G04 #@! TD*
D40*
G04 #@! TO.C,BOOT1*
X230581832Y-109044281D03*
X224581832Y-109044281D03*
X230581832Y-112794281D03*
X224581832Y-112794281D03*
G04 #@! TD*
D26*
G04 #@! TO.C,C13*
X197994066Y-96763528D03*
X198672888Y-96084706D03*
G04 #@! TD*
D25*
G04 #@! TO.C,R11*
X229660001Y-90640000D03*
X230679999Y-90640000D03*
G04 #@! TD*
D10*
G04 #@! TO.C,REF\u002A\u002A192*
X231007096Y-133094281D03*
G04 #@! TD*
M02*
